<mxfile host="app.diagrams.net" modified="2024-01-03T22:24:51.318Z" agent="Mozilla/5.0 (Windows NT 10.0; Win64; x64) AppleWebKit/537.36 (KHTML, like Gecko) Chrome/120.0.0.0 Safari/537.36" etag="2_iX43uCkcgqnyGEsgvg" version="22.1.16" type="device" pages="7">
  <diagram name="Warehouse DB" id="RqSgnn0C0iW0idcym61U">
    <mxGraphModel dx="1366" dy="779" grid="1" gridSize="10" guides="1" tooltips="1" connect="1" arrows="1" fold="1" page="1" pageScale="1" pageWidth="1200" pageHeight="1920" math="0" shadow="0">
      <root>
        <mxCell id="0" />
        <mxCell id="1" parent="0" />
        <mxCell id="kSXjdV5MXgga6XgHs4iR-3" value="Warehouse DB" style="rounded=0;whiteSpace=wrap;html=1;" vertex="1" parent="1">
          <mxGeometry x="40" y="30" width="120" height="60" as="geometry" />
        </mxCell>
        <mxCell id="kSXjdV5MXgga6XgHs4iR-4" value="Part ID" style="rounded=1;whiteSpace=wrap;html=1;" vertex="1" parent="1">
          <mxGeometry x="190" y="30" width="120" height="20" as="geometry" />
        </mxCell>
        <mxCell id="kSXjdV5MXgga6XgHs4iR-5" value="Part Name" style="rounded=1;whiteSpace=wrap;html=1;" vertex="1" parent="1">
          <mxGeometry x="190" y="90" width="120" height="20" as="geometry" />
        </mxCell>
        <mxCell id="kSXjdV5MXgga6XgHs4iR-6" value="Part Number" style="rounded=1;whiteSpace=wrap;html=1;" vertex="1" parent="1">
          <mxGeometry x="190" y="70" width="120" height="20" as="geometry" />
        </mxCell>
        <mxCell id="kSXjdV5MXgga6XgHs4iR-7" value="Description" style="rounded=1;whiteSpace=wrap;html=1;" vertex="1" parent="1">
          <mxGeometry x="190" y="110" width="120" height="20" as="geometry" />
        </mxCell>
        <mxCell id="kSXjdV5MXgga6XgHs4iR-8" value="Category" style="rounded=1;whiteSpace=wrap;html=1;" vertex="1" parent="1">
          <mxGeometry x="190" y="130" width="120" height="20" as="geometry" />
        </mxCell>
        <mxCell id="kSXjdV5MXgga6XgHs4iR-9" value="Brand" style="rounded=1;whiteSpace=wrap;html=1;" vertex="1" parent="1">
          <mxGeometry x="190" y="50" width="120" height="20" as="geometry" />
        </mxCell>
        <mxCell id="kSXjdV5MXgga6XgHs4iR-10" value="Input Price" style="rounded=1;whiteSpace=wrap;html=1;" vertex="1" parent="1">
          <mxGeometry x="190" y="180" width="120" height="20" as="geometry" />
        </mxCell>
        <mxCell id="kSXjdV5MXgga6XgHs4iR-11" value="EUR/USD/UAH" style="rounded=1;whiteSpace=wrap;html=1;" vertex="1" parent="1">
          <mxGeometry x="310" y="180" width="120" height="20" as="geometry" />
        </mxCell>
        <mxCell id="kSXjdV5MXgga6XgHs4iR-20" value="Quantity in Stock" style="rounded=1;whiteSpace=wrap;html=1;" vertex="1" parent="1">
          <mxGeometry x="190" y="270" width="120" height="20" as="geometry" />
        </mxCell>
        <mxCell id="kSXjdV5MXgga6XgHs4iR-21" value="Quantity in Expectation" style="rounded=1;whiteSpace=wrap;html=1;" vertex="1" parent="1">
          <mxGeometry x="190" y="290" width="130" height="20" as="geometry" />
        </mxCell>
        <mxCell id="kSXjdV5MXgga6XgHs4iR-22" value="Supplier" style="rounded=1;whiteSpace=wrap;html=1;" vertex="1" parent="1">
          <mxGeometry x="190" y="330" width="120" height="20" as="geometry" />
        </mxCell>
        <mxCell id="kSXjdV5MXgga6XgHs4iR-23" value="Location" style="rounded=1;whiteSpace=wrap;html=1;" vertex="1" parent="1">
          <mxGeometry x="190" y="380" width="120" height="20" as="geometry" />
        </mxCell>
        <mxCell id="kSXjdV5MXgga6XgHs4iR-24" value="Image URL" style="rounded=1;whiteSpace=wrap;html=1;" vertex="1" parent="1">
          <mxGeometry x="190" y="420" width="120" height="20" as="geometry" />
        </mxCell>
        <mxCell id="kSXjdV5MXgga6XgHs4iR-25" value="Last Updated" style="rounded=1;whiteSpace=wrap;html=1;" vertex="1" parent="1">
          <mxGeometry x="190" y="480" width="120" height="20" as="geometry" />
        </mxCell>
        <mxCell id="kSXjdV5MXgga6XgHs4iR-28" value="BM/AL/OMEGA..." style="rounded=1;whiteSpace=wrap;html=1;" vertex="1" parent="1">
          <mxGeometry x="310" y="330" width="120" height="20" as="geometry" />
        </mxCell>
        <mxCell id="kSXjdV5MXgga6XgHs4iR-29" value="A2-1-1 / B2-1-1" style="rounded=1;whiteSpace=wrap;html=1;" vertex="1" parent="1">
          <mxGeometry x="430" y="380" width="120" height="20" as="geometry" />
        </mxCell>
        <mxCell id="kSXjdV5MXgga6XgHs4iR-30" value="Partner Output Price" style="rounded=1;whiteSpace=wrap;html=1;" vertex="1" parent="1">
          <mxGeometry x="190" y="200" width="120" height="20" as="geometry" />
        </mxCell>
        <mxCell id="kSXjdV5MXgga6XgHs4iR-31" value="Output Price" style="rounded=1;whiteSpace=wrap;html=1;" vertex="1" parent="1">
          <mxGeometry x="190" y="220" width="120" height="20" as="geometry" />
        </mxCell>
        <mxCell id="kSXjdV5MXgga6XgHs4iR-32" value="Last Sell" style="rounded=1;whiteSpace=wrap;html=1;" vertex="1" parent="1">
          <mxGeometry x="190" y="500" width="120" height="20" as="geometry" />
        </mxCell>
        <mxCell id="kSXjdV5MXgga6XgHs4iR-33" value="Safety Stock Level" style="rounded=1;whiteSpace=wrap;html=1;" vertex="1" parent="1">
          <mxGeometry x="190" y="460" width="120" height="20" as="geometry" />
        </mxCell>
        <mxCell id="kSXjdV5MXgga6XgHs4iR-34" value="Min amount of quant" style="rounded=1;whiteSpace=wrap;html=1;" vertex="1" parent="1">
          <mxGeometry x="310" y="460" width="120" height="20" as="geometry" />
        </mxCell>
        <mxCell id="kSXjdV5MXgga6XgHs4iR-35" value="Shelf/Rack ID" style="rounded=1;whiteSpace=wrap;html=1;" vertex="1" parent="1">
          <mxGeometry x="310" y="380" width="120" height="20" as="geometry" />
        </mxCell>
        <mxCell id="kSXjdV5MXgga6XgHs4iR-36" value="Metrics" style="rounded=1;whiteSpace=wrap;html=1;" vertex="1" parent="1">
          <mxGeometry x="190" y="540" width="120" height="20" as="geometry" />
        </mxCell>
        <mxCell id="kSXjdV5MXgga6XgHs4iR-38" value="Capacity Metrics" style="rounded=1;whiteSpace=wrap;html=1;" vertex="1" parent="1">
          <mxGeometry x="310" y="540" width="120" height="20" as="geometry" />
        </mxCell>
        <mxCell id="kSXjdV5MXgga6XgHs4iR-39" value="kg/l" style="rounded=1;whiteSpace=wrap;html=1;" vertex="1" parent="1">
          <mxGeometry x="430" y="540" width="120" height="20" as="geometry" />
        </mxCell>
        <mxCell id="kSXjdV5MXgga6XgHs4iR-40" value="Discount" style="rounded=1;whiteSpace=wrap;html=1;" vertex="1" parent="1">
          <mxGeometry x="310" y="200" width="120" height="20" as="geometry" />
        </mxCell>
        <mxCell id="kSXjdV5MXgga6XgHs4iR-41" value="Retail Price" style="rounded=1;whiteSpace=wrap;html=1;" vertex="1" parent="1">
          <mxGeometry x="310" y="220" width="120" height="20" as="geometry" />
        </mxCell>
      </root>
    </mxGraphModel>
  </diagram>
  <diagram id="x5vV0c5AfF9r8UHPKUON" name="Clients DB">
    <mxGraphModel dx="1434" dy="818" grid="1" gridSize="10" guides="1" tooltips="1" connect="1" arrows="1" fold="1" page="1" pageScale="1" pageWidth="1200" pageHeight="1920" math="0" shadow="0">
      <root>
        <mxCell id="0" />
        <mxCell id="1" parent="0" />
        <mxCell id="3CwJD5O_d3n-KKG3bzBn-1" value="Clients DB" style="rounded=0;whiteSpace=wrap;html=1;" vertex="1" parent="1">
          <mxGeometry x="40" y="30" width="120" height="60" as="geometry" />
        </mxCell>
        <mxCell id="3CwJD5O_d3n-KKG3bzBn-2" value="Client ID" style="rounded=1;whiteSpace=wrap;html=1;" vertex="1" parent="1">
          <mxGeometry x="190" y="30" width="120" height="20" as="geometry" />
        </mxCell>
        <mxCell id="3CwJD5O_d3n-KKG3bzBn-3" value="VIN&lt;br&gt;" style="rounded=1;whiteSpace=wrap;html=1;" vertex="1" parent="1">
          <mxGeometry x="310" y="90" width="120" height="20" as="geometry" />
        </mxCell>
        <mxCell id="3CwJD5O_d3n-KKG3bzBn-4" value="Contact Information" style="rounded=1;whiteSpace=wrap;html=1;" vertex="1" parent="1">
          <mxGeometry x="190" y="70" width="120" height="20" as="geometry" />
        </mxCell>
        <mxCell id="3CwJD5O_d3n-KKG3bzBn-5" value="Purchase History" style="rounded=1;whiteSpace=wrap;html=1;" vertex="1" parent="1">
          <mxGeometry x="190" y="130" width="120" height="20" as="geometry" />
        </mxCell>
        <mxCell id="3CwJD5O_d3n-KKG3bzBn-6" value="Rate" style="rounded=1;whiteSpace=wrap;html=1;" vertex="1" parent="1">
          <mxGeometry x="190" y="110" width="120" height="20" as="geometry" />
        </mxCell>
        <mxCell id="3CwJD5O_d3n-KKG3bzBn-7" value="Name" style="rounded=1;whiteSpace=wrap;html=1;" vertex="1" parent="1">
          <mxGeometry x="190" y="50" width="120" height="20" as="geometry" />
        </mxCell>
        <mxCell id="3CwJD5O_d3n-KKG3bzBn-8" value="Surname" style="rounded=1;whiteSpace=wrap;html=1;" vertex="1" parent="1">
          <mxGeometry x="310" y="50" width="120" height="20" as="geometry" />
        </mxCell>
        <mxCell id="3CwJD5O_d3n-KKG3bzBn-9" value="Plate Number" style="rounded=1;whiteSpace=wrap;html=1;" vertex="1" parent="1">
          <mxGeometry x="430" y="90" width="120" height="20" as="geometry" />
        </mxCell>
        <mxCell id="3CwJD5O_d3n-KKG3bzBn-10" value="Cars info" style="rounded=1;whiteSpace=wrap;html=1;" vertex="1" parent="1">
          <mxGeometry x="190" y="90" width="120" height="20" as="geometry" />
        </mxCell>
        <mxCell id="3CwJD5O_d3n-KKG3bzBn-11" value="Green flag" style="rounded=1;whiteSpace=wrap;html=1;" vertex="1" parent="1">
          <mxGeometry x="310" y="110" width="120" height="20" as="geometry" />
        </mxCell>
        <mxCell id="3CwJD5O_d3n-KKG3bzBn-12" value="Red flag" style="rounded=1;whiteSpace=wrap;html=1;" vertex="1" parent="1">
          <mxGeometry x="430" y="110" width="120" height="20" as="geometry" />
        </mxCell>
        <mxCell id="3CwJD5O_d3n-KKG3bzBn-14" value="Phone" style="rounded=1;whiteSpace=wrap;html=1;" vertex="1" parent="1">
          <mxGeometry x="310" y="70" width="120" height="20" as="geometry" />
        </mxCell>
        <mxCell id="3CwJD5O_d3n-KKG3bzBn-15" value="Comments" style="rounded=1;whiteSpace=wrap;html=1;" vertex="1" parent="1">
          <mxGeometry x="190" y="150" width="120" height="20" as="geometry" />
        </mxCell>
      </root>
    </mxGraphModel>
  </diagram>
  <diagram id="RW-I_yd1qY8pN1wq9FaH" name="Orders DB">
    <mxGraphModel dx="819" dy="467" grid="1" gridSize="10" guides="1" tooltips="1" connect="1" arrows="1" fold="1" page="1" pageScale="1" pageWidth="1200" pageHeight="1920" math="0" shadow="0">
      <root>
        <mxCell id="0" />
        <mxCell id="1" parent="0" />
        <mxCell id="-Umguc3KIg8Ladl05K0c-1" value="Orders DB" style="rounded=0;whiteSpace=wrap;html=1;" vertex="1" parent="1">
          <mxGeometry x="40" y="30" width="120" height="60" as="geometry" />
        </mxCell>
        <mxCell id="-Umguc3KIg8Ladl05K0c-2" value="Order ID" style="rounded=1;whiteSpace=wrap;html=1;" vertex="1" parent="1">
          <mxGeometry x="190" y="30" width="120" height="20" as="geometry" />
        </mxCell>
        <mxCell id="-Umguc3KIg8Ladl05K0c-3" value="List of Products" style="rounded=1;whiteSpace=wrap;html=1;" vertex="1" parent="1">
          <mxGeometry x="190" y="230" width="120" height="20" as="geometry" />
        </mxCell>
        <mxCell id="-Umguc3KIg8Ladl05K0c-4" value="Order Date and Time" style="rounded=1;whiteSpace=wrap;html=1;" vertex="1" parent="1">
          <mxGeometry x="190" y="70" width="120" height="20" as="geometry" />
        </mxCell>
        <mxCell id="-Umguc3KIg8Ladl05K0c-5" value="Fulfillment Status" style="rounded=1;whiteSpace=wrap;html=1;" vertex="1" parent="1">
          <mxGeometry x="190" y="110" width="120" height="20" as="geometry" />
        </mxCell>
        <mxCell id="-Umguc3KIg8Ladl05K0c-6" value="Total Amount" style="rounded=1;whiteSpace=wrap;html=1;" vertex="1" parent="1">
          <mxGeometry x="190" y="290" width="120" height="20" as="geometry" />
        </mxCell>
        <mxCell id="-Umguc3KIg8Ladl05K0c-7" value="&lt;div style=&quot;text-align: left;&quot;&gt;&lt;span style=&quot;background-color: initial;&quot;&gt;Client ID&lt;/span&gt;&lt;/div&gt;" style="rounded=1;whiteSpace=wrap;html=1;" vertex="1" parent="1">
          <mxGeometry x="190" y="50" width="120" height="20" as="geometry" />
        </mxCell>
        <mxCell id="-Umguc3KIg8Ladl05K0c-8" value="Accepted" style="rounded=1;whiteSpace=wrap;html=1;" vertex="1" parent="1">
          <mxGeometry x="310" y="110" width="120" height="20" as="geometry" />
        </mxCell>
        <mxCell id="-Umguc3KIg8Ladl05K0c-9" value="Ordered" style="rounded=1;whiteSpace=wrap;html=1;" vertex="1" parent="1">
          <mxGeometry x="430" y="110" width="120" height="20" as="geometry" />
        </mxCell>
        <mxCell id="-Umguc3KIg8Ladl05K0c-10" value="Called" style="rounded=1;whiteSpace=wrap;html=1;" vertex="1" parent="1">
          <mxGeometry x="550" y="110" width="120" height="20" as="geometry" />
        </mxCell>
        <mxCell id="-Umguc3KIg8Ladl05K0c-11" value="Finished" style="rounded=1;whiteSpace=wrap;html=1;" vertex="1" parent="1">
          <mxGeometry x="670" y="110" width="120" height="20" as="geometry" />
        </mxCell>
        <mxCell id="-Umguc3KIg8Ladl05K0c-12" value="Estimated Deliv. Date" style="rounded=1;whiteSpace=wrap;html=1;" vertex="1" parent="1">
          <mxGeometry x="190" y="130" width="120" height="20" as="geometry" />
        </mxCell>
        <mxCell id="-Umguc3KIg8Ladl05K0c-13" value="Discounts " style="rounded=1;whiteSpace=wrap;html=1;" vertex="1" parent="1">
          <mxGeometry x="190" y="160" width="120" height="20" as="geometry" />
        </mxCell>
        <mxCell id="-Umguc3KIg8Ladl05K0c-14" value="Order History Notes" style="rounded=1;whiteSpace=wrap;html=1;" vertex="1" parent="1">
          <mxGeometry x="190" y="190" width="120" height="20" as="geometry" />
        </mxCell>
        <mxCell id="-Umguc3KIg8Ladl05K0c-15" value="Suppliers" style="rounded=1;whiteSpace=wrap;html=1;" vertex="1" parent="1">
          <mxGeometry x="310" y="230" width="120" height="20" as="geometry" />
        </mxCell>
        <mxCell id="-Umguc3KIg8Ladl05K0c-16" value="Fulfillment Status" style="rounded=1;whiteSpace=wrap;html=1;" vertex="1" parent="1">
          <mxGeometry x="430" y="230" width="120" height="20" as="geometry" />
        </mxCell>
        <mxCell id="-Umguc3KIg8Ladl05K0c-17" value="Additional Spends" style="rounded=1;whiteSpace=wrap;html=1;" vertex="1" parent="1">
          <mxGeometry x="190" y="260" width="120" height="20" as="geometry" />
        </mxCell>
        <mxCell id="-Umguc3KIg8Ladl05K0c-18" value="Tax check ID" style="rounded=1;whiteSpace=wrap;html=1;" vertex="1" parent="1">
          <mxGeometry x="190" y="320" width="120" height="20" as="geometry" />
        </mxCell>
      </root>
    </mxGraphModel>
  </diagram>
  <diagram id="em5H8dTBg_5dPc9WHwi_" name="Chat responce">
    <mxGraphModel dx="989" dy="564" grid="1" gridSize="10" guides="1" tooltips="1" connect="1" arrows="1" fold="1" page="1" pageScale="1" pageWidth="1200" pageHeight="1920" math="0" shadow="0">
      <root>
        <mxCell id="0" />
        <mxCell id="1" parent="0" />
        <mxCell id="2CyT3kX0T92LD4zAvgRT-1" value="Fast Responce CHAT" style="rounded=0;whiteSpace=wrap;html=1;" vertex="1" parent="1">
          <mxGeometry x="40" y="40" width="120" height="60" as="geometry" />
        </mxCell>
        <mxCell id="2CyT3kX0T92LD4zAvgRT-2" value="Brand" style="rounded=1;whiteSpace=wrap;html=1;" vertex="1" parent="1">
          <mxGeometry x="200" y="40" width="120" height="20" as="geometry" />
        </mxCell>
        <mxCell id="2CyT3kX0T92LD4zAvgRT-3" value="Part Name" style="rounded=1;whiteSpace=wrap;html=1;" vertex="1" parent="1">
          <mxGeometry x="200" y="60" width="120" height="20" as="geometry" />
        </mxCell>
        <mxCell id="2CyT3kX0T92LD4zAvgRT-4" value="Description" style="rounded=1;whiteSpace=wrap;html=1;" vertex="1" parent="1">
          <mxGeometry x="200" y="80" width="120" height="20" as="geometry" />
        </mxCell>
        <mxCell id="2CyT3kX0T92LD4zAvgRT-5" value="Retail Price" style="rounded=1;whiteSpace=wrap;html=1;" vertex="1" parent="1">
          <mxGeometry x="200" y="130" width="120" height="20" as="geometry" />
        </mxCell>
      </root>
    </mxGraphModel>
  </diagram>
  <diagram id="B2b_fGGXP0xprDkN2uUd" name="Financial Transactions">
    <mxGraphModel dx="1434" dy="818" grid="1" gridSize="10" guides="1" tooltips="1" connect="1" arrows="1" fold="1" page="1" pageScale="1" pageWidth="1200" pageHeight="1920" math="0" shadow="0">
      <root>
        <mxCell id="0" />
        <mxCell id="1" parent="0" />
        <mxCell id="kRomxYxFkeML6yJxeoaD-1" value="Financial Transactions DB" style="rounded=0;whiteSpace=wrap;html=1;" vertex="1" parent="1">
          <mxGeometry x="40" y="30" width="120" height="60" as="geometry" />
        </mxCell>
        <mxCell id="kRomxYxFkeML6yJxeoaD-2" value="Transaction ID" style="rounded=1;whiteSpace=wrap;html=1;" vertex="1" parent="1">
          <mxGeometry x="190" y="30" width="120" height="20" as="geometry" />
        </mxCell>
        <mxCell id="kRomxYxFkeML6yJxeoaD-3" value="Type of transacrion" style="rounded=1;whiteSpace=wrap;html=1;" vertex="1" parent="1">
          <mxGeometry x="190" y="70" width="120" height="20" as="geometry" />
        </mxCell>
        <mxCell id="kRomxYxFkeML6yJxeoaD-4" value="&lt;div style=&quot;text-align: left;&quot;&gt;Date and Time&lt;br&gt;&lt;/div&gt;" style="rounded=1;whiteSpace=wrap;html=1;" vertex="1" parent="1">
          <mxGeometry x="190" y="50" width="120" height="20" as="geometry" />
        </mxCell>
        <mxCell id="kRomxYxFkeML6yJxeoaD-5" value="Sale" style="rounded=1;whiteSpace=wrap;html=1;" vertex="1" parent="1">
          <mxGeometry x="310" y="70" width="120" height="20" as="geometry" />
        </mxCell>
        <mxCell id="kRomxYxFkeML6yJxeoaD-6" value="Buy" style="rounded=1;whiteSpace=wrap;html=1;" vertex="1" parent="1">
          <mxGeometry x="430" y="70" width="120" height="20" as="geometry" />
        </mxCell>
        <mxCell id="kRomxYxFkeML6yJxeoaD-7" value="Tax" style="rounded=1;whiteSpace=wrap;html=1;" vertex="1" parent="1">
          <mxGeometry x="550" y="70" width="120" height="20" as="geometry" />
        </mxCell>
        <mxCell id="kRomxYxFkeML6yJxeoaD-8" value="Amount" style="rounded=1;whiteSpace=wrap;html=1;" vertex="1" parent="1">
          <mxGeometry x="190" y="90" width="120" height="20" as="geometry" />
        </mxCell>
        <mxCell id="kRomxYxFkeML6yJxeoaD-9" value="Related Order ID (if applicable)" style="rounded=1;whiteSpace=wrap;html=1;" vertex="1" parent="1">
          <mxGeometry x="190" y="110" width="190" height="20" as="geometry" />
        </mxCell>
        <mxCell id="kRomxYxFkeML6yJxeoaD-10" value="Payment Method (if applicable)" style="rounded=1;whiteSpace=wrap;html=1;" vertex="1" parent="1">
          <mxGeometry x="190" y="130" width="190" height="20" as="geometry" />
        </mxCell>
        <mxCell id="kRomxYxFkeML6yJxeoaD-12" value="Customer/Supplier ID (if applicable)" style="rounded=1;whiteSpace=wrap;html=1;" vertex="1" parent="1">
          <mxGeometry x="190" y="150" width="210" height="20" as="geometry" />
        </mxCell>
        <mxCell id="kRomxYxFkeML6yJxeoaD-13" value="Description/Details" style="rounded=1;whiteSpace=wrap;html=1;" vertex="1" parent="1">
          <mxGeometry x="190" y="170" width="190" height="20" as="geometry" />
        </mxCell>
        <mxCell id="kRomxYxFkeML6yJxeoaD-14" value="Category" style="rounded=1;whiteSpace=wrap;html=1;" vertex="1" parent="1">
          <mxGeometry x="190" y="190" width="190" height="20" as="geometry" />
        </mxCell>
        <mxCell id="kRomxYxFkeML6yJxeoaD-15" value="Status" style="rounded=1;whiteSpace=wrap;html=1;" vertex="1" parent="1">
          <mxGeometry x="190" y="210" width="190" height="20" as="geometry" />
        </mxCell>
        <mxCell id="kRomxYxFkeML6yJxeoaD-16" value="prepayment" style="rounded=1;whiteSpace=wrap;html=1;" vertex="1" parent="1">
          <mxGeometry x="380" y="210" width="100" height="20" as="geometry" />
        </mxCell>
        <mxCell id="kRomxYxFkeML6yJxeoaD-18" value="Completed" style="rounded=1;whiteSpace=wrap;html=1;" vertex="1" parent="1">
          <mxGeometry x="480" y="210" width="100" height="20" as="geometry" />
        </mxCell>
        <mxCell id="kRomxYxFkeML6yJxeoaD-19" value="" style="shape=image;verticalLabelPosition=bottom;labelBackgroundColor=default;verticalAlign=top;aspect=fixed;imageAspect=0;image=data:image/png,iVBORw0KGgoAAAANSUhEUgAAAfMAAAFpCAYAAACI8sFuAAAgAElEQVR4Ae29/bNtxXnfmT8q8+tMza+TKoaaqckPQyVSqpxSbslOLGInWFIgiijskEIwsRCRQAb0wq0gnIDxRYAAA1e86MKVAEm+CjIY29fYgG3wy7Gt65c19V3hc/jeh157r73POfvs3ue7qw69VvfTTz/d/V3r0732vqx/8A//l/99yF/GIBqIBqKBaCAa6FcD/yCT1+/kZe4yd9FANBANRAPSQGCeJxN5MhMNRAPRQDTQuQYC884nMKvyrMqjgWggGogGAvPAPCvyaCAaiAaigc41EJh3PoFZkWdFHg1EA9FANBCYB+ZZkUcD0UA0EA10roHAvPMJzIo8K/JoIBqIBqKBwDwwz4o8GogGooFooHMNBOadT2BW5FmRRwPRQDQQDQTmgXlW5NFANBANRAOdayAw73wCsyLPijwaiAaigWggMA/MsyKPBqKBaCAa6FwDgXnnE5gVeVbk0UA0EA1EA4F5YJ4VeTQQDUQD0UDnGgjMO5/ArMizIo8GooFoIBoIzAPzrMijgWggGogGOtdAYN75BGZFnhV5NBANRAPRQGAemGdFHg1EA9FANNC5BrYC5ufOnR+Wfe6//0y3Yrv9jq8Mly5dGrt4kH5ce90Nw97e3sKheuvtd4ZTp67eyrF67fU3xtgPGuPccbjzrnv2x0sa62H3wrWgeVY/58a8TGOM/ULxDMM4Xqu0Oze+bbdjfA6qzcPsJzEd1pzhb1kf/frq5bo5zHHv1VdgvoHV2LIb7Vzx+EU2dYEvu1BrWwK/6uiji72WH+b53JvJsjbnjkNg/sGjR8Z+Sjfkr7qIWDZX21bOONTrZCr/OOMnJuZmKp07Z/irfa999OsrMP/gGqrjtG3nWwVz7V4Fvm0bpIPGcxQw14V50LhUf5MwP4x45cNvNoc1DocV23H5WVVj3NjnguC4+nXY7dLvZUA77HYPwx+xrztn1F/Wd7++AvPAfCXQ8GgxMF8sHL/IdGEexg0iMF885ocxxpvwEZjPm8e5QNvEnK3aBrEH5vPmetXx7d2+m535//q//aPhO995cfj7v//74e/+7u+GXz/zyAiz/+cff3T4nd/9vfEJ1J/92Z8Pv/iLnxtk+/Wvf2P4oz/649FehX/1V381vPL9Hw4f+xefGOs5GF955YfDb/7mj4a//du/He3ffvuPhltuuW345je/Nezt/eXo+yc/+cnw3HMvDGpPk+71v//93xxeffW39uv/6Z/+2Rif4pDt1I323117w/DjH7821lMjakMx/vTP/JuxXhWXt7kM5iyQFP+3vvUbg2LS2Hk/PK6xk+//R3W9rZde+v44Php3tXv228/tj8nnb719P9ZPf/r6sR0Vqg79px/cjNgZePvy+Tu/83vj3KodHWt8qOupx7ZoHNyOHcaccaGtf/bPPj58+9vP72tA47dobpf1AV2+884fjf1s+fsgvg++M181jjm/y2AuKhh8Tp566pnx2lKcjN8v//KXht9/8w/G+DXPP/nJpVHDPlf4Vj/lg2tIqa4pdKFU1zHaxN/v//6bw513fn3fTteDrgtpVx/pQ76/+tX/epk+sNO1ro+uZ11fis21MBa+/x/0Q8xoUxr4P/7RPx4eeujR/fiYL+WpTDbut3UfufnmL+zHOLe/6K+mxFjnTHarzovuZcwL953WvZF5Vxs1fo2H7rG61zKnNeacb27h0Q3MJQqB9LXXfnu8DP/yL/9quOlzn98HvHb1ugHITjcIXfCtj6D7f/3f/+Syi7Blp/oSq390/vTTz37oInYbjmX7G0+eHW39BsmNVosOLT5an7feenv4l//q3+7fBLgg/MbBTYiymgKFln/64XG5nep6Wz6WaveX/uMt+zcCv9jv+9UHxnH/m7/5m+Guu+/5UPzcjLhhTrVPLLqpC2S1bx7bonFwO+KcMy5qT1p79cevEcplqcbjgQce+tDcXmb0/on3QdrxscRe86GFqm6IxMcNe5040FgdNz9nLmiHMp8Tj1Vx/cqvfG0fqMRO+od/+Nb+Dy/xTZmn8nnvvf99HDuNh/re+ug6V991Heh6aH0EoS996a7Rl+b6j//4T1pm43X2aw9+c//HkG6EfogZbY7j/upvNeNTzFpczLmPaKHyyU99dnZ/mYdWSox1zg5jXjQmv/u7F8frrXXdSJtspnz8dKw5ZXPVijt5mwH6VsG8ioRzvzk5BLWyFMT9ZqjV+cWLb46r8tdff2PcievC/OEPL4zu/vzP/2LQDtIFq4vjv3zxzlHIXDAy1o5f/rRoUD19tCv5px/5F5fV103lG/c9MN6MZfvuu++Ntn/xF3vDv//Mf/zQzlw3gTfe+N3R5rd/+3eGn/v5fzde7HoaAOC1y6sXgcc8Vi7/4UakekBBJi+//IOxb61+TD1m97Z0sWphonGUb49fN1DdcHWxs9B6880/bEKYsSVOB4f8fPaz/+myOfjrv/7r4T//5y+uPQ7eB43HKuNyx5e/Os6Fdnd6sqGdmOaSudWOT/7m9kFzy45RgNcNXgsV+dFHWtYiiXnjhr1OHH69KMbWH3NBO9h4f6Tr//bfHhz7/n9e+f8O/+N//HjciWtXrPg1Jk8++e0xfu3QdQ3JD76lG5XLTrtoXav6XLjw6vDP//m/3Ie0xkO7QulLY/0nf/Lu8Eu/dPPo69d+7ZvjuMk/O8Dbbvvy/lhqh6k2ub61kBRY1Obdd5/eX3x893uvXBYbGqTfxEy+FhyKX/cWPWVSfPr7rd96fewDC1bXGPcRtX3+/EujnXzI19z+Ek8rJUafs3XmRX363vdeGfWnPmk+9FG+FqneJ64bLc7VZ9eE5uuFF7471tOiRffVVtzJa1+Dhz0u3cFcA8CFNipQgG3s4K655t8Pjz325CBYSvwSqj5cCC5YwY6B1Y2Qj98UuZC42L3+j3706mWPmXRBqD0uZL9ByueN/+n/G/RkYdFHcddHV95mqy6xqS9AQe2oPeXJn/zqg+0cmAvSNZa6CxfotHhRvx9++PH98WRcldYx9HF59NEn9us8+OsPjzFO/YZi7ji4HTeluePCeGkxce6F747g0eKCj/oim7l9UP/0qX0SwLX40c5RN0fiQ6frxOG6Vf3WH3Ph7dT+MGZeXzd/zY+eWmjhKY3XfuH7j//k3eETV39ybP/jP/1z46Nx2arcF4TyoQX402efHT7/+S8NsvU2BUftPgVVLfoEdj6KUW2ordF30apgo+vzP3z2xlHDxIb+aafm656gT4WUX7uycY35feTLv/LV/cWL5mOV/hJTTYmxzpnsVpmX2ieuXfVXYPc+oQHGYxyUxn+ka/W5xpzz9vV3FOOyVTCvN7qpDvt3s9KV72IFHa3WgXfVHRdCS7BqTxceH78pciFxE5iqLx9+g5ePRee0VVPa8THwNhWPl9XjFhRkU/sxB+Zc0N6GduM81tSFLoBrzOuNwuvUtuu4YMscTOlh7ji4HX2YOy7qnyA79WH85/Zhql36TFrtDhoHfmvKXHA9UD7VH5UL4npS0fr4XOHbNdzSmQCrJ131WpWvbz325AhfPYmTpqY+Gq/WPNOfmrZik03Nr+f48bZk4+eKBbvWOM7pL/VbKTHVOTvIvKidOjetPtH21Dwo3++XrfiTd7Rg7w7mgrV+rOYf/+7MLyLdKLSL/zf/9rpxd6U6XAgtwUpsgKSKEzFzg/L6B9mZ+450mdi9TcWzyL5CAdvaj3ohY+dt+U2KcqVaROmjHZrGRR8eZ7odx7Vtnyu/ETAHDgh8KPXYFo2D29GHueOCnXaN+mGTfugnf/STduf2gZ25tOo/GtROT0+W/vv9vz4+GqZddMr5unH4uPkxc0E7lE31x3dv+qpBc6Tx0BMFfXyu8M21It8tnWk3qYW5vrbSmDzxG2f3wa2vHfTjMb66kf9nnvnO8Lmbb33/Nxv/83+epPHxnXm9Fl988XvjI3jFqjhasbXy2YnWxeminbliWTSOy/qrpzTUb6XE7nO2zrzUPrmPZTtzf9rSijF5RwvsRePbHcz1CFs3Nv3pBxms2vnRmL7j00pf5Y888vi4utdFol+o66ObhFbIrRu9BgqQyNYBw4XEDcrr6wbd+s6ci6beIP2Rm76L/+KX7hrj1OPEZ5/9zvD4408d2g/g/MJX/2o//Cb7e7/3+/vfi3v//CblYvIbW72hux3Hte06LtgxBw4IypR6bPLpZX7sdvRB6f/UwQe/FledGhvfZWt+9FsDzY20pbnWh69B5vZBGpT29NEPjfSds27ufAcL5Gt8B43Dx8OP6W/Vx1R/9H04j7f1fbDGQ7/14GsbzRWPWfHNtaJ2XWcq/9c/9+nhD/7grXE8tdDRVwz647tmfaWhr3L48Zu+p1cd2ej3G7q+9dFjdPnXIlIfxaEFhr5L/urX/uv+fAF5YtP38lrkMybkE/Pp0/eNbeheMvc7czQmn3Uc5/S39fsQ4lNKjD5n68yL+tT6zlxjqjFvXTd8Z+7joZi04NLvFW79wh2jJjzeHG8W7FsF8/FqnPiPbvD+4zd9Z6cLG7hLZIK7bpoAfsLVuLua+r+DARLVnQvzVjuKZ9Gv2XUR+new7kMXVevXoX6Rub0fczOqUODC4oaAnRYWgot/ZONt+U0KP0p9UaL6Uz98o05tu97wsGMOjhPm6MrHpR5rXFbpwzq/Zj9oHIxpTZkLB4NspvojGOsX64s++MI3GpPfCvNlj8+5vhd9ZUYs0ov0ytc+5JPqyZHaUxzsuCkjxhqz7i36ly+6jutHea1fs/t1Usdxbn/rPPk5MTLOjOuq81L7w/miX7PrWteCqDUeqs9myuPNcWCOti5LtVvlnwr5xemP3XXz1z9P02pRO3EJT3/6t5B6jKnHmTrXBXyYMK//vlSLCcGYH43VCxuR69fb2nmx49H3kYpRv2DGxlMH7GWDYyfcnObCXP59vORKMXlbfpPyeHTMj9U0rlM/fKMONyNinBqXbYC55s7/PwP8m2XFxg57VZjLp36RrV2mFmwas6qVOm8HjYOxrylz4WCQzdScqEz/Xpv/FwCx6+kXN3l84Zt5Vt0Kc+XpyYQenfPDSfnUsf5tP/8kUVAV0HkiolQg1Xfqut710ZzI36J/Z65y/XkfVFcQ0i/NWzHr6cMq/87cr5PWOM7pL3G2UmJknLHxPs2ZF+nP//0/Y6r45HPq2m+Nh+ZLmyjqElPSzYJc470VO/MeJ35K8D32Zd2YdcPlBsNXCuv6Sr3NX/wZ84x5NLA7GgjMJ/7pzjKRn3SYs4PU7ka7Af6977JxS/nu3Dwyl5nLaGB7NBCYB+bNR/rLLlJgrkd0Arkehy6rk/LtufAzF5mLaGC3NBCYrwnzXAi7dSFkPjOf0UA00LMGAvPAPDvqaCAaiAaigc41EJh3PoE9ryQTe3ZC0UA0EA0cjgYC88A8K/JoIBqIBqKBzjUQmHc+gVnVHs6qNuOYcYwGooGeNRCYB+ZZkUcD0UA0EA10roHAvPMJ7HklmdizE4oGooFo4HA0EJgH5lmRRwPRQDQQDXSugcC88wnMqvZwVrUZx4xjNBAN9KyBwDwwz4o8GogGooFooHMNBOadT2DPK8nEnp1QNBANRAOHo4HAPDDPijwaiAaigWigcw0E5p1PYFa1h7OqzThmHKOBaKBnDQTmgXlW5NFANBANRAOdayAw73wCe15JJvbshKKBaCAaOBwNBOaBeVbk0UA0EA1EA51rIDDvfAKzqj2cVW3GMeMYDUQDPWsgMA/MsyKPBqKBaCAa6FwDgXnnE9jzSjKxZycUDUQD0cDhaCAwD8yzIo8GooFoIBroXAMbg/k1n7p+ePGlC8PLP/zxcPfX7lsonGuvu2HY29sbFn3uv//MQh89rPbUB31ee/2NQ+9L9a02Wp9Vx/EjH/34cPa584PmkzH2uZ2a3zk2+LvxpltHnTz40OP7bahMupF//3v+hVcGxUTdpIezys84Zhyjgb40sBGYX3HlVcMTTz2/fxNedgPeRZifO3d+ZKlSLpIKXPIPI62+p2C+6mJCoNWiDJgDaeUrboFV8+sLtjk29BlbAbvCXOfulzpJ+7rpZL4yX9HA4WvgWGDuMFg2qadOXT289fY7w6VLl4bb7/jKPgiX1du28hbMjzLGKZj7ThwbAd3zW3EJpOyIff6UX6ErIAvoSuVrjo3sWPRhX/3qnEVDK8bkHf4NImOaMY0G+tDARmAuMfiOa5Xd1RTM2WmSCviydUDVXSdlsvXH+A4yoDtuo4dhXEjIr/pALJTVBUZ9oqA2lFd9kk886gMXDP2hDY+NMlLZ4Iv6pNU3ddyfbLFj/DQ3Dmv8kfrOnF14Bazn+zE+lLbyBWs9wRHUATp1HPQsKpY94aFu0j5uRpmnzFM0sL4GNgbzdScJgFZwAiegJxg988x3OL0s5dE24Lqs0IA4Va62iGOqbgU5doLta6/9NqdjCoBpT/41PrVPVJLdonLq+xhP+cYXtnraobElplVgXnfg+AS88jXHRvW0IHA4V5gDf+XTjvx7HfKTrn9DyNhl7KKBPjXQPcwdZBVU7IixAXDsQgEwCwXsgb/KVVcg/9zNt45/CH2qLm3J7sKFV4fTp++7bHeOb5UTj+pUqHo58cpOH3xQn3Ji87rEQ906Rq123U899p35HFDPsQHUvsOvMK9x6JxFg9dr2SWvz5tT5i3zFg3M10D3MJ+CE7tapQAN+HHObhuYSzgAnfoVlECRcuqSX+NBjPgFxMr3ePyYOiwY2DXXNgBxjbH61nmtSxu02/KBjacO8xaEZev5fux+PF87bB6dt1LfjbsPYK76np/j+TeAjFXGKhrYDQ3sFMwFLOAqgQIq5bfOK8wFT0FNabUHnPiqdYE15ar/9NPP7v9oj/IpmOMfcHv7gFa+9VG/VE4dypXHX+17rev+3Sf1p1KHuWxaO+i6G59jU9urdXReH6kD8+zMP5j3Oo45z9hEAydDAzsDc+DKjtlTAF8BRx3KAZ7X1bEATN1apnPVYxddy/ENzFUOsPGp+rrgptqXnZdzvg7Ma3zEzwWvXe7cH8CpjsAte4DKjtt3y3NsaJ+0why/yncbfjBHXtKTcePKPGeeo4HLNbAzMNfEAjeApe+sBU6AWuHpMD9z5tER2LL1D6CVf4et/Mq/PthUoANt1fUy8ms8tQ35BtxeRh79XWVn7n2r/tXGqjBXHWDNI3IHucrn2mCrtMJceQCddgLyyy9mH78cZ2yigZOlga2HeQR5sgSZ+c58RwPRQDSwugYCc/ueOQJaXUAZs4xZNBANRAPHr4HAPDDf/w46F+TxX5CZg8xBNBANrKOBwDwwD8yjgWggGogGOtdAYN75BK6zgkudrPyjgWggGtgtDQTmgXlW5NFANBANRAOdayAw73wCs7rerdV15jPzGQ1EA+toIDAPzLMijwaigWggGuhcA4F55xO4zgoudbLyjwaigWhgtzQQmAfmWZFHA9FANBANdK6BwLzzCczqerdW15nPzGc0EA2so4HAPDDPijwaiAaigWigcw0E5p1P4DoruNTJyj8aiAaigd3SQGAemGdFHg1EA9FANNC5BgLzzicwq+vdWl1nPjOf0UA0sI4GNgZzf+d1633XNXje9V3fv827w6t9L+f+DnW9j5y4ya/99fNz587vv7O99Q5zfB1lqrnjfeJKb7zp1v0+qN36znG9l7zGozx8vPjShfF96NVG59jVNlq2ynONyf+UzuR3qgzf6sfZ587vx1b7RfzL/OBPdq2xuOLKqwa9l33ROMhHbf/5F14Z8/CvlPFSbK1yt81xgBEN7JYGNgJzbljcAOfcaKZgLrjt7e0N1153w4cg0RKnAKiP0lb5pvOA9qVLl0Yw0z75Du96fNwwF5B87gRZzSmwBTgAjnl3iOlY8FKZ+i7bFsiUj17wz1i1UkCObY2FOlP5lJPKj8cl/4K76mMzN22NA3UBsLeFPePUirmOYz2vc0V7SXfrBp75zHyigWOBud+4CKSmwNx34gK4QK6P59e6ft4LzD1mHat/+mgcatlxnAMYYEkMgoj+dC6AACDKAZHq6dh3u7LBr+pSBzB/8ctfHxcPtU3sPPU4yJcfLT6UygeLA6XeHvZK5Qc716l8PPzY2f1FiNeZOqYf+GOcsFdMaoN+yl5ljAlj2RpX2bK40DH9xLfS1ph4eY4DgmhgdzSwEZhLMH5jm7qRurBaMFc5QPedLbYj/Qz0gJx839HXskXQBKz4wZbdtGK5ePFNiof6CNzrv/vue4P+PH7vN8fUoS3y9WhedWkDO1IFobLTp+8b7XTeasvtvRz4VvCQX8EKMABQnVvPb0HHy9VH2pEfjmubjAXplF0rn7waJ75IAa1iVp7OBU/9AedlPvBFH31MuR7ktzUu1J1KGXeVKw7A7/ZT+W6T4925mWcuT/ZcbgzmqwoNQAs6XheAClKywW6fpO8fCNYV2MC85lO3glPtOvSwA34eC2WkamOqvmzw4X3zY9qtMU3BnHanUuA/FRPxADsHj8f1Mz/7C/vz4UCiXgu8Dh6BTbb4rNB020U+qa90CoZA1KGLT89zXxzXuGTvO/W5fuSPOBhTzolhKn5iIVVMrYWEjxm2SmXvX4t4WY5P9o0/8797878TMHdhAmoWAZwD10U7eweefMr29tvv3gePw1uQreeqQ3tqv9UWMAaeHrsfrwpz+kf7LFxob+q8xuwxLDoGZuwIORdAar0p2LAYAHIVPi2fAiBAU6o6UzCs0FRc+JQfyvHn4JNfh3ftk85lQ/9b5eTRDv1U215vKn7qt1L5IN6p8a3j2fKTvN27qWdOT+acdgfzRYD0XekUzIGb23JcYc5FASCxU+owdzArXx+1T1vulwWA16EdT1eFOTt4b1/+GC9gTrn3hWPGzONoHQNhBxLAEmS8zlS+QCOIAjjsAGsrVR33zTGAruWtfPJqnPgila85MAeo1Gul9E19pf1W/5SnNn/xxl8eYe/jW/3iR3HWxQG2U/mUJz2ZN/3M+27Oe1cwB0zAUqIUgByMwAowAWJ2rvgAbvIhwCq/ihxbh7FDtgVmb5/6Hh+A97zaLv1SP+XPy6lPTB6P7Lx9nRMD/a31ZTPVf2+XY8FD0AHC5CttwcOhg63s5EMpea20Vbdlp7zW7rS148XnsrYd5ixeah3ZLAIusTrMyfO0xom9fP/Uxz4xtlHHm34ohlof360xoSzpbt7QM68nd163HubsGj0FTMDUyzgGlsBc+dTzPOyVAkguCMDnNhzL9pZbbhvr0JbqVZgCW+qReh3a85R6hw1ztYFvYiFVPpCo8FA9ICyAeKwcUxfoASX3peNlO97qb6o97JQCXGxrLNhO5VNOKj8ep/rk594ePr2f+FHaGgcvn4IxNopFix/6pny15U8FdO4LC8Xr5fhKenJv9pn73Z777mAu4LgoK3AvXHh1hDawZGcqYAFz1a9AZ+fuvqudfL788g9G9s2FuXw4PI/q1+xAvy4m6L/3vcakDlF/CkzkCyr1zyFS7RxwALDW17nbMQf4cohR1kqrfxYVbovPVpnbVZirTHU8duLCZ6sPqndQmMtH7ZuPOXGrfeILyHf7xs2cJ808o4GthTkBJo1Ye9CAYPur9z982UKzh7gTY66vaGA3NBCY5//NHgAdUAMCuXbCSnNj3I0bY+Yx89ibBgLzA97Ie5vwxJubVDQQDUQDu6eBwDwwz24yGogGooFooHMNBOadT2BW2Lu3ws6cZk6jgWhgVQ0E5oF5VuTRQDQQDUQDnWsgMO98AlddvcU+K/5oIBqIBnZPA4F5YJ4VeTQQDUQD0UDnGgjMO5/ArLB3b4WdOc2cRgPRwKoaCMwD86zIo4FoIBqIBjrXQGDe+QSuunqLfVb80UA0EA3sngYC88A8K/JoIBqIBqKBzjUQmHc+gVlh794KO3OaOY0GooFVNRCYB+ZZkUcD0UA0EA10roHAvPMJXHX1Fvus+KOBaCAa2D0NbAzm/j7mZe+S5h3c44vDJ/7D+7ePQ5TeF70/epV3R/Pua96FfRzxp83du5Azp5nTaOBka2AjML/iyquGJ556fhD45sBvm2EOyB3GWpy8+NKFWa/ADMxP9gWXG27mPxqIBo5CA8cC87ngU4dPnbp6eOvtd4ZLly4Nt9/xlWP/Xkfg1sJECxSfkLu++o3BAe9lfhyY50J2PeQ4eogGooHD0MBGYK5A2dFqZ77sMbt3rAXzc+fOjw/fX3v9jX2g6rG7PgL/mTOPjvB/9933Bv3xcXu1ocWBFgl8KOdJQgvac3bh1OdJhPtpwVyLAGxXWej4OOU4N4RoIBqIBk6uBjYG83VF1oI5eXt7e4Meycu3QMzuvUIaWCvVQkD2UzbyA4wdwsRP2RR8KX/wocfHdoA3CxjO2cUr9e/cdR6gn9wLEp0ljQaigWhgFQ10CXN1kN25UsCsXblAz7nDnp07eYK2w53v6VkQzBlEf9oAgAVzAdvrC+wV7oI24Af0qtPKc185zgUeDUQD0UA0UDXQLcyBrwD+8ss/GMHML9yBOXBXp7EXzO+8657xcfxYqfxnFZgzmAAYYCtfsGb3rpQy35lz7HYcO+BpJ2ku4GggGogGooGWBrqFuTrD7lo8ZsetfGDueVM7cxYAqnfzzV+4bEfdGrAvfvnrzV+ts/sG0MBbPijTMeW+M9dxq63k5aKNBqKBaCAamKOBrmEOoAVzvgtXp4F52XSPp9hN2Whn/rV7vjH+Yr1+Z85jdR6pM8CCMXmy0XfgSlUOvIE75wBcqX9nThvZmecCRl9Jo4VoIBpYpoGuYc4P4eqjcUC96q/ZeSzPY/MKcwZTAOZxuFKHsWwEYspV9qv3Pzyeq16FueyrP53TVtJcxNFANBANRAPLNLD1MJ/qgD9i17HbAXPg7GU5zkURDUQD0UA0sGsa6B7mLWAH5rlQd+1CTX+i6WggGlikgW5hvqhTKYvoo4FoIBqIBk6SBgLzvEvIgyIAACAASURBVDXtsq8oTpL409fc7KOBaGBXNBCYB+aBeTQQDUQD0UDnGgjMO5/AXVlVph/ZIUUD0UA0sL4GAvPAPCvyaCAaiAaigc41EJh3PoFZya6/ks3YZeyigWhgVzQQmAfmWZFHA9FANBANdK6BwLzzCdyVVWX6kR1SNBANRAPrayAwD8yzIo8GooFoIBroXAOBeecTmJXs+ivZjF3GLhqIBnZFA4F5YJ4VeTQQDUQD0UDnGgjMO5/AXVlVph/ZIUUD0UA0sL4GAvMtgrlevfrwY2f334UeYa8v7Ixdxi4aiAZOkgY2BvNrPnX98OJLF8b3eut936sM8rlz5wc+999/ZqW6q7RznLYPPvT4/jvQ9S701rvU9S70s8+d34e9jynvT1fq70Pn/emUq52pflZ/rXmaYzPlP/m5uUYD0UA0cDQa2AjMteMUnADK8y+8Mggycyb11KmrB73mlE99d/kcH8dhw/vW5yw+BFiNj8ZEO/PPXH/TeF7HSZDWgkhAVZ903oI+/QXkQJl5aAEdSLMQqHXlc44NbSc9mgs245pxjQaigZYGjgXmDqRWUJ7Hu8mB+d7e3nDtdTfMWgi4n00fz4U50BRE/TG7jk/f+8BwzSc/O/iu3cdOdVpgpq+CeIW9t4edUvmpvgRvLShYPMyxcZ85zk0nGogGooHNaGAjMNdksqvT7pyd4pxJBoqPPPL4/g7dd7vA/t133xv0x0c21FWejr09f3Svcp1TThl1tHjQIuLSpUuD2ptqEx/ernzrycInP339CNYKV7UpSPrOHHgSD6ng7TAH1gIuTz3YWbMLr2Pdyp8CvOf7MfEoncp3mxxv5mLOOGeco4GTq4GNwXwdkQFRduMCNHDU43f5BKxjwZL/sAgA1tUcGFO+DOa1PrBfFebqh4AOkJUCZR+3CnPV8UfxLJhktwiydYeter4Dp00H/xwb6iU9uTeUzH3mPho4Hg1sNcyB9xRUJRpgDvBZAAi0wBm46pxywNvyMRfmtOnf67NgoE3O5whc8NR35oKx4Fp38RXmLZ/aiQvWgfnxXFCtOUle5iIaiAaOWgNbDXOAWHfADmpgrkfZgipgdVgDZ6XVXgNc62A/tYho+SBW4F3P50wkMNcuuAXjuTDXIuCnPvaJcTGQx+y5iczRXmyik2igbw1sLcwBZgvkygPe2HFewSyBAmel6+zMaYMFAue0qTYqvOv51IUigOuHbkpXgbnA3nocz85c7em47u5biwTZ1kfvyquP1ufYTPUz+X3fKDJ/mb9oYLs1sLUwdwC7iIC1gK5dcAUr5YBXdasvzutCQfmyl9/WB5+1TdWp8OZcfgT9qR/AAeX6A7gWiOvOXHD178xrOeBmd67FgtpRPcWsfH5QJ3DrWD5UVusqb46N7PKXMYgGooFoYLMa2EqYt3bPLgxgLEieOfPo+CtzdslzYC5f+ADagJx2vFy+W79mp03VAd48Zgf4y2BOewKs/wCu7qhlV2GtPK8HmPGpFCjjG5CrzGGuc2CNLYsA9zfHxu1zvNkLOuOd8Y4GTqYGthLmJ1WM/pj9pI5B+n0yb0SZ98x7NHAwDQTmeSycx+LRQDQQDUQDnWsgMO98ArOaPdhqNuOX8YsGooFd0EBgHphnRR4NRAPRQDTQuQYC884ncBdWlOlDdkbRQDQQDRxMA4F5YJ4VeTQQDUQD0UDnGgjMO5/ArGYPtprN+GX8ooFoYBc0EJgH5lmRRwPRQDQQDXSugcC88wnchRVl+pCdUTQQDUQDB9NAYB6YZ0UeDUQD0UA00LkGAvPOJzCr2YOtZjN+Gb9oIBrYBQ0E5oF5VuTRQDQQDUQDnWsgMO98AndhRZk+ZGcUDUQD0cDBNBCYB+ZZkUcD0UA0EA10roHAvPMJzGr2YKvZjF/GLxqIBnZBA4F5YJ4VeTQQDUQD0UDnGtgYzK/51PXDiy9dGF7+4Y+Hu79231Lh3H//maH1uXTp0nD7HV9ZWl8rLdnJ/q233xlOnbp6Vp2DrtCuve6GYW9vb/zTccsfcdG/VfpU/Z07d350o7SWrXPOuL/2+hujP86JlZTyOW1ovjXv/vf8C68MH/nox/djrjZoRDay9bocS0/SFTGgsSeeen7Qu+HJT5qdVzQQDey6BjYCc91YdYPlJlxv5K1BnoKIYDIXfkBzLswPA4zLYE4bQNHTdYCMv3XqLhp3YL1oHrRomVqwuO8HH3p84QJO4HZNAHDl6/jsc+cvg7Z8y6dDmzrSmOd7HDnODT0aiAZ2VQPHAvO6o2oNLhABKtjoXJ858No2mBOP4lf/6BNAnrtIoZ5S6s4ZD683dVzHvZ6rHgsW9aPOT8uvwHvjTbfu97fatGAvkAvKV//8tR+CeYW//AH30/c+EJh3/riw6iPnAXA0sFwDG4G5JoJHoNo56Wa8bHJaEFEdYA5EHCyCi+/CgafnUV+2+gBVoPh+9mWPyb1OBa4e38s/Hx1PPWbHTwu8tYxzUvrAuKg9xXLx4ptj0+6z9oU+EqvXk3+fC/yTX8+xZdwZD81pa5HGUxnBdurJjEA/tTOnPVJ24K4hh7uOszNffuEznkkzVtHAbmhgYzBfVTBABEh6CkAAipfpGPBVmANGt8dXBSCPkBfVAY7uj2Pq02+3Ba6UKaW/QLS2qz4988x3cP+hFJjXfmAo/x4D+bRHLDWOeo6d+5LNFMyBr2BOXYcveb7Yay0KsKuwVj0tBJTKppZTL+lu3LAyj5nHaKCtge5g7pAEXACpAsZhfudd9wy33373PlCqrQSCP8BI/ak2W+XAz+vId6s9FyX16Asw51y25BGf+1QeixsWKKqDXy0Gbrnltv2nCPjwGNyedqnPOfbetmzIn5OyW+fRO4/I+dEa5b4AkF/yBezWufIC8/aFPmdeYpOxiwb61cDWwxyICD76sOuW6IAbu0xPBRhg63XwU23ljzJAB8jclmO1TTkxygdArTD3ePGvPP7oC2WcA0rg6aBWXY+Z/hKjpw7z6oMYlNY+1XNs6eciX9jW1KFcd9bYtvLZ5bMIUMqj+1aax+0f6ItxTZoxiQZ2UwPdwBx4CFAAzkGGQGUn8OkcuAlk2pkLsA72Cszqz+vjU6nacP8ObuDnecSGP++DymjXwVhjkx15stc5gJc/5TFG3rbHi723Q2ykxK+2lFfPlUc7ahc76tdUu2v/PlzlwFwwbkFbNsrX43bArTwdL3oEL5vszHfzRqW5zV/GIBqY1kA3MNckAhZg5VARWPwjW+ApgJ858+j4gzG34RjAA1Xl0wYAxZZU+cCRPE+pX8Xnbbi9joG06tCu+oEP+l/red0p/+ojj9nXgXmrTe+jINoCLbtpf2Tuj9UBu++iW3kaA8G8LgwYG9LAfPpiZ4ySZoyigd3TQFcwd3gC4Ap0B4zDXHUddALayy//YGRUy5f7AawAzQHrMalcvlTX69cLh7jw14IrbXpb8uNAV705v2ZnkUCsrfaIEf9qv7ZHvEopp94UzFUO0HkU7uCmvgBPudKWjdoIzHfvJoQGkmZuo4H1NbC1MM+krj+pGbuMXTQQDUQDJ0sDgXm+i9t/jJ+L/2Rd/JnvzHc0sDsaCMwD88A8GogGooFooHMNBOadT2BW1ruzss5cZi6jgWhgXQ0E5oF5VuTRQDQQDUQDnWsgMO98AtddxaVedgDRQDQQDeyOBgLzwDwr8mggGogGooHONRCYdz6BWVnvzso6c5m5jAaigXU1EJgH5lmRRwPRQDQQDXSugcC88wlcdxWXetkBRAPRQDSwOxoIzAPzrMijgWggGogGOtdAYN75BGZlvTsr68xl5jIaiAbW1UBgHphnRR4NRAPRQDTQuQYC884ncN1VXOplBxANRAPRwO5oIDAPzLMijwaigWggGuhcAxuD+TWfun548aUL4zur9V7qZStC3qvt79DW8aJ3cS/zue3lvMNc/Vz0HvP6LvFV+sW4HsRHbY93yi96h3utU99ffuNNty7VRPWx7Fw6473ovFN91Xbkw9+zPke7y+Kq5R5nLcv57uycMpeZy6PUwEZgfsWVV403VW6Kz7/wyqCb66KOAZ0K856Bfu7c+bE7Slt9d5hX2C4qa/lS3u13fGVc/Lz19jvDqVNXj20yrtX/lI85+avAHKgK5vhmoXfYoFwESUF9kQ7RLIsBxdqKnT4cJF0U50H8pm7gEQ2cHA0cC8y1Q9cNfJHQpqAD1KaAuMjncZetAnPf5QJLFjZzQbyNMBfEHZDMieA6RxfYz0kXQXIZzFW3BXsWHqvu8BfFuyjORfVSdnJu1JnrzPUyDWwE5gqCm6B257p5LQtsGcwBGnYVdC3oA1OVUU+7VoFTHz3CP336vkF5fOqiAR+Uy4/6op2v6snHxYtvUjzmqazWc1gzFsRMim9ife+9Px39qpw6FfTswgH5fiDvP7rHl/dbNrQlv9VnjZW+4htf2Al0mucKPHa2NZ++aDcsG2lFID197wOjH3bx1OcJT9WRzinTgkH1WThQV20TH7b49zhUr/qnXOnP/OwvjHPgupY/r6Nj+Xn4sbOXjceiOL2NHOcGHg1EA3M1sDGYzw0IO6ADMDzle/MpG4ETIAE3AARwpup6OzqmLcVVgYytfOGfPE9Vr9YlDvqrFIg//fSz4wIDaCtVHC+//IPRLfn00dvSsfp85syjYx0vU5xT/SaeKZ+UL+onNsCyQhtIK/V+12MACYhV7jD2c+Cp1HfS1Uetr9jc3mOotl7mx7RBP5X60wWgTYyquyxO95/j3MijgWhgrga6g7nDVWDyjgJMYKdUH4cYZUAN2PtOVmUOLZ0Dudo+8Lzlltv2d/SyV1w1Hs6Vetwce7w6Fhw/d/Oto1/F+cgjj4/9oQ/447zGTJ/oo9qp/a79qj5Vh7hUhk/A7T49jz55KvgJoEo9vx637ARBh7vqkPdTH/vEWObQ9HJ2/GrbwXtQmAv68k38dRFAfNgobe34qx3+kuZGHg1EA3M1sPUwB1RTHQIuI+Xe/w91KNO5/logxhaoOZBUpo8AiC9vh2PBEpgvagNQKm31x9sDutqNy6fqkEfM2BOHpx5zC+b4YAFA3PhUfWL0dv2Y8tbYUeZphZ2X+XEL5noUzmNxTwXHq3/+2nGRAKjx5ZCsbct2CuZT0MVvTWtsxOHtq06NAT/VjvykuZFHA9HAXA10DXOBBwipwxU0gArILYJaC0gOtla5/CtfbdPWonhWgTntKXZ81v61/KmeYlFMLEAW9bvGjU9gLz+Mg8rw6Yse4vI81Wv9CXx1hy07AVCQVtqCuYBXv9vG/xR8HZIVpItgLr+q24K9YtOjdJV7zKpT2/D2VT4nTvqUtK2fjEvGJRpoa6BbmAMhQO0p8NOkAyeVCzoIAQABLeDpQAJi1HNf3t6qO3PV9XaIqbbHOTCeitlj4Vi2gNfzqg/GkTFjHKhDSrzYk+8pNhVy9E8pwHMwOyBl04I59eRbNoCRhUGFLz4pr/VVfva582M8Hh/H1b/y8UHsFda137VcPpbFSftJ2zesjEvGJRpoa6BbmGtCK6wuXHh1hCRgkg1wAjQIoUKtZQdMZUu9CnSdqwzIedtTbQiANR75qO1RnzY4lx3xEDdQrX7xqXLVrz5acS/zSR3a1GJD7dJ2hRqxeiog+uNyIC2bFsyVD0ypB1TxK1BSJohP/Zpd9sBa9gAfP566T9nqnHL3oTL9al2+2NHLtuXbfdY48Z20fcPKuGRcooG2BrYW5gedsAocgHhQv6nfFlLGJeMSDUQD0cDxaeBEwNx3shHb8YktY5+xjwaigWjgaDSwszCPYI5GMBnXjGs0EA1EA9ungcB84lfXEev2iTVzkjmJBqKBaKCtgcA8MN//QVcukvZFknHJuEQD0cC2ayAwD8wD82ggGogGooHONRCYdz6B275aTHzZ0UQD0UA0cPQaCMwD86zIo4FoIBqIBjrXQGDe+QRmxXv0K96MccY4GogGtl0DgXlgnhV5NBANRAPRQOcaCMw7n8BtXy0mvuxoooFoIBo4eg0E5oF5VuTRQDQQDUQDnWsgMO98ArPiPfoVb8Y4YxwNRAPbroHAPDDPijwaiAaigWigcw0E5p1P4LavFhNfdjTRQDQQDRy9BjYGc72j+sWXLozvm/Z3Qi+bZN6/zbuz/X3hy+ruSjnvbdd7w/VqV84ZE1LKV+n3oveK40dzd/a58+P7xD2P+azv+cbGfctWfiir7wKv5dglPfqbQMY4YxwN9K+BjcC83riff+GVy8AwJSS9g3zqI8hP1ZubDxTXgeDcNg7DrsbJeWts5i52PvLRjw+aBwGXGFlw1cWWzn3OsLvxplvHuvjyevL7xFPPD5p7+VcZwEYP3nZtg5iS9n+TyRxmDqOBo9fAscCcm/qiCXZgObj1bnJ9DgPAtHEYvhb15aBlNc56Lv/asasfc8emwpYYBWjNzy/e+MsjjLXr1p/DXHUdxKorwMtGqeCunbyO8QvABW214f5k06pD3aRHfyPIGGeMo4G+NbARmEsk7OamHslWIQFt7c697NrrbhgeeeTx4XM33zp88+HHhr29vcF3o+zmVV/1ZC8b/2hxABBrvurUMoc9Ze+++96gPz7ySczKo31ipx72Xk49Um/P4yEfX5zThgNd8QiaGm920Nixk675lAu8suHcd81TdT3fwY4Phzl5nqoN38l7WY77vslk/jJ/0cDRa2BjMF9lMiuUpuoC6imYux8gqlT23/3eK2Pq+VOQlw3gBKReb+pY/hT7VB2ADsTxQ1v0m/rk13PslOJLi5opmLdg6z7qscN8qm6FdV0QKJb6RMYXeHWnX2PI+dHfDDLGGeNooF8N7DTMgb125jqWUAW5ClkgqXKHoc59QeCwxydtCMQ8Rag+6jl1WIRQrrR1MVV413Ovgy9i8TKOp4BMeU3Xgbn7ANqLgN2CvfvIcb83mcxd5i4aOHoNbCXMNfFTUBII9ZhdNhWKyhPE9AGM2LDrVToFc8ANZBEgPpVWkLbquD3l3j7HtENfiYt2SWub9Rw7b2vKl2z9kTh1F6UO86m6U/k8HVgEcrVdd/aL4knZ0d8YMsYZ42igLw1sLcwBlsNX4gJ8AuGTT377Q9+ZUw7MBVb9qS6wA6K0sc7OnDrVp9pxmHvMDtibb/7C/i6cmL1c9fircdZz2RGHxovYqN9KBdfWd9TAVyn1HObKU90K59ZuX/Vav5FotR2YfzDfjHvSjEk0EA3M1cDWwlwdAIrsZD0V+BxgXqZjARLo1TIekddy+ax51AWQlHNODCwQPG4WEdTBFyl11oU5fjzFp+JogRlhsJN2KPM4XBDGTmmFOXYAH19eT37rd+T4pL7b63jKnnpJc2OLBqKBaKCtga2GuSatghAQM6H+GF0gu3jxzZFtAqTKOAd4Djv5AKQqZ2dc2wTcHg95c2Du9YiD+h4D7SvP/4iHOpzji5Ry6i6COTaCrnbP/AFoypVWmCsPIFPPwVzLsFHK4oEFAGX1n6p5+zm+XA8Zj4xHNBANVA1sPcxrwDmPiKOBaCAaiAaigcs1EJiXXXAEcrlAMh4Zj2ggGogGtl8DgXlgftkj/Vy023/RZo4yR9FANFA1EJgH5oF5NBANRAPRQOcaCMw7n8C6Ost5VuzRQDQQDZw8DQTmgXlW5NFANBANRAOdayAw73wCswI/eSvwzHnmPBqIBqoGAvPAPCvyaCAaiAaigc41EJh3PoF1dZbzrNijgWggGjh5GgjMA/OsyKOBaCAaiAY610Bg3vkEZgV+8lbgmfPMeTQQDVQNBOaBeVbk0UA0EA1EA51rIDDvfALr6iznWbFHA9FANHDyNBCYB+ZZkUcD0UA0EA10roHAvPMJzAr85K3AM+eZ82ggGqga2BjM/R3X/u7rGhDnerd366P3j2NzHCnvEq/vDl81Ft6jPvUO81X9uf25c+fHoVMbxFvH8qDxe3tTx7RNW8zpQefQtaT3oa/yLnTeo956b/tUP1bJ5/3wvLd9lbon0Vb3As2h5kPHTzz1/HDFlVcd2jUurUgfSrdtfI9ai6v0d92xr31Y5Afb1nxTdpjXpWJ58aULWzn3q8zNXNuNwFwXpy5STeLcmy83/gohne/t7Q3XXnfDsVycFVBzBhq4KsX+qGB+6tTVg+B56dKlEeTE2xpHbIhpWbpqzLR9mDAH5H7Rr3LRHsVNg3FTbGefOz+oDfIOK1V/V1m0HFa7i/xwXWv8F9lNlalPfrNdBIIpH8vyA/N5O9jDGvtFflQ2tcit1+UiP8vm3Mu38brx+A7z+Fhg7hfwVGeAue/iBHCBXB/Pn/KxLfktmB9VbBWg9VztAnyNI6CdE8+qMK8+W3NabZadT13kd331G+Publn9etNYZr9KuW4ch72zpP1tvCkdBObU9Zv71NwyBuukgfn2wFxzrTluzWO9Lg9LC+hsqt1WLL3mbQTmGhx2VNqZzxnYqRs/QPddJcBi91lBD4Ra5fijzHf91CMV+M6ceXTc9QJB4tQ5Cw35YhcOyKt/fKo+4iEPW8qAr/p88eKbFDdBjA/qMjbES1v4lDNsVUZ95fsYe77K8Od+ap3attrRR77UFuVjprXHBdgCo7SzbDFIfZ4EuZ9601AcAiW2y3yr/Zat509p3NuRjc6ZD93oHGyKU7t8XTe1ntt5u4til53G4eHHzu7H7+OiOPwarX0AiqfvfWCs//C3nr7saZu37THJj8dLf2nLx2BZjMydYlB7xL9ovolbqffRn3J4vJ5PrEpr2+pXnUPZqa+UVV/4oPyLX/76+LTFx8Dry06xeRwcV01UH5pnjQ9tVT/eZ9lpTBlP2iBdNL70ifblt/qp9dGK27ofj62OgZf5+FK/akN98Hbo0y6mG4P5qoNXb/zUd3jIpgIBMACMClPKlV9BThlAbwFsCubU9VTx1farb9mob7Ut/Kjc+0w+qfwzNvSHNpTP+ABfbL1NfLRiAOi1TP5uueW2EerEQkr7tW31RR/5IlbqkKruTTd9frwh1JuCYp66MdAvygEIF7kuaNlwzs1Hqd8UdM7NBp+k8ukxVVudezn1lFZbxePtyjcxy15xAnPqu73ylsUjG/64CTIO1KfNCtcaL+XeP8bafcrOv2qQjcACTIlH/mt/lsXI3Hk9YqAf2BCT2pW9Uv1pbtU2ccjO+6Rz948dfr3MfTOe+FoWF/aCFfEopb7K1abOlRKHUtm5RmvMGgsvX2bPuHjbtEe/GU/lu+4opw91PPFDPffjtnP8uL386Zz5oD7n3q5ia+W7zS4cdw9zIAOQgESFENAUYC5ceHW8OACtfDCZKjt9+r4RNvj28ilAOSzxSx7nxKi28K248AkEVQ74KjTpBz49Nup4Hr6JhX56DPKFncdQ2/CYVf9zN986/uGzjj0+advjq2XyobFXPv6WpdyEdEPk5qWbqC5sr6ubT73Z6wLnhus3mFaefHGz4KaFf/mlvspaN0TZ/szP/sJlMbVAQIy0twjmc+IhRqX1Rqg8j0H+1HfqVP9ui01rrDQGzAV2rdRvxJTPiVE3ZZ8DxaBY8aHU55u4tQtWXF639lF1W3mL8mmrFYf3R+1WoNS2WmPi/eJ4HS0xbq05k1+PlXaUTsWNNlt9mLoG/FqpbS7zU8tV3/P82OOnD3M0Wev1dt4dzB0Y2iULFK0PMNeEACHsgB35ALJOXqu8QsgBRf1qAxSVYuO+Wz7op+B65133jP30PrXquE/aqbGQ77t9+cIfY+Sp/Kpey7/nU4c4a9u0gT/Kaz1inJtyg3IY6ibEI0allPlFz7Hbcaybm7cPFJR6Pjdz5anNqRuZyomTNvwG435kq9i4YeLbYTAnHtXjr3Wzpv+KGzvFQXxKKWu1R3/qWNWxr+Wt/ihvWYyteIm7tsl8K26NM30iX/VqGTbeb/xPtV1jrj7RQ7WT35ZP2S2Kg3gYe2yXaQmYt9qUz1Z8U/nuw4+n7IlZY692OPc2l/mp40q/matanzaUSht+7XjZLh13BXMAp5s/QGgB5uabv7AvGAFD3zMLXpo4ByvH+FL5008/u787bPkGQHW3ybm3QR7tTMEcn74rBnzyweNsIKk2KCd2xoY2ZaM/fHu+g5z8KTv5xVcdD+oQA36Jk3LaqDGrnvLkn/h9DGjXU+2wdGF7no51o9AfF7XftCmTHeW6wLkh6rj6q+dez8vkmxuU/HDzdhsdy8ZvuOqDbjD0xWOUvdpbBPM58XgMfuMk32NQ7NwYaR8A6Nxtqc/40X/sPnP9TfvjORWn/Gk8fOyXxdjyRd7UfHvctU3V9TGmX62Udjxe2TFvjIXPv/dH9SpQqk+Nm2KkfY+dPKXyu6qWmEvi9DnDp8dOe1NxM261D95nfJD6tVLbXOZH5bSJP09rfS9bFJPb9X689TBn1+ap3/ABhpfrWEBZtHMXRABIq678VnhpsmmvAqr60DmgAubKI/bqm/PqRz4qJBWH8vVRPZ3Thi8YPN7qV+dAV3b6m4qBNrxc/X/mme+03I55sp0aK5URf3Ugv5/89PUjFOvNhZux38gUt2445NUbIBc5N3vOuSnXmxVt1Jud2qk3BW+XOGrMytcfN33O5YuYlVd9y97LFZduZorffXh7NR7s8C9Y0y9u6oxLbV++HO51XPGt+tVnjdsXLdSr7c+Jsc6d6tS4sKFftbyO0bJ+Ey9+Hcjui3LlqQ79Y34oZ6xkoxgZY8qrfz8nFtWjf8qTTx/zWo5vYpO9+9UYqT6x0o5S+lHjxrblmzL3o2PF5X50jG31o1gpw4/bK082dfzoI3Xw6+1StmtpdzAHLD4RQAMwAFpBUDvt+nHgVaADW/kHXkBZebRFG0BJ56rLZ6oN/Ld8k4cP2l0G81Y540O8+CQlfuxIp2LwvssH9d1efdP33voon7axZawoU75/GBtuIPViJkYuYl3I+vMbk2x04XrZr97/8MKLvvqrNwTarb79Bqoy1ZuKmZsKcSkmxY09faZcKbzXEQAAGNVJREFUTyB8J+Ll1FkWT41b9aZ+ze7+FQO/hmZsKxTx7WPHuPn4yxf51CFVvo8hN+upGBnD6s/bU7w+3624BZXaLuPu+cSplLb5tTT2HouOyZcf2epc8bkPbJb9mn1ZLPipWloGc8XiYyZdHOWv2RnHVWDOeKuPqocPj9vHB3ufD/qJhvGxq+nWwryXAXdAHVfMxAA0jyuOtPvBd9TbNha6CfoiYFvi4+Zcb8LbEh9xTMGC8qTbp31py4G/63MUmNuPhNaZbECq3eY69VNn+24Cuzgn2wrzXsY6MM91uu1aDcwPCPNtn+DEl5uQNBCYH0wHgfnBxi/3oaMfv8A8MM8ThWggGogGooHONRCYdz6BWfEe/Yo3Y5wxjgaigW3XQGAemGdFHg1EA9FANNC5BgLzzidw21eLiS87mmggGogGjl4DgXlgnhV5NBANRAPRQOcaCMw7n8CseI9+xZsxzhhHA9HAtmsgMA/MsyKPBqKBaCAa6FwDgXnnE7jtq8XElx1NNBANRANHr4HAPDDPijwaiAaigWigcw0E5p1PYFa8R7/izRhnjKOBaGDbNRCYB+ZZkUcD0UA0EA10roHAvPMJ3PbVYuLLjiYaiAaigaPXwMZgrvcK63V0/n7fRRPM28j8fdccH+UbyuRbH7W/KL5NltX3gnPOeJCu8gpUXj3JO5FJ/d2/Pmf1vcL0X+8abtWlnBdULLLBNunRX/AZ44xxNLCbGtgIzK+48qrxXcqr3NAD8w8EB7yBNedA3NNLly4NKl92wS57ixYg5z3TQFnwxreO/R3Z8umLAeoof6oO+Uk/mO+MRcYiGogGVtXAscB8zgvjgflR7sJbg9XTzhy4qx+nTl096Fwfz2/1UXnLYK5yB7fqCOzAWrDXsVJvQ3Wo12pD9mefOz8I9F4vx7l5RQPRQDSwvgY2AnNNEDs97c59pzY1ectgDry0E7148c39zalgTF1l7u3tDdded8MIDvIFO+XzOXfu/D5YWjAnD3v5kU/58J0wMclONuqb13Vb+r2sXHbsxIF0PcdXbV/w1Xizu8ZOaQu0Xu5QJt9hPlV/Kh8fLb+UJV3/Qs7YZeyigZOtgY3BfFWhAV4ASgrQHFyUTaUCptqf8ql6Fb71vPpWOf5YDABZ2nNQU9+BvqycMcMvfa/n2CnFp2JaBnO+9iCtT0y0e9ZXJPLLVyXsuqeg7MAnLuKYu5CjXtKTfXPK/Gf+o4H5GtgJmFfwAj1gO3UuoQh6+mADDFUXaE7t7u+8655xd075srq0JbuWby93EWNLjPXcbYlBvjy/Hi/bQVd7wdthvwrM3Zfa5VG95+d4/kWbscpYRQPRQNXA1sNccKpB65ydue90gSEgq9AD7u6z2gBD2bbsebwOwGnz6aefHcEOcKnLjtxTtbGs3PtcY6zn2DImakv+yW+lc2HOjtxBLn9T9afyiYEfxWm3Tl7S3JiigWggGjiYBk4kzAGuxAOMyXOYA03ALXsgjD02wHpqIaG6gi3f31MPP7Vc5/xV23pOXfnSx33io6bLoCt7wNvaSS/7ARyLAB7L0z4+A/MP5pexSZoxiQaigXU1sPUwB5KeCrjsQtfZmbsvjtnJOsw1qJxjR4o9cSjfob+ornzOKWdSK7w5JxZPfTz4rroFzmUw5weLFcbEpFRli/5pWqt91WktDtxvjnNDiwaigWhgNQ2cSJhr5yrw8mE3LfEAb2Dtedh7mcp1rg+QdhHib6rusnL5At7suDnHJynltN+CKWWCOT988xTQCrqez3F93O521KUNpSwKqO/wd7scr3bhZrwyXtFANOAa2FqYe5CHdbwIuuu04VD1HfE6vlInF2Y0EA1EA9HAuhoIzO276VUH0WFed+ur+op9LuJoIBqIBqKBdTVwomC+7iClXi6waCAaiAaigW3WQGB+gJ35Nk9sYsuNJxqIBqKBk6OBwDww3/8ncLnwT86Fn7nOXEcDu6WBwDwwD8yjgWggGogGOtdAYN75BGZ1vVur68xn5jMaiAbW0UBgHphnRR4NRAPRQDTQuQYC884ncJ0VXOpk5R8NRAPRwG5pIDAPzLMijwaigWggGuhcA4F55xOY1fVura4zn5nPaCAaWEcDgXlgnhV5NBANRAPRQOcaCMw7n8B1VnCpk5V/NBANRAO7pYHAPDDPijwaiAaigWigcw0E5p1PYFbXu7W6znxmPqOBaGAdDQTmgXlW5NFANBANRAOda2BjML/mU9cPL750YXj5hz8e7v7afbOFwzvIh/c/J/W94RozjR1/Dz70+OwxVN0nnnp+uOLKq2bXWbYy/MhHPz48/8Ir+/EQl/JUtqx+yrP7iAaigWjg8DSwEZgLIoLJqjf8c+fOw/APpXPfH/7a62+Mdefab6O4BGOHJOM5F9BHCfMbb7r1MnBrkeGxbuN4JqbDu4FkLDOW0cB2aOBYYK4dunbqi0Rw+x1fGbQL18dBDJzfevud4dSpqxf6kH/s3ceidretDHALyB6bdr+n731g+Ol/dc1l+W7D8SZhrnkVzJfNL7El3Y4bQeYh8xAN9K2BjcBcIln1MTsQ1u7cRXbtdTcMjzzy+PC5m28d/wR0gZ2PP4bHB2W+APAyr6O2BH7/YKuUWHyxIVv3Tdm777436E+fH/3o1XFxsre3N6gP8qNU52r/3vseGCFYH58D82W7cB9fPQFx+FeY45MnJbVNnVNWfdF/HrPXnTlxkD/VFvU9TvlW2/QVG2JxW/r08GNn92P1fiiOuqhQHbdZ5J9+Ju37Bpf5y/ydFA1sDOarDKgDetGO2u0cvgATCFMGcGu+ygF6BTl1lQJzYO1lOsZ/q1x++dqAPtGW8gGLw4YxA5BADdjVcgCq1J9+AD6BFbgCRs5pV3Xdv+LSuVLaU0q8tEmZ/PCYHd9z23IAV/+c40upxoP2GSM/XwRz/GHPOf7pT9LAIBqIBnrQQNcwZ3fOQPtOV0BVPuAGoIAW4MsGyMoWe38i4OXuExtfVKgd2mCBQHzkC/qKVWm1wXYqBWICGdAViARO6gAmQKU62CoP2GLvebKt5dh5ShssMEi9rvulrufhQ3kq9zj9mLqe58cqrwsHXxh4fRYttX5tnzpJcyOPBqKBHjSwlTDXwLWgqnxBUI/ZfXCxZafsgKQMmLMbxtZT2WIPqNWOwxxwextuI1uHtuxrrKr79NPPjiBXe14+97juRFVPoAKqSqcg6TYcO4QFOvLdj8dWQay2/GmAbKsffHpbill/wJiYa1+oy6Kkwpj6ylfby2C+zL/3Nce5mUcD0cC2a2BrYQ4QBVtArMEEtgLid7/3ymVAbIEWe3zgl0fi8ql6WiTomHKHPMeAF58An3aJFR/eBkKoiwniorymgpR+6KbUyxymAqBD18tUx8EnW4Do/jj+zPU3XfbjtRYUZVvbUJ4A6b6XtaU68n/2ufPjwkOp/CpfMcufjlt/3ieVrwrzZf5bbSavPRcZl4xLNHD8GthamEsc7IiBqaeCYAWjl1fwqgy4AmO31zF1ql/sKQfWtT7+Kefchc5XAR6PyoFjBZigI1A7JGXv4Kxgq3D38go9fGm3fO1nbhwfsfvOWb78nL4Qr8rJ42mB2lPeoraANjbqo/e9+seOcfA+tdqq9YmNNmp59U+fkh7/TSpzkDmIBpZrYKthrgkEjIDTv+tWOaBVucouXHh1NG2B1+Hq9VRh0Q4ZW3birbjcNzF7nouRRYr7Ay7Axu11rHweNVfwASLK9QtvQQ8IT4EPewBJm95WfXSODfE6zFWmtuS3An2qLeq02qEN6vrYTPWJduWXRY3qq496wuE+Fvmnn0mX30QyRhmjaOD4NbD1MN+0SPyROQsIpfU78nXi8h1/XZSs4y91jv8CyhxkDqKBaGAbNBCYl+9k2TUfNsg12cD8MBYG2yCexJCbWDQQDUQD26GBwLzAPMLcDmFmHjIP0UA0EA3M10BgHpjv/4AtF878CydjlbGKBqKBbdJAYB6YB+bRQDQQDUQDnWsgMO98ArdpZZhYslOJBqKBaOB4NBCYB+ZZkUcD0UA0EA10roHAvPMJzCr4eFbBGfeMezQQDWyTBgLzwDwr8mggGogGooHONRCYdz6B27QyTCzZqUQD0UA0cDwaCMwD86zIo4FoIBqIBjrXQGDe+QRmFXw8q+CMe8Y9GogGtkkDgXlgnhV5NBANRAPRQOcaCMw7n8BtWhkmluxUooFoIBo4Hg0E5oF5VuTRQDQQDUQDnWtgYzC/5lPXD3pntb/retkKjveC8wazHt82Vt+ZzTvGl/X9KMs1F4pD6VG2477r+8e9LMfHs5LPuGfco4Hd0cBGYH7FlVcNTzz1/AhywXwO0HhdKCD3VK8plQh5XSnnc4T52utvjK7kf479QWxuvOnWsc9K8SOoaVGzSZDSNukqMGfuFDf110kD8925aawz/6mT+Y8GjlYDxwLzOTADug5qAH/hwqvDqVNXbzXM2ZG3IPjgQ4+PixuB8jgEHpgf7UV1HHOaNjOn0cDJ1sBGYC6RCSCrPGZvwdzFyq6cHfve3t5w7XU3jHCkLmXswmv+W2+/M9x51z2D6vojfHzLXm3Kr2z8g8+pnbZ244ueQAj2wJwdvJ5a6K/u5PVU4+HHzu4/2VC511E5vlhEnL73gf3xrj4rzNl9074WG+p3zfdFGO1Qpy5adE6Z4lM8HqfPZY5P9k0o85/5jwYOroGNwXzVyarflwukgq925PIFcAEsMK/AVjmgrmVzYK72ZFc/+JyCufLnwEt2Dn0WPQAdKHIOxPENcGWncQGy1afO5Vs2DvNan/MKdPx7G8REm9gore1rIUDM8pG/jEE0EA1EA4enga2FOZPcgjqP3gE659pB33773fugcBCzkwbonLPrBs5qF7+ypZzFAuXUJ86aCmjL4AU4gSA+dA5Mqx/ACUhVx+1b5bKRP3w6zOXHwStbz2vFWGMiBvX3pz72ibHfslE+f606lCX9YJwyFhmLaCAaWEcDWw9z7xRgZ4cOdIE5tuT7bhr4rgpz+QToLX+0WVMHYi3jfAq8Dj4/Vr1WHdkA6la56rkfh7nyeRzuKYBvwVxtuS3HgvnVP3/tuDjwxUZtn/4nzU0rGogGooHD0cBWwpwdte+GNeECsj5TMAe6lKtOhXc9p47vzLFRKh9aHLBgIDa3b4kRqAqWtVwwFCyv/rlrJ3exwNkhLD/4dVjKBvtWueqpHBuHufwseoLQgrm3V/vWspdN7Uetl/PDuaAzjhnHaOBkamArYQ60fSfsx+yyfQcu8D/55LfH78fdlmMAD6iVr7xbbrmt+Z24ymXL0wD8kLLQEKT8h2F+IQmU2rVW8Lq9ytgFq65Aq3LqVAi2YO1wpdx9ype36TBvwVfQ9/o6Vxv0jTaIER8sCmTr9ekT5fhJejJvOpn3zHs0cPga2EqYM9EOa0G07obZVasMuHod2b/88g9G/gJzhzN57kd1Ll58c6wjmKuM8zGzxCFwOSiJnRTw8SjaIYeNoEh5C/4OQfwBUvlowfwgv2b39uTf46Nd4iBudv30STFRJn/5NfvhX7yMddKMbTQQDWw1zCPQ1QUKZIFuxnD1McyYZcyigWigNw0E5vaL694mrxVvYJ6bUEsXyYsuooHd1kBgHpjvfxeei323L/bMb+Y3GthdDQTmOwbzXKy7e7FmbjO30UA0MKWBwDwwz848GogGooFooHMNBOadT+DUKi35WcFHA9FANHByNBCYB+ZZkUcD0UA0EA10roHAvPMJzMr75Ky8M9eZ62ggGpjSQGAemGdFHg1EA9FANNC5BgLzzidwapWW/Kzgo4FoIBo4ORoIzAPzrMijgWggGogGOtdAYN75BGblfXJW3pnrzHU0EA1MaSAwD8yzIo8GooFoIBroXAOBeecTOLVKS35W8NFANBANnBwNBOaBeVbk0UA0EA1EA51rYGMwv+ZT14/v/dY7rvWu61VWjP6O8vvvP7NS3VXambI9derqQe8+r+9Tn7LvLd/fV8771jVH9b3m3i+9v7y+w9zL/VhzL79KPX9Tx7Uvq8R+0LfQHbT+YY5RHYdVfbd0sqqP2J+cnWLmerNzvRGYX3HlVSMYBHL9AYw5kw1Ih/c/r73+xmVAuP2Or4yQFWxlK5+tvDltTdkQw7bBXGOhz0EXOLpJ1zk56I3fx3IVmLdicV/rHB9mX1aNb5tgvurYTfV1Kn9V/7Hf7M0+473b430sMH/xpQuzd2mAGZjv7e0N1153wz7QKQ/M1xdq6+Z8mAAMzF8ZNMa93UxbulAfpvJ761/iXf+ekbHbvrHbCMw18bqhC+KrPmZn9/nII4+Pj7p9JwrIAb3SH/3o1XGn7nnsXKu9LwAU41S578wvXnxz37XXJ05SGan89On79uNp7ezd3suJ5d133xv0x0dfOShWr0dbipN62OOTpyOtR+etm/MymPujamB9+t4HxvmtT18oV+paqE8DFAdPb5T6Y/xapnP5av0pdvyov4rL++2xq/4ie99Z1xg8Ph3TpvfL69dYGeOHHzs71qVP3k5r4evx1nLaIxbZ0i7tSQvYaWy4LlWnFYPyva+y8T7iP2lbjxmXjMsmNLAxmK/TGe3AtRNnNy4oLwKXyqZgXiEH7ARFxTZVLiDfcstt+wsJ6pFOwZXymrYWAG4DfKfiobwF8zvvumccK/enY43fTTd9fgSaQ405ad2c/caPnacORBZq3PBZOHDuMMcWaLhPHU/F4vBY5ENxt2y93x77MnugR7yt+OQP/7Xvtb73V20LlErJr/517sCu8bp9bYtz/CslTsrqWOlc4zs1F4vy6UPSwCsa2LwGthrmwBvgAneAJsEAPYdkK087ZL5TVz18Uw84AmfZKk++HObs8vlRHrHV+pSzECGmqXPFRB3aVT+x5+mA4EwMtMk5bdAn+bxw4dWxDzqe+nMgYOM3fvI8dSA6rLHx+pR/8ctfH8Gk9rCraY0FOAIk7HXOYoG8RbZATLbEPmXvcAZ6xNyKTzbEoNT7XutP2Sm/FY/ntXypXON7zSc/e1m7tOOx+HHLl+owNjqufcXnVD7lSaevtYxNxuaoNLDVMAdWdaepc6DbAlgrTwPIYsD9CXzA2hcJPuCA1MtZDChG2RIrYK3ltA2cKfdYOJavVh9qG/VccVAPXx6z98mPWzdnv/G7Lcd+0wfWSin3+sr3R7mqi11NayxT0HH/+JhrS+xz7KtNjY+2ax9ZPNT62CutfcCWR+SeyrY1zu5P/fI6HBOLt0db6o/7cJupvk7lu58cB1rRwGY1sLUwr1ACTqTsPrHjXAJq5bHrBbbVBjCySJCfl176/rgAOAqY1/bVntoR9Kf6QIz0oZ6rnvIorwsIlbf+Wjdnv6m36gBElbUg4/W9HOhViNBGjcV3ptgolf+6KFhkC9BUl9in7FWOfYXeVHzYExvntX7tA3bKJ56psWn5Uh3l024dk6n2Wr5ky9jouPYVX1P5lCdtX2cZl4zLUWpga2EOfB2uGgjAKqgLWkARyE/lAT7sPG3VoVw7aX0XrcWC73JVRx/5VVz4V77Oa3kLrNShLVLl0y9fpGBPG5yrnuyeeeY7uLgsVdknP339kX5n7t+1qv9TMFeZYODfAyuPP8H+7HPn9wGFff1uV/Vb0FO7LVuHpgNrmX2FXo2vlgNk2qvl9FOpjxH5FZQsfmRLHe+f7LUDV1rbqrF4e9hWXz4vta9TMZKf9AMdZywyFpvWwFbCHPA5PH1gAD2gc6i1QKc8fEI5/Spd9fWhDgDFBv8sIDwe1dFHbSs2YsBXLad9HrPTH+rRJvWJhRhabWCjurI7c+bR/T7hj/bqjZ32lVaAKE83fh7TegqkHIi66QsKSvHr4GiVq76Dg3rEqTZpixg9DsVMnZp67PJxWL9mVzut+ACq4lOf+FW/4gCarXh9jLwP7k8+a13vXx1D2mOsNM749vawm/o1+1Rfla94fBGA/6QBWDRwfBrYSphHEJsVhMPjpN2kBTX9eMw15wsVz9+lY2BeFwqL+niSdbJoXFK22ftVxrs93oG5PeKNSNoi2dVxYZftCxg9RdBudxXI9Tg+68C8x34m5pN1TZ/k+Q7MA/PLdqUn8WLQTpzH0q3H2rs4JoF5ILeLuj7JfQrMA/MTD/OTfANI3wP1aGA3NBCYB+aBeTQQDUQD0UDnGgjMO5/ArKp3Y1Wdecw8RgPRwEE0EJgH5lmRRwPRQDQQDXSugcC88wk8yEoudbMTiAaigWhgNzQQmAfmWZFHA9FANBANdK6BwLzzCcyqejdW1ZnHzGM0EA0cRAOBeWCeFXk0EA1EA9FA5xoIzDufwIOs5FI3O4FoIBqIBnZDA4F5YJ4VeTQQDUQD0UDnGgjMO5/ArKp3Y1Wdecw8RgPRwEE0EJgH5lmRRwPRQDQQDXSugcC88wk8yEoudbMTiAaigWhgNzQQmAfmWZFHA9FANBANdK6BwLzzCcyqejdW1ZnHzGM0EA0cRAOBeWCeFXk0EA1EA9FA5xr4/wEFL9k3iEdxcwAAAABJRU5ErkJggg==;" vertex="1" parent="1">
          <mxGeometry x="690" y="30" width="499" height="361" as="geometry" />
        </mxCell>
      </root>
    </mxGraphModel>
  </diagram>
  <diagram id="xJep_ffqQpGsrMO5Mv31" name="Supplier Orders Table">
    <mxGraphModel dx="1366" dy="779" grid="1" gridSize="10" guides="1" tooltips="1" connect="1" arrows="1" fold="1" page="1" pageScale="1" pageWidth="1200" pageHeight="1920" math="0" shadow="0">
      <root>
        <mxCell id="0" />
        <mxCell id="1" parent="0" />
        <mxCell id="RBHYuatutpH0NLa9eM9c-1" value="Suppliers DB" style="rounded=0;whiteSpace=wrap;html=1;" vertex="1" parent="1">
          <mxGeometry x="40" y="30" width="120" height="60" as="geometry" />
        </mxCell>
        <mxCell id="RBHYuatutpH0NLa9eM9c-2" value="Supplier Order ID" style="rounded=1;whiteSpace=wrap;html=1;" vertex="1" parent="1">
          <mxGeometry x="190" y="30" width="120" height="20" as="geometry" />
        </mxCell>
        <mxCell id="RBHYuatutpH0NLa9eM9c-3" value="Actual Delivery Date" style="rounded=1;whiteSpace=wrap;html=1;" vertex="1" parent="1">
          <mxGeometry x="190" y="90" width="120" height="20" as="geometry" />
        </mxCell>
        <mxCell id="RBHYuatutpH0NLa9eM9c-4" value="Expected Delivery Date" style="rounded=1;whiteSpace=wrap;html=1;" vertex="1" parent="1">
          <mxGeometry x="190" y="70" width="140" height="20" as="geometry" />
        </mxCell>
        <mxCell id="RBHYuatutpH0NLa9eM9c-5" value="List of Products Ordered" style="rounded=1;whiteSpace=wrap;html=1;" vertex="1" parent="1">
          <mxGeometry x="190" y="110" width="140" height="20" as="geometry" />
        </mxCell>
        <mxCell id="RBHYuatutpH0NLa9eM9c-6" value="Order Status" style="rounded=1;whiteSpace=wrap;html=1;" vertex="1" parent="1">
          <mxGeometry x="190" y="130" width="120" height="20" as="geometry" />
        </mxCell>
        <mxCell id="RBHYuatutpH0NLa9eM9c-7" value="Supplier ID/NAME" style="rounded=1;whiteSpace=wrap;html=1;" vertex="1" parent="1">
          <mxGeometry x="190" y="50" width="120" height="20" as="geometry" />
        </mxCell>
        <mxCell id="RBHYuatutpH0NLa9eM9c-9" value="Notes and Comments" style="rounded=1;whiteSpace=wrap;html=1;" vertex="1" parent="1">
          <mxGeometry x="190" y="150" width="120" height="20" as="geometry" />
        </mxCell>
        <mxCell id="RBHYuatutpH0NLa9eM9c-10" value="Preorder" style="rounded=1;whiteSpace=wrap;html=1;" vertex="1" parent="1">
          <mxGeometry x="310" y="130" width="120" height="20" as="geometry" />
        </mxCell>
        <mxCell id="RBHYuatutpH0NLa9eM9c-11" value="Received" style="rounded=1;whiteSpace=wrap;html=1;" vertex="1" parent="1">
          <mxGeometry x="430" y="130" width="120" height="20" as="geometry" />
        </mxCell>
        <mxCell id="x-FqWV9l4bemNAdPxXdP-1" value="" style="shape=image;verticalLabelPosition=bottom;labelBackgroundColor=default;verticalAlign=top;aspect=fixed;imageAspect=0;image=data:image/png,iVBORw0KGgoAAAANSUhEUgAAAmQAAAF0CAYAAACNLyW6AAAgAElEQVR4Aey9+7Ml1X3l2X/UzK8z4V+nIxhiJqZ/GKIHOqI73BWMeuwaqxuBumiNKrBNd4lqW5jGhcxDPKYlcBfChUEWmIckSgXYgIRLDQPGdpk2YLvw49pW+ZETK8Xnsu63dubJc+85N8+9d52IUztz7+97r5N75c5zbv2j/+6//4ku79QgGAgGgoFgIBgIBoKB+TDwj1L8+Yqf2qf2wUAwEAwEA8FAMCAMhJBlhzA7pMFAMBAMBAPBQDAwMwZCyGaegNwZ5c4oGAgGgoFgIBgIBkLIQshyVxQMBAPBQDAQDAQDM2MghGzmCchdUe6KgoFgIBgIBoKBYCCELIQsd0XBQDAQDAQDwUAwMDMGQshmnoDcFeWuKBgIBoKBYCAYCAZmIWQXLrzaLXqdPXvuwLL1M/c80F25cqVPcS95nLj1tm5ra2u0VB98+FF37NjxjazVO+++18e+ihj/p3/8T7pfO/d09yd/ern7h3/4h97uj350pXvvvd/v7rrrK93/8D/+442oAdjWvGn+fA41tu6L7v/5mX/dfe97r3R/+ZdbfZ1UKx1/+9vnu3/2z27ck3/hTHOp1yrmdLe10Gdq6mvK56/O2Vhcq8T0mJ+MZXEOBo4eBkLI1rBDtsmEzBdVLS7r/NCvavH63/7JDd1bb78zuAaLdPzgBxc7ya0znym26+K+n4Ts7l++b5TA/9mf/Xn3H/7DL+66Ro6dELLNvRGagtPIHL3FPnO++XM+KyHTLpLIy2EDyjoI2arIky+qq7K57vl79LHHu7//+7/vd3xee+373U/+y5/utGMmAsKO2W//9ht73gFaRR6VkK3C5hQb/88Xb+9EuPT60Y9+1D355Dd7giqS+hu/8ZvbO7aq18989t/u6jPn2JmTkNV6+I7ZlB2xqr/MnK3qJqPGkPPNXywzR5mjdWMghOyA7JCtijz5oroqm+sG6euv/6AnGltbf9WJeLg/kQvIh/fPdbzM4r7KGH/rt9/oayTi+vjjT+6okfyIlPGo98Vvv3TV+JRYHDshZNkhm4KZyITEBAPTMbCxhEzfCdJ3YbSIaJHR94c0sbrj/73f/4N+8fnzP/+L7md/9kv994ceeujr3R//8Z9sLzp//dd/3b3x/Tf73RTp+aOjN954s/ud3/lh93d/93e9/Icf/nF3+vRd3a//+m90WvT10i7DSy+9vP0YzPW///3f6d566//b1tfOhOLje0xDO2T/9sRt3dtvv9Pr4UMx6ns/LdC6z0Xk6VMi8Ff94quYVDvPw+Pqk/zkH+m6L+1CqT6qu/xqASfeL995ZjvWz3/+5PaujHTIn1ykqxeLt/uXzd/7vT/ofciPjlUfdL2FkCkf+flX/9e/acpJ59M6/Pg7XOprEQmP5bvf/V536dL727twwtFXv/qft30sI1v9e101Rl6qlTDDPCk3+RWOqaPbevrpZ3rZ1q7yTx+/ud8pVK3ff/+PmjuFLsN8MD/C/28+92KnzwzffdPnTHPknwfVXjtsPqfKZ0ouXsPnn/9O/xlWztTkjjt+qfvDP3x/+7MhTHz88Z91v/Gt55r5UEe1Yztk+mzpM6bPgV6y+9FHf7xjfj+t81/1dWBOdH3Q59VxSc2oIXEIL1x/lJds6EZBO7nIpJ2+MKVWqdVRxMDGEjJNhhaFd9753f5C+ld/9dfdqS99eZukaWG6996H+oudFjZdaFsvEaf/5X/9pzsIR0tO+rqQ+kvnL7zw3d6HL6wuw7Fktagpbl98eIQi4igC2Xp98MGHTZLhPrUQjAGURaVlnzw8LpeTrvvyWsrvz/386e2FmQVUsfAo8W//9m+7++5/+Kr46uI15J9YtCC3vnj+4ENf6+TDXyIPsv/1r5/dJs2KiTpALNS3iJC5XY61GH/ta//lqvlk3FuXrf69rtROBIabDbejY9Wemw9saf6YkxYh+4VfuLv7m7/5m97UxYtvXTUP4Ib5oDacO/Y19h9/4T/1Nxw1Nj+HkEzNxeeeXGRPOX75y7+8Hb/70PFf/MVfdj/3c3cM5qTchgiZiLs+W62XCNov//J9vV3q3JJT35/+6eXu5lu+2MtSM/KX/6Hrj+ZN8wzBZh7ShmwEA8FACwOzErKhCyAkRgE7kdHduhYkv9DpDli7G1oU3333vX5HTETuzTcv9uZ1QddOji+MWnT+09339os/F1gJa+dN9kT8pKfXH77/37r/4/p/uUNfF/OvP/p4f6GV7OXLH/ey+jXbv/vCz19FyEQI9WtAvX73d39v+zs82pWDpLUeI3nMvXL5xxcFX1S0oyRi08rDyYlyBxTuSwumyKXqqHGP/0/+5E978qhFBrI8tCtDbYnTF2XZ+eIX//2OORCpELkgJlr5+i9nf63fwSkl6E+ld89XvtrrUQdIh2x4zq1YNNf8UvP++x/pRP712o1s9e911ZjiEXkVwRSOfvVXn+h3UVTrl1/+rR7b2l0RZrGlWLSLJWJMTbz1uuLDxzlmPpSfSA7nsu+4JD7vV3zCBGSK2iC7KBeP0WUVm3ai9RLJZh7UCiPatSb+oXaIkH3jG7/e29Svcdl5lF350Ut+ZdPrrDroGqB8z59/ZTtf6krNyJ+bFf/MaFdMO5rqU66+qzyUQ/qzQAcDwcDGEzKBVDsVLAS6kLZ2Um666d913/rWc/3CosVYpE0vFmZfGEVYAP/QxbxeeF3/hz98a8ddr76zwy6GYvXFR/Zv//f/cXuR74Nq/KOFoN5Ju8+GyjZhUC4sKlps5U99sie7erGAODlRjtTBfYlo1VjqbpiIJ39a4amnntm2gz21tYZel29+89ltnSd+7ak+xtbuj9vTQifCpl0HLdaOCT3e0vfJqAPzLn3PmTp4LJUMYwOCuIwsuvj3umpM8fAItjWn6lMdvvIrX93OZVFd9rpDxo0EtYYgVTLRquPUXLyG1AF/wo8+P3rr5kY/0HjkkUe7//tnPj/pkd/QZ1j2hZlf+ZUH+0fdwozIGS/iYM7G8uXGrGJaOF70Er7JNW0W3WAgGBjCwKyEbNFCQ9D+XSVd/HwBFXHQAgIBqxfHsYVR9ocu5vXC21pYic8XG9kbO6/xcQ5RwKZa9+nkyWU4ZlEhX/prHr6ouk33xUKFDbV6/KMFTS8twiyi7Oa4LMfVd60LcszBEB7k+9nf/HTHDj392lK7onqh26qD50ydh2KR7RrPMrLVf6uu1KUPfOAfxVBtkXdt/fthQ7uVLkMNiINz7I75rTqcD6TRd7c+E/hSq90o/ShBu9z+0mda3+HSPLt8PWa+pKtjxrW7LnwOvZSnZHeTLzVDd8iH+vFDXGmzIAcDwUALAxtPyES49AVzf+lOlu9/+GKpu1jtUP3rf3Nrd+Hl3+pVICithVEFGbqYs9Bw4XX9veyQ+c5Qa0K8z30qHh+rxywM5Mt4zcPJidt0X0MLiIiwXnrMqrropYUUX7Wtvn2ufOFkDiBVbkdkTCRDi7PmtH5JmrzR5dzr4Dkznx6LE3z5xsa6d8j0BXkRJc/Xj4nDc/FxP97Nryzr/GBvNztki3Lxevvcy6c+43qE+j9f+7/3j7G/8cSv94/4Ned6D+3AEi/4ER6xLZs8Uhc2vvOd73VfuuPOT74P+eM/tqz6ygZ13ssOme9ME1faLLrBQDCwDAY2npDpcaAeTemtR1Xc8fJFeH0HRxdtjet7G/3F/edP99+50QWaP5UwRDhaF3MVsC5Wrq8Ld+s7ZOwW1cXHv4Ol7yvp72cpTpEL/cLvmWeeX9mX+uviXfNwcvIHf/CH298T8/xYqCqQ6qNXSFCV47z6rnVBjjlo2fPvEGqe/+t/fbt/NKn6qY5810+7dyJv+gWfXuBBNX7ssW9s/x2uFiEb+g4Zu00e9yJZFnfmoVVXvnelfPTLRXaA9EtDfffxzl+6p8dGtUW9Wu1u/g5ZnR/sEp/qyHfLFn2HbFEuXkNIk/xpfvS51nzpBwl67Ky51Xe+hAe9NKfE1mrBj2Sx/S/+xb/a/kK/flWpx581B31nT/aoM/m2vkMGaa814ztk6PI33m763Bf6udSvL+W3FXf6slgHA8GAY2BWQqaL2NBLF1ZfjPWX2nVhg6BpAdCFXBdESNqQLS3C99738PZfMXfC0bqYq0D1wusLa8uP4hn7laV+RKAdl9ZLixG/rPPJWeRTtiAYLCoQAezUPEQOf//3L+0IQzLuy+uDHbVOLGUAwuIyflx9Dy3KzEGLkMmeviM1Nsf+pf6xX+x5vTyWHcX45MR/ObmMbJ2HVl1VR+2yCjOtFzcb1ZbXtnW87F/qr/ODTcWnXyePvcDd1Fy8hpAm+dNnWr6GasGftiG2Vgt+FK/bHvsqA7lJnjrTV9tFv7LUTdVe4m/llL4s1MHA0cPAxhIy7Rrx3+X4RVl3zzzC1AKuP32hnQX9Ck0XRb3194D0qzx9+V/nqyZk9e+YiSyIUCk2fYiGFh/9qlDfieGLxVr0FSO/EKwfQF/M6yLBOQsji8oiQiYfXi/ZUUzuS7ZqLJzzBXzVddGjpLrgD9WFBXWIkMm3fjWqv0mlWsu3Xvq1nHaUFDvxqX344Ue35WRTj/P4/hv18li0+8HfRAM/Q3+HbJFsnYehumpnSH+ninzkV1+u100GO2bVluc4dKzdHdngBxfYbf1flnV+3KaIknKd8nfIpuTi9XbSJJ/S/3//86/2fx9MNyd66TMiXOoz43G1jsGP9Ny2chAp0472j23+qP+bZMKRcIH8p3Xe+Tf89PlUDIv+Dhk7etqJI36wqR8btWJO39FbbDPnmfNFGJiFkC0KahPHhxbWTYx1XTGJFLGIi0joxxbr8rVuu2MEofpeRrbq5jwX4WAgGAgGgoEpGAghm/hfJx11QsYugnYVtOuinYcpANtUmWVI1jKym5pv4sqCEAwEA8HAZmMghCyEbBKxgpDp8Y/ImB4HHeQP9zIkaxnZg1yTxL7ZF+vMT+YnGDjcGAghm0jI8kE43B+EzG/mNxgIBoKBYGBODISQhZAd6J2uOT888Z2LdzAQDAQDwcCqMBBCFkIWQhYMBAPBQDAQDAQDM2MghGzmCVgVs46d3KUFA8FAMBAMBAMHFwMhZCFkuSsKBoKBYCAYCAaCgZkxEEI28wTkbubg3s1k7jJ3wUAwEAwEA6vCQAhZCFnuioKBYCAYCAaCgWBgZgyEkM08Aati1rGTu7RgIBgIBoKBYODgYiCELIQsd0XBQDAQDAQDwUAwMDMGQshmnoDczRzcu5nMXeYuGAgGgoFgYFUYCCELIctdUTAQDAQDwUAwEAzMjIEQspknYFXMOnZylxYMBAPBQDAQDBxcDISQhZDlrigYCAaCgWAgGAgGZsZACNnME5C7mYN7N5O5y9wFA8FAMBAMrAoDIWQhZLkrCgaCgWAgGAgGgoGZMRBCNvMErIpZx07u0oKBYCAYCAaCgYOLgRCyELLcFQUDwUAwEAwEA8HAzBgIIZt5AnI3c3DvZjJ3mbtgIBgIBoKBVWEghCyELHdFwUAwEAwEA8FAMDAzBkLIZp6AVTHr2MldWjAQDAQDwUAwcHAxsDZCdtMtJ7tXXrvYvf7m2939Dz46iXmfueeB7sqVKx0vHatvPwF29uy53v07777X+1Wrl/pXGceFC6+SZt9+8OFH3bFjx5f2IR3prrJWNWfOdwS8ZE0cD8LE+Zff6K6/4car8n3iyWd6zEhmDDuy9+JLr+6wUX20cLdI5pprr+ueff78dgzCsHRWOfexdXAvmJm7zF0wEAysCwNrIWR1URtafD0piFBd9HUu8uKy6zwmjnURMghUK8/dkCrs7UZ3qI4QMEgo562YqdOQLfVDgm4/def2PIosOdkRORNORIaEH+mBI+/Dj/QdV9UH9pyULZLBn0jhkB/60+aiHAwEA8FAMLBKDOwLIfOFdyh4Fn0nX5Cjixff2tXu0ZCvsX58TiEaY3aGxtgZ29ra6k7celu/8EOqRHiW3SlDdz8IGQRNuVEnxez9rbxFilqk6r6vfr2DpIkEtWQgVpKDMLF75oRM+k6kFIcImGTU6nyRjHy4TenIv3bisNHKL325KAcDwUAwEAzsFQNrIWQKit2IscdOHnyLkPm4yItIjBMPyA3kCRu0Igsu7+Tl0qX3tzd8nBxBNKpNJx1D9nnkevnyx53elay0ciDHOtaKtcYk+/jyPGVztzG6Ljlji3NiplYikTd//mRPqFqkqu6GoU/rpIs+b1uETn2QpyF97/djtz3Uj0zLN2NpcwEOBoKBYCAYWBUG1kbIlg0QMrPNkspuUSUssj9EyNyGjiFckJw6rnN2piAZlfxARiAnbgMy1MoBPcXLOPHUGmFbOq1YNY6M+9cxMchmS4ZxYnB9j9H16cce58SNLeVz6tSXBwlZ3dmqO6Z1Jwv7tK2dKydkQ/r4lewUGfz5zUTddUMmbS7CwUAwEAwEA6vEwMYQMpJikXfCIOK1DCGTvOw5qVGfn0MusCt/6tNbL5EQ2XAyQmxOqJwUMg75ISdaxl2fserLYyUfYnX72KSPc/exTIw1jtY5Mbd8MTbUOtmBmA2RJWzsNyHDr1r5Jk7vz3EuxMFAMBAMBAOrxMDGETJPjgVfu1f33vfw5EeWkC3ZgoyoheRAXvDlpGuMkDHmZJFj2fB45Qv7tC1CNTTWirVlv8rtNUbF4/VonRMzvthdpH9Ky+6VdqB289jQd8iG9L3fjz2+oX5kiFP+6Eubi3AwEAwEA8HAqjGwEYQMUuG7OkrUF/wWIYM4qJU85+woYVekyQmZzmVbOpAk+vBZbap/iBDJhmy1xtXvbwii5+pxQm7oc/JIrN6HT/o4x458y9YyMVJHalTPZZM6UTfPsR7f/ZWHml+K9y/Z67j1/bMhwuSETP7cFv7rztsimVYMIWQ78Utt06YuwUAwEAysFgMbQch8cdcCX18ah6DUMZ1X8lRlID9jNiAwxFJtql/gg5xUH+pvkaEK2LEYIFXSQc77xvy73F5jRH9Rzl57iEslVTyirI/96qNAiJfrD9lUHSohw4/sahx7vrO1SIZx19FxjV32804NgoFgIBgIBlaJgY0gZCTE7hFkx0mGZNgh0rjG+KWkCITGIRK0yIkoadxJDrqSgbBJZhEhcz/ECXGZQsikr3fNFULIuMdK/Ix5flN+Zak4l4kR++hwTr60jCuuMfKkcREl/lyFWn4hSU602qVyOSdHyKhVf7UBoUK/pbtIBiKHjerDY8hxLsbBQDAQDAQDq8LARhGyvSYFcXCi4DbHSI7L5TgfsGAgGAgGgoFgIBjYTwyEkOXxUx6/BQPBQDAQDAQDwcDMGDhUhGw/mWx85c4pGAgGgoFgIBgIBlaFgRCymRnxqiYydnJRCAaCgWAgGAgGDi4GQshCyLJNHQwEA8FAMBAMBAMzYyCEbOYJyN3Mwb2bydxl7oKBYCAYCAZWhYEQshCy3BUFA8FAMBAMBAPBwMwYCCGbeQJWxaxjJ3dpwUAwEAwEA8HAwcVACFkIWe6KgoFgIBgIBoKBYGBmDISQzTwBuZs5uHczmbvMXTAQDAQDwcCqMBBCFkKWu6JgIBgIBoKBYCAYmBkDIWQzT8CqmHXs5C4tGAgGgoFgIBg4uBgIIQshy11RMBAMBAPBQDAQDMyMgRCymScgdzMH924mc5e5CwaCgWAgGFgVBkLIQshyVxQMBAPBQDAQDAQDM2NgbYTspltOdq+8drF7/c23u/sffHTSRJ+554HuypUrHS8dq29V7HOKnbNnz/Xu33n3vd6vWr3UP0V/kUy1xzk50y7jz2utep9/+Y3u+htubMZ7+6k7+zl54slndoxrjqTrb9k5/jMnumefP7+j32Vkb1HOGc8dZDAQDAQDwUAwMI6BtRCya669bsciPkYQmCCIEITE2wsXXt23RZ845iZkyp8YqFGrhYw5MRK5EhnWmOsgK0JVCZnOW8SZuXT7sinZKfPq/nM8/mFMfVKfYCAYCAaOLgb2hZC1yEEFHTtFTr4gRxcvvtUdO3Z8B7mo+qs6x+cUMrQbn+QpP9Kv5+ojBpEy5IZ8iRhpB0vEyWXu++rXOydRECsRL94urz6XZww9H9PxlDnFRtqje4HJ3Gfug4FgIBiYhoG1EDIV33djWjsvdYIgJk7IXObErbd1W1tb/SNNHmNK1neSsEGrMX/sKVL3wYcf9X2XLr3f6+of2ZV9+YMMyYbOseXEiL5qn0euly9/3Omtl+u17GGryhGH4r358yd70tUiXqrtFHIkwoV+JWSQLvXzOHJo98tlfX5yPO0DlzqlTsFAMBAMBAMtDKyNkLWcjfVBZnoW88k/IiPsjC1DyNyGjiFcELI6rnN8QYSGCBkEym1A+lo5VKKFPv31nBphS7GfOvXlQUIGQYJItciZdrScYFVCpu+baVz9+B96JFltIZ82F5hgIBgIBoKBYGD3GNgYQsYkQkSc8GgnbBlCxi6bEzD1+TmECLvypz699WoRMmKD4Clm36VjHIJGTt5WAlbPkcWW+2JsqPVdSYgZZMsfOVZC1rIH0XM9yU3RbdlL3+4/pKldahcMBAPBwOHHwMYRMgcdpES7V/fe9/DkR5aQLdmCMDkhq4TJSdEYIWPMySLHsuHxsrPn+ejYfbXOkccXO3f0T2khUyJP2uli96zV+q6Y28aGP25u9blOjg//BSNznDkOBoKBYGA9GNgIQsbOVd0NclLSImSQG7UCCOciXzrHrkiTEzKdy7ZkdrND5iRJPmRDtlZFyMjb45T91vvurzx01a8pJTe2k1XHdO6PNKUP+fIdMnbgvK8VU/rac5W6pC7BQDAQDAQDQxjYCELmBIQdJ2817uTKx3RcCVkdh+iN2YBkEUu1qX4VEdJXfah/L4Ss2vO8IEd8KZ/JhCDxeJJ+Eabax5jaSsh4rKl+5HTc8ifiJr/Ipc3FJRgIBoKBYCAY2DsGNoKQMZE8XoSc1EeLvpulMX4pWcmTkya3ASFzXfmCsCmORYRMMm5f+pC1VRIybMrfECGjbiJg/jiy7nYhR1sJmfohZdipZEwyi4ge9tPu/YOZGqaGwUAwEAwcLQxsFCHbK/ggSk5m3KYTMpEnH8vx0QJ+5jvzHQwEA8FAMLBJGAghG/hu1iZNUmLJRSMYCAaCgWAgGDjcGDhUhCxgPdxgzfxmfoOBYCAYCAYOKwZCyLJDlke3wUAwEAwEA8FAMDAzBkLIZp6Aw8r0k1fuYoOBYCAYCAaCgekYCCELIctdUTAQDAQDwUAwEAzMjIEQspknIHcP0+8eUqvUKhgIBoKBYOCwYiCELIQsd0XBQDAQDAQDwUAwMDMGQshmnoDDyvSTV+5ig4FgIBgIBoKB6RgIIQshy11RMBAMBAPBQDAQDMyMgRCymScgdw/T7x5Sq9QqGAgGgoFg4LBiIIQshCx3RcFAMBAMBAPBQDAwMwZCyGaegMPK9JNX7mKDgWAgGAgGgoHpGAghCyHLXVEwEAwEA8FAMBAMzIyBELKZJyB3D9PvHlKr1CoYCAaCgWDgsGJgbYTspltOdq+8drF7/c23u/sffHQy8z5zzwPdlStXOl46Vt+yE3Ds2PHugw8/6m3tRr/l7+zZc4S1o33n3feWjq9lf7d9XmvV+4knn7kqHvVpTO/zL7/RXX/DjTtkNEeMq7391J07xolN/Rpv+UCmtot8S17+p9hsyU2xX2PKeS7qwUAwEAwEA5uEgbUQsmuuva579vnz2wt8iwC0inDhwqs7iI6faKylM9S3n4RMcW5tbXUnbr1tUozkuWxOrVwhYxAoES3V28mNjjUfmhfZEKnxOannkC5s4hdfyxCyRb5lG7x4zPj0tiU3xb7byHEuwMFAMBAMBAObiIF9IWTaKdNiPlYA3xnTThSykJdld8rWSch8R0wkTGRML+8n/lZLTqsgZK0dIxEpCJfqruNafxEZvSE5lXwxTvzI0a+WsaF2kW+Ns4s6RvKG5BbZH4or/bkYBwPBQDAQDGwaBtZCyJSkL6IiDYsSF5nRq0VSfMyJ1qVL7+8gQsip8/Llj/t3JXIu42NjdomdR5ayQZ9aSJnbQ7YP0MgaZIx+31mrYxBTyJDvcuEfgsS5Widkqn1Lj/7jnz3RE7ZFhEx+sNPy6f45xofip09t7Se/RSSvylU7+BjqZzxtLsTBQDAQDAQDm4aBtRGyZRKFDImkQEJcH3IjIuSykBr1O9GiX62TpJYM40N2h+LwftdVrMTrcehYhKuSLghZ7UdXtiAiECL3rWM9poT0IAu5GSJPTtpk4zM/9blt0gSZhqRV2SGbNa4huWqvxlztcF7lptpHP20uwMFAMBAMBAObioEDTchEYlTY1g4Vj0AhXJxDgKQHCapED7t10iBakvexFiHzcffjfvHTih9f+mGC7Lu9sWORFH9EvCxp4TtokD/OIWfyXW1qTI8ceWuHqiVH3IsImfSxpRbfIWS5kIKhtMFCMBAMHDYMbAQhU1HZvYKkeKF9DPID0ZIcZMvJS5WD4LDz5K0TMrfrMegYG5WQtQgVMVU/sgNBI9eWLHqeU43HzyErTsY0PvT4rtXPzhhkDH0nR/VY5Mzj8OOWD2y6D2IfsyW9KjfVvseU41zEg4FgIBgIBjYRAxtDyJyUiPhQLMgLRKkSLcmNESL0sO8ER7akKxstu8RA2yJk+BaBgqipxa90qx45Qciw4bt3Hhv+h1p2sfgiv8tN/eI7u1yLSJFs1x0y9+fHU31XouU2/LjKTbXvNnKcC3EwEAwEA8HAJmJgYwiZigNRYXfIW8jLEHESCWq9nBgNyah/yK5PGsSq5QcyhZ2WDLF4nuh5n+uKQN78+ZP9F+p9V4m42NUaI1Iac13tLDl507k/GsT2UDuVkEl/kW/JVKI15LclN8X+kL3056IcDAQDwUAwsCkY2ChCpqKwkwUpgcRQMAhP7de4E64pv7KUD3bjxuzie4iQyS8yamsOFy++1f9pDGJmR0z+IWTSq6QMEmGp4B0AACAASURBVAoRcVKFPxGS+hhR5/XRpcs5GWN3rWWj5U9+ZUtvYljUDvlGj/wW2RySW2QfP2lz4Q0GgoFgIBjYVAxsHCHb1EIlrnyIg4FgIBgIBoKBYGBdGAghy/9lOXmna10gjN1c4IKBYCAYCAaOOgZCyELIQsiCgWAgGAgGgoFgYGYMhJDNPAFH/Y4g+eeuOBgIBoKBYCAY+IkuhCyELHdFwUAwEAwEA8FAMDAzBkLIZp6A3BXkzjAYCAaCgWAgGAgGQshCyHJXFAwEA8FAMBAMBAMzYyCEbOYJyF1R7oqCgWAgGAgGgoFgIIQshCx3RcFAMBAMBAPBQDAwMwZCyGaegNwV5a4oGAgGgoFgIBgIBkLIQshyVxQMBAPBQDAQDAQDM2MghGzmCchdUe6KgoFgIBgIBoKBYCCELIQsd0XBQDAQDAQDwUAwMDMGQshmnoDcFeWuKBgIBoKBYCAYCAZCyELIclcUDAQDwUAwEAwEAzNjYG2E7KZbTnavvHaxe/3Nt7v7H3x04USfPXuuG3q98+57C/UPyt0FebZyUl/rJZ1l8sOO9I4dO9598OFH3ZUrV7oz9zywlJ1lfE6RJZaa4ybE9sSTz/RYFV6FW+HXc3I8tzB9/Q03dudffmPbxrPPn++uufa6HTZkT30aa/lwf368yLdk5f/Fl169Km63o+O95lnt5Tx39cFAMBAMrAYDayFkLDpauPTWQqUFY2zSICp1sdZ5i7yM2VrH2Ilbb+u2trb6t45364M8WzlBpPZaA+wcFEJGvhcuvDqprquaC+ZQJMUJlG4gnDBBiG4/dWcfH+SLG416Dv7dpvsaIn3IeLvIN7KKzWOm39u95um2cryaC3DqmDoGA8EAGNgXQrZooVAwY0SFYOdsV0UCxvJ0IkWuyIu06Jj+sbZlZ0x+v8bYIas7YiJietX+obhWNRey39pZglBBuERk9PZ4RJR0o6FWZKiSLx9HD9J091ce2tZlbKhd5Fvj3PiMfc5WkedQjOnPghIMBAPBwN4xsBZCponhzl6LBQvb2IRBPEQmWnIs2tql0oLM4q6FXDp6HKcF/fLlj/t3v8I3dteww3glOXVc5xAAdNSqX3HWMT0eVGzkQFzoQpZaeTJWY6I2brvG6TpuhzqpNr/122/0NaKGHr+TIfQVs/eTi9f4hz98a5JN+fJY6uNT8qEuyFI34qj1njoXIkPColrmRm2LODkhY/er6nm/8L2IkPF5kJ2WT4+JY/dBn9pWv+yOEbKWz2Xz9BhyvPeLb2qYGgYDwYBjYG2EzJ1MOYZ0sADTtkiIFm0WcIgRZAE9b5FBx8d0DJkZGn/nnd/tH1W6nmRb5EAyxDwWE8TDawMRIh7GsAORGooTPbcDsYHQ+JjsU3fZ1Dnjniu6xOFj0ice/Feb5FFjod/jUO1On76rr6H70bHyf+yxb+xqLkRYWoRMvkVMRHKIx8lNi8igIxLGzYb0ZQcb2rmCpDnx0fiQTXRph+SqPcl7zOjXdhV5Vps5z4ISDAQDwcBqMHCgCBkLOgs1xEdggCxAWtQHMfCFHHLh47Jz730P9wu9j8vmxYtvdXfc8Uvb5MvtQ0REYmTP43OiwrhkIDzep34fg9jQ77lBSDxO8qQe+FA/MSGPLcmKUKqtY0M5oot8ja9lExm1NRYf8xy+/ujj3Zfu+HQnC+KLX86H4nRfwkqtp/utxyJB2mniEeUypAhbImlO/uoOWrUJwZKO3nznssphH3nIoPqdkLGDhj2IIfpqV5Gn28vxai7IqWPqGAwcXQxsHCFrERUH6BRSoIVfOr5wP/fct3viAZnzVkTi3Llv9uM6Rt/9ui0dawzi47Y4Fglg3AkBxKOVZ0teftDxOPHjLbG7nUqC/PyFF767I2f8uE2OZZPa48fro3ERJmzq3Md17L5ly8crudUYeRDDGCGrsuio9fq7z3rMLhpkTOOQG425/FA/3+lCHjnIUW3HHjOiiy38t/olM2YLXbWSVRx7ydPt5fjoLiCZ+8x9MLA6DBwoQsaCzmLrOySQBe+DYKiPnSUflz3IFYSLRV8gU99rr32/X4gZd31IhFpAKTnZ1TnjTk4gDt6HLmNOIMgBYtGKw/OQLbdDzTwv4qKOxE8NnXC57dY4sXucxMoYbSsWjREPMeKHGlW9Vg2wQS6y63NBDEMtu1q+64SsiIuTF/XX3St2raaQoqqLn1Y7xbf0phKyvebZijF9q7sgp5apZTBwdDGwcYQMkuAtCzOLrs79WABmEXc9jlmk0aGfFgIyNC5/kAB0JFv7GFMrgjIWEzn5h099Qy+XH4qTPLCjGCqZkT+P2wmmxtCtcaiffPDjsbvN1rhkiaXa5lx5Sa6SO8bVKg73pb4pc8GukFqPW8ciPWNEisd76LJDBXnjvPVosPrS+TKEbJFv7E8hZHvNE19pj+6CkbnP3AcD68PAgSFkEAUWe1/c1ccjR/8FIAu4A6iSGUgAMmPjPoZeJQeV4EBiIBXkoRaftIwhSyuCggytxyI54tE4doYImctMiQP/5MIcEAstMXksjKn1OSM3teyMuSw5aFw11Xf59CJefKkPf2NzMUTIIDz1UWJ9pFflIGOKmV2nlg1InOe2DCGT3phv7C4iZNWGx+q7f1XO88RX2vVdkFPb1DYYOLoY2BhCtlcQLiILe7Uf/eEPie9oVUKaug3XLbVJbYKBYCAYCAbAQAjZzP93FRNxkFsIWWun6yDnldhzoQwGgoFgIBjYLwwcGkK2XwWLn3w4g4FgIBgIBoKBYGDVGAghyw7ZVd9PWzXIYi8XrmAgGAgGgoFgYBwDIWQhZCFkwUAwEAwEA8FAMDAzBkLIZp6A3DGM3zGkPqlPMBAMBAPBwFHAQAhZCFnuioKBYCAYCAaCgWBgZgyEkM08AUeB9SfH3N0GA8FAMBAMBAPjGAghCyHLXVEwEAwEA8FAMBAMzIyBELKZJyB3DON3DKlP6hMMBAPBQDBwFDAQQhZClruiYCAYCAaCgWAgGJgZAyFkM0/AUWD9yTF3t8FAMBAMBAPBwDgGQshCyHJXFAwEA8FAMBAMBAMzYyCEbOYJyB3D+B1D6pP6BAPBQDAQDBwFDISQhZDlrigYCAaCgWAgGAgGZsZACNnME3AUWH9yzN1tMBAMBAPBQDAwjoG1EbKbbjnZvfLaxe71N9/u7n/w0aWY94ULr3a8zp49t5Tuqif82LHj3QcfftRduXKlO3PPAzti0bn660vy0psaC3bQe+fd93qTc+eu+BVD66UYp+a3DjnHlzD2xJPPXBWP+jSm9/mX3+iuv+HGHTLCJeNqbz91545x4la/xls+kKntIt+Sl/9FNhfluWi8xpXz8Qti6pP6BAPBwFwYWAshu+ba67pnnz+/vdi1FsOhhCFAkIBlF/5VkxniWYaQKfaW/FDOB5GQKcetra3uxK23NUlMzRWSrbaOLXsOCYFAiWgJY05udCwMCouyL/LjOKznkC5sEhO+liFki3zLNp8RjxmftPgmpprnonHspM0CEwwEA8HA5mNgXwiZdsq0eEwBBOQEQrbMoi/7cxAydrbkHwKn+L1/LHdynio/ZmvVY+yQOTEWCdO86OX9Y75XSchaO0siLRAuYU3HFXMiP3pDhiA6xM0458jRr5axoXaRb42zc7yI5C3Kc9H4UIzp3/wLc+YocxQMHD0MrIWQCUi+8GjhmAouCNXTTz/TExot+vXRHQSmZwRGfND1/nvve7gnD75jBTlwMlF18QnBcn1yIY5KpNDx2J3EqN91qh1iUQwc+85SjZ9z8iZ2xYk+rfy+//4f9aJjNslRtvSSPn1qycfrgixxoFPjc5Jdx4gdMuS7XPiHIHGu1gmZ8NbSo//4Z0/0hG0RIZMf7LR8un+O8aH46VNb+8lvjOS1fHqei8bdf46P3sU9c545DwYOFgbWRsh2AwQWeRZsFvgWeWHRp3Wi4X1TCBlkBT21EA3IFeeeVyVSPoZNEQ7ycvs6Jq9qB13lX8eIhxpVQoMPiA226JdPaoL/atPzYA5kx/vRkV3JIIcfWsVXY5wSO4QFQuS+dazHd5AeZCE3LaIiHSczOv/MT31uOyduICBpVXbIZo1rSK7aqzFXO5yP5SmZRePYSXuwLsyZr8xXMHD0MLBRhIxFncUfIuNkCIKhRV6AFTFQn4gLx5AEjbdsQBCkp/EzZ+7fXpgr0eDcY+CDUskS/Wo9TvenMWwSZ7WDrurhtpz4ELvIjcdGDSFb2FLbiq/adBkdY6/q1xwk57o1Z87VSq41L/gidrc3diwS5I/Fp5IibPLdLMgf55AzyVWbGtMjR97aAWvJ4WMRIZM+ttS6b2zUPOmnXTSOXNqjd6HPnGfOg4HNx8BGETLIA7sr3mohhwQ4AakgwwYEobXwQw6cZNDnPmVjzGclUsSCDoSLmNw2x/JR7SBPDmr1Ur+PoYctbyE1Lk98atHF5lBN3bfrt+qKTY9D9qVHfdW6f5flmNjdX+uYXSYnY5KrjwfRbfWzMwYZQ9/JUT0W8cFmbVs+sOk+iH3MFraRrXlOHUcu7eZfkDNHmaNg4OhiYGMIWWsxZ4FWyyINwWBhF3hfe+37/Y6LjhmHzLSIAzJqGcd+tQG5ahEWYnZd5D3mSkbkQ34lq+Nqh/hqDtSDR37Ezrlsyab6dax3tUW/x+mxMk7bImT4lZ7s48drVPVqDbAxFjsxtFp2sfgiv8uIZI19qR9ZdrmmkCLJTJGb6huStcjmWJ7KY9E4uaY9uhf5zH3mPhg4GBjYGEJWF2wA5MRBizzkBXJCy8IOAYFknD591/aPA5ClleyQvarvZIPYxnRdHvKBX289J4gdOWgMX9RHujpu9bvdMVstXffFuFr1D72ouc9RlaUOHj963ud6iv3mz5/sv1Dvu0rExa7WGJnRmOtq58rJm86HHg3ix1vZG/NXZcd8S3YKIVuU56JxjynHB+OCnHnKPAUDRxcDG0HIICws3hWQLNyQjEqE6Jeej9GPfS368nHp0vv9+s/uDvYZf/31H/Tj0ofQtWJzX73CJ//g1/PwGCQGKfGY0WsRMny14vD4ZVvn+G7ZYoyYPBbGaIcIGbVDjviow8WLb+34dSu+au5DsUNYnNjgS8SoPkbUeX2k53JOxthVatlo+ZPfZQgZ8th33+RAfmMkz+PHlue5aBxfaY/uBT5zn7kPBg4OBjaCkAUw+wuYuqPlBC5zsb9zkXqn3sFAMBAMBAPCQAjZEfy/LJ2Q1Z2uXBhyYQgGgoFgIBgIBvYfAyFkR5CQ5YO2/x+01Dw1DwaCgWAgGBjDQAhZCNn2983GgJKxXEiCgWAgGAgGgoH1YSCELIQshCwYCAaCgWAgGAgGZsZACNnME5C7jfXdbaS2qW0wEAwEA8HAQcFACFkIWe6KgoFgIBgIBoKBYGBmDISQzTwBB4W5J87cZQYDwUAwEAwEA+vDQAhZCFnuioKBYCAYCAaCgWBgZgyEkM08AbnbWN/dRmqb2gYDwUAwEAwcFAyEkIWQ5a4oGAgGgoFgIBgIBmbGQAjZzBNwUJh74sxdZjAQDAQDwUAwsD4MhJCFkOWuKBgIBoKBYCAYCAZmxkAI2cwTkLuN9d1tpLapbTAQDAQDwcBBwUAIWQhZ7oqCgWAgGAgGgoFgYGYMrI2Q3XTLye6V1y52r7/5dnf/g48unOizZ891er3z7ntN2UXjq2bA+FNMOsb+sWPHuw8+/KiPtf4zFDu6u2mJYx22dxOPdC5ceHVH6qqH6rKsPWp55cqV7sw9Dyytv6w/5E/celu3tbXVv3VMf20dw8Kyzq+/4cbu/Mtv9LgWtnmrT2PVxtRzfUaeff58d8211+3axlRfy8qR8+2n7lw6NnSV2z//yZ/uc6RmtNRWcSl/yXLNkE/kaF1+Si7YHNOXv7Fx8kCmNVeSefGlV3ucEPdualZzchziX63brvE98eQzk+eq6rbq6/hE3v17zNRSNfrZ23+x/7woB8kormVic7urOCb23eIRfZ8HHYPXZWNULepcYoMxjbeuL2CMWKhrxTvjtHfdfX//GWthGN/LtppfYV/1QbfitlWjMRlwpLhXGSvxbWK7FkJWAdECUy3GIuKxaNztQRjUev/UYxZsWMdUQib5VROnZfKekp/i08tzmqInGQgUdfF2N6QKe7vRnRpzS475FSlbRMiEXRYT2eKC7IsReN/LRUMXn73ot/JcVV8r5ym2qUtdKOqFWeeQAHSQUZ3r9YOLOHbHYsGey8q226zn8kk8sk3+xITNOl9VT3FW/IzFOjQmu9WXyw7F5zm7vB/LthY8ctMY9fU+18GfdL1fxxqDlNYxnSsm4hqz09Ldax/zhn/Oa546Z/6rTCtmZBxTU2KVH0hSraVi9DmXrNuXPDHKFzFIj+Nqs9qQLLWYEu+YTLUNhoiBukkOO1NkJCsdrwX6h7HdF0LmwBkq4iqJx14JmXZrRBJaC/YQiRjTGcp5Sv8q6yJ/eyFk1NXrQj1EzpbdKUP3oBMy1VUXHr9gTplbl9nkiw4XUy6uHvfYseT9s89C4Rdl6bv9KjNU13oxH4qjpS9/kAb37TZ8PmSjLgjyD9nSosbC6vnK3ioWPfkfWzg9VnIYyotxtcjU+dBYq27ooicZ+mhVl7pTwphar8eYHddZ1bHi9fmpWMOPx1VlfAx5tciNzZPLg9+7v/JQjyOvpWPLdbx2mrPqizk7/jMnery6zZq77A75cZ9jx+QM9v3657Fio/qbIiPdFr6xedjatRAyFQnA1buvoQIuIh51HALELg2LOqSBficP7rvK6Vzj1a7syDe6QyQCPcVx7tw3e3Ki40uX3u9DYecMOeKrJKaOQ6DU4ttjoi5up9pgDFvVNztG9Lt98kaGOtOvto7h//Lljzu93Z7HwLjbxBaxELv8TLXr9qTndZNd2RQuwIY+8H6hJrd6AVF/64LMhYkLJHqPfO3xfqH2fvnhAuYLYb3o6Fxy6OIDXfqJlbb6lnzNrdqqZIMc8VUXjTpe7ROLYnTb+PW8vabqrzIsMvKJXVrZpw7SHYoDeVrJEteQfe93eWxQZ7X0tRY9t4OcWsXt8VJT4nJZ/GvBY05kVzK1XugN9TOudii2ll1ikF1iJQZs6pz41CrHWifmDBvI+2LudrxG8iP9p771Yj9/jFVb9BMXrXS9vkM1wp5yrjKM1dzlQ33kId2hOLAhGY7dntea2NV6f60rcSpH19Hx0Bj9sus6sq3Y3ZZkNFcep+tonNxbOUnW+/3Y7bT6PW+XPYzHayNkyxYLYqEFu6Xr43XRZvHWAvvOO7/Lad+y6LrNSsZQUD+LPn1qW4TMx/24EifG1N+yrXFIx9C4ZKpdYqIui2xo/P33/4hw+lZ9p0/f1fvfMdB1/Q6h4qFuxNaqp2QUn16KB1m3qX5kvF/HEKiheR3LbcguNisZc9/kog986+JZL3rKkwsGCwmtbFArLmh+8aePC5pa9+kXHR1zcZPNeuHk3C+YY77lC3tVl3yIv57Lrvz4xVjnyGtc9mss+HG5Vp/0JUMtqozHTo600qPGboNxb6m/8vBY3UaVV82kp37VRbEhIxv4pq/Oqfql73aQVeu+Zc/jcjn1M3/YVL3kj/nSsevoeMymxt1/1a36LjvmU/n6DlnN32Nq2anzXWsqfccicSo+cpCO5DhXW3E11Kd+2RrCYytm/HiuboNx2kU18HF01NbaEAvXII27PMdVj361Q76wLV3Py3X9WPmC0SF5n4MpMtiX7fpZY+ywtQeSkLHgs1BrUi5efKsnAjqGcLHr5ZPGos+CrTHssUBz7vaxMbbAi3BIzmU8BggJfS4nYkHc2JEtdNRWeY1LTy9iRd59qE85SZ9x6UmfepC7+qTLuM71piYux5hat4us1xg/3lflav413yo/FJfbQcfjpmbe57lw3Lpo+IUKObW6sHHRGNLzBb3a4aKjXTUubNhvXVBbfZJv+fYLoY7lG9vErvh13LLrsWILebfjx+goL/rRZQGhZfGTHDLoteLBHjWTDn1TWtnE55CNVh2xLZ1KCjTmdpGVHcgTfd6qjrIFdnxs7FgxSJc6y3eV1/jYPA3ljh3Xd9kxn8p3t4Sszr3iqH0ek4+P5Sk5YlYe5IdtcEgLNtw+ethp1XsMM/iUnn++W/Zqji1dxeN2JCO9Fo6G7I3paAzstrBOTLQez1AdqLdkp8i47VZejB+m9kASMk0ACy07Hr7QsyCrrZOFHgRG4yz82GjJYKfK0u9tS6bVJx2P1UkN9iAPGsOGcoYwMa582O0iD2x42/IBWaKWbh9dZFq261irfq0+8sEmsXkcHCvPlg3yR85b2WNcxzWXVRIyv8D4MT5pdXHkwu8XOl2kWv3Sq2PI1QuyZId814uyFgbsqNU4vurFry4aXFjRb8WBjGIn91YfY7RVpi5gyKmtOfnY2LH7GLI/1M/8abz6UJ8v5hofmg90paM6ep0YG2slr3nil6tV33McsjOUo+SrPv7UX/Hg9pXvbgkZdsGVt+TXmnNiRX6deCTGoflv+aY+NU7i9VZ2vdboqqX/+GdP9GSsxtCKDZ/Uz+3puFVPZNAdywlZ2UeuFYfkvN+PsVFl6CdvxUPfYW0PLCFjsdXEQAhYYJ3k1IlDFhKgcRZ69Dl30oadSiLo93ZIBsIBUUROJELEgbidPKCjtsrLJzrEijw+JPPaa9/f/jUh4/JHzJJFHh9eH5dTrNRJ/cirnxha9RurO77IhVhkX3ryoeOW3Vaf5KXnOh4zJM37JFvfrcV06EIiWXZCWnq6eOrCy0W02vGLjl/cFJN0KkmqsXLe8s2FVXbxqwsxOn5Rli8urIyjQ+z6TplfHD12dNTKrsftcbicH1eZVjyS93q7fj2uMWjcfdTc0K85oVMJF/JqFWsdH4pf8vIt8sJ39JST28Om44Zxxccc1lixrXlkztDzltyl7/06rnG7D/RatpXDbgkZNW7ZJT7HKn37iceh3ImdOSG2RW3LXuszLDvk3tLROP0+n2OfE2J2eY9X/fhclJdk/bqBntureU2Rkb5s+3XEbR62440jZL7DwbEWUBZREQqOGaeFELCwq7+16Po4umohAq1FnomHgEAi6Pd2SAa77lPHxD00LhnlLR8QqmVtUAfXl1/9AEG51BfyrbyqrM69HuRBXthw324DXUibj3GsOV/WrvwxF9jxlhz1ga8LqWKuFxD1cdGri4YuLlyQWnr1oiJ9X2jruOxxEWpdON0f9SVm5YKu+mR7KDbykT3PTzrY1RixEjfyktGxn6MnWa9rKw9kaauMbBA7Miwy7lPxuq8q6/lUWZ27jxo3NfKaYt/bqkcuHifyjBGX2iH70p8SH7awjV/1t2qjWBSz5hZd9VFf79Mx8VEP6ZIPrXSnEjLidDs69lxrLMqJvDx+76syxCbbXgf8e57I0laZVu7IeNyy6b6wV9uWPckoB+qtc9lz+xr3c3Rqn+qnPrXVd62Hj/s8DMXo8jU+5k12JIcNr/UUGelKx2vhfg/b8YEkZFqYtdj7i8VVE+QLu/f75FVSBhmTzNDCrzEWeEiE2+R4TAbbxF5JSx2HxKh1/+gz7naqjaEx9d9738PbvwTF5lhuiqHWzu1rHP+1X2PEK19TfmXp8zfVrmyLwMmf3swH+Sku2cW2PvCti2frYsaFRYuYv/1C2NLjoo0OvxRDr1508MOFqOrTT460+OYXnvJXc5Mv4pD/x84+tU24ZAffyLCDUy+ujA/FQswslpzLP/HWtsrIJ35oaz6yMTSHrXyoufv2mlT7PkYMtNREtnTsuvUcf+TodaOvFZv0VEN8ug9s1jmj5hofq43Gq27LvmwQL/KeO3EIf1MJGbEpL/cpu+Sq1v0oL8+tFT9xEhMtNUafc+WGTG2rDLl7fDquNhbVHD/Y8xwZU5z4aeFCPhhX25KRXa8ttsmLWtCvlvp7TPTVPNFTf/UvLMg3MbZ0p8hIb2hO8X9Y2o0hZIeloMnj6kd/B7UmfrFoXdQ2MS/FrAuj2k2IjwXnqFxQqTkLmC9qjM3RinRvCibmyB+fRxWP5K8WMrbpn0kRMcjcpsfq9d3LcQhZ47tDeylodA8PITuIc7lphOwg1vCwxaxdkNZOyGHLM/nk2nvQMRBCFkK2ETspB/2DtCnxh5BlUdoULCaOYDEYWA4DIWQhZCFkwUAwEAwEA8FAMDAzBkLIZp6A3EEsdweReqVewUAwEAwEA4cRAyFkIWS5KwoGgoFgIBgIBoKBmTEQQjbzBBxGlp+ccvcaDAQDwUAwEAwsh4EQshCy3BUFA8FAMBAMBAPBwMwYCCGbeQJyB7HcHUTqlXoFA8FAMBAMHEYMhJCFkOWuKBgIBoKBYCAYCAZmxkAI2cwTcBhZfnLK3WswEAwEA8FAMLAcBkLIQshyVxQMBAPBQDAQDAQDM2MghGzmCcgdxHJ3EKlX6hUMBAPBQDBwGDEQQhZClruiYCAYCAaCgWAgGJgZAyFkM0/AYWT568rpmmuv65761oud/r/GdfmI3dx5BwPBQDAQDMyBgbURMi2ar7x2sXv9zbe7+x98dHQBPXHrbd3W1lY39jp79tyojWWLd+aeB7orV650H3z4UXfs2PGmbWSIS/LqW9aX7MvPbvUX+btw4VVC7FZdp0W+92v8iSef6bEkPOn97PPnOxE0/F9/w43d+Zff2Jap48ipFR6xQytd2UDO8SuZFoanyGAvbS7wwUAwEAwEA2MYWAsh00KpBXFosasBrYKQvfPuez0pmUpIIFtDhMxJzjbb+eRAYzWHsfN1EjJsE6PqMBbLpowtM18iY8KTCJN2yL5w8lR/DomCjEGawN8QKZM9ZFv1gGjdfurOvpbVvnSmyLRspy8X5GAgGAgGgoEWBvaFkGmnTAtYK4DaB8FYdjdpmQVePscIGWMiOU7wIGnLxrbbnGptWuceq+LVTqMIbkt2k/qmzhdkSOTIH1nq+JGvPd7dUs3IwAAAIABJREFUdPMXO41V8iW8ibC1cCdCBtlq1UTjevtYtTdFxvVznAtwMBAMBAPBwBgG1kLI5FAL2NRHlh7gEHmpu2hOPFjc2SVi1wtb9DuRgsgg6zFgr7UT5mPYl91Ll97v3WhctpBT5+XLH/dv919lfGzMrsfpNp5++pn+saj8OYkkT2KgFpLxGIkb+5BP5L0WjKHD3JDDkE9suF/Z1xzc/PmTPamqxErxiPz4DlklWdrtqnqVQJEXu2ey2drBdQKIjlrv9+MhGe/PcS7CwUAwEAwEA4swsDZCtsjx0LiTES3skmPBhxzQQspaC/zp03dtExTk1aIDaaiEDP+SdWJDvOrTSz5dtu/8pL/GwxiERbZaMowP2SUGWupCTsTmOZEnMYy15AvhqrIQKsaVg2IhDuIf8sl4zX0RIZMPJ1AiUnWHSyRJZIvaQOK8T2OQKY0jK0LH489FRE6yU2SwnTYX4WAgGAgGgoEpGDgQhKwSACXGog5J4BxS8aU77uz0pghDpMHJi2SdDGELG2ohPfLnssRR/UgHggIh4RwiJRnPsWXXY+DYY1HfmG98ISOyRczUTueME6vs1ng91pbfKu/5UFN8ck5OY63Ilb5DJjImAlV3xdAVaWqRNsZry66Z7E4hW1Nkqo+c54IcDAQDwUAwMIaBA0HIWot3JSMtGSVOP7s9EA1IQyVkrgNh8QJiT2MQDWxKrmW3yhE7MXkr+1Xe/fsxsbg+x8Re42nZhmCprfLyV3WQl3+NVxLXskGsELB67nkNHUPIRIjY6ao7Zeyk1f4hm+qHkInIDdn1fj92u0P9LpPjXJCDgWAgGAgGWhg4EISsEgAlwoKuMT9nwYcUQBoqqWC8RcgYE7nBnnwQBwSs2pRMJSfqwx56nLtv2ZKu5Ft21e9vbEDAaott5Dhv2SYvtWPxs8uGPLXFx1h+zBf1rOeemx+LLOnL+2rHCBmkatEPSETYeDyJH3QhcZLxR5qSq7tiU2Swn3YndlOP1CMYCAaCgasxcCAIGSShkg4IgiaWBV4yIh/f+c73qvj2uWQhERCVCg5Ix7aSHWhM8i1yU2MxtR1/h8zjdRn1D9n1GImPWBhDVzZFfmqejEOepFdtce5x6Rhfstt6YbP69JpUQiY7moOhL/WLJOnxY/1Sv3azeGTJzhTn1IKWcZEoP2Zc/a4r8iViB0FDRz7RmSKDbNqrLzypSWoSDAQDwcBODBwIQqZJq6TMyZjGIQEs8CIeTnokf/HiWz2PmELIqk0pQjgAUYvcMOa++YVj1XcZ2YesjNmVfWpR7eEbQiWic+7cN3f8AdyWbeQhXLJDX18wI2PVh8blR/UlHubCyS65kiMy6A8RMvyJNPGrSAiadrY0znfGfJxjkSoIlWxInnNknIzhD8KFjJOxZWSQTbvzwpN6pB7BQDAQDOzEwMYRskzQzglKPT6thz+yXLYuIliPnX1qe4drWf3IfzoPqUVqEQwEA8HA6jEQQla+mxWQrR5kc9dUZGzoj8TOHVv8Hz68ZU4zp8FAMLAbDISQhZBl1ygYCAaCgWAgGAgGZsZACNnME7AbFh2d3H0FA8FAMBAMBAOHCwMhZCFkuSsKBoKBYCAYCAaCgZkxEEI28wTkDudw3eFkPjOfwUAwEAwEA7vBQAhZCFnuioKBYCAYCAaCgWBgZgyEkM08Abth0dHJ3VcwEAwEA8FAMHC4MBBCFkKWu6JgIBgIBoKBYCAYmBkDIWQzT0DucA7XHU7mM/MZDAQDwUAwsBsMhJCFkOWuKBgIBoKBYCAYCAZmxkAI2cwTsBsWHZ3cfQUDwUAwEAwEA4cLAyFkIWS5KwoGgoFgIBgIBoKBmTEQQjbzBOQO53Dd4WQ+M5/BQDAQDAQDu8FACFkIWe6KgoFgIBgIBoKBYGBmDKyNkN10y8nuldcudq+/+XZ3/4OPTp7oM/c80F25cqXjpWP1Lcs2jx073n3w4Ue9rd3oD/lbVXxD9tfZf82113XPPn++nxPNC+8nnnxmqfpqbs+//EanVvFKf1kb68xTeFOeynedfmI7d8HBQDAQDAQDq8LAWghZXfi1eF9/w40LF8cLF16Fh13VamyZpNdByM6ePXdVXHQQHzlwPiXmd959rzcj+1PkdyvDvFSCLDIl8gzBWmS/ErJF8vs9HkKWC+R+Yy7+grlgIBjYKwb2hZBNWex958mJCQRn2Z2ydRAyiJOTLUjaxYtvdfJJvC6zaJKw63kv0tnN+BAhky2Rsqm7SiFkufDsBn/RCW6CgWAgGBjGwFoImQquRXuZR5aQkhaR8TEnWpcuvd/vLGlcPpFT5+XLH/fvSuRcxsfG7AIgdFsxSgYyxq7Z1tZWd+LW266KTeOQL2yio8es9973cCddjw/bkpcv2ZWMv7CpHaIWCR4jZJVkIdt6rFlleWSpXVDthrZ24CB7yGDXZdnZeupbL/aPU28/dWefq1rkW3lJj3H5eeRrj08ml8xt2uGLRGqT2gQDwUAwsH4MrI2QLTN5kCEnKq7PLpTIiMtCRtRfiQ1jTmpaMowP2fU4fBcP+yJQ0pUcpIkxCNmY3zo2hZC1YpVPchFBaREXSJaTIPKDKIn8VDnO+Z7YECGTLelDvnTusu5DY5wTD8SKc+z5I2/Z99wk6+Pyp3GPQXbyTg2CgWAgGAgGNhkDB5qQsVPFbhGERAWHPNHHOSRJMhAokSInOdgdmjhsQbzUooNNzhXbmTP3bxMC98OOFqSM81Y+2JUs4zUX9Ifihlg54UEWciTCo7eTHMl4n5MsjbFDpmO3o3P5ghz5scYWjbfi9T4/xl616f05zsU4GAgGgoFgYFMxsBGETMWBlEBkvGA+BqGBaEkOguS7VVWOXTYnURzLfpV3/2PH1TfEqeZBPz7VQqDIj3MIl+eIvmQVDzIte0PxDhEYyTvJEnHiEaC3kDSXla4TMj/Hn8gc/W6P4yHCBrlDzlvFyDj25UPvFvFjLG0uxsFAMBAMBAObiIGNIWQQGycqKhhEBHLSIk6QE2Skhz36OK+kTbqSb9n1CWPcd6U0DtHDLvGq1TixMa6+SsDqOTrE7joQMtnHB7G5vHTqG4IkwlLHRKogRiI4HFc5nS8iZBp/8aVX+101tSJO0pNfHnu27FYiRbyVcKHLeM2n2kE+7dWYSE1Sk2AgGAgGNgMDG0PIBAjIjO/6cLyIfEBqkKd1kjIko/5FpAbihd3asrvlOYi8Pffct3f8XTXXg6R5XOo7ffqu/m+ouSzHkoVc0kcLWRQh8e9Z8WEbIjAiSS7fkpPM1B0y9LWj5QSs7mghB/lrESmRMfwqD5E9xQoJU9saxya5p92MC07mIfMQDAQDwUAbAxtFyDRJlWw4odL4GHFyYjPlV5YiMhCpMbsOHidc0q/xsbulMQiS60j+9dd/0HMoCJnnTJ/bkY7/olRjnPeGShyLCJk/+qukiVwhS8g6wVm0QyYbQzFAyrDrhE067odYRMqQV1t3zKTHuPTzK8v2h516pk19goFgIBjYPAxsHCELSDYPJJmTzEkwEAwEA8FAMLBeDISQNb5rFdCtF3Spb+obDAQDwUAwEAzsxEAIWQjZVV/wz4dk54ck9Ug9goFgIBgIBtaNgRCyELIQsmAgGAgGgoFgIBiYGQMhZDNPwLoZd+znri4YCAaCgWAgGNh8DISQhZDlrigYCAaCgWAgGAgGZsZACNnME5C7ls2/a8kcZY6CgWAgGAgG1o2BELIQstwVBQPBQDAQDAQDwcDMGAghm3kC1s24Yz93dcFAMBAMBAPBwOZjIIQshCx3RcFAMBAMBAPBQDAwMwZCyGaegNy1bP5dS+YocxQMBAPBQDCwbgyEkIWQ5a4oGAgGgoFgIBgIBmbGQAjZzBOwbsYd+7mrCwaCgWAgGAgGNh8DIWQhZLkrCgaCgWAgGAgGgoGZMRBCNvME5K5l8+9aMkeZo2AgGAgGgoF1Y2BthOymW052r7x2sXv9zbe7+x98dCHzPnv2XNd6XblypTtzzwML9dddqHXZv3Dh1R1pf/DhR92xY8cPVL4+15rvZ58/311z7XWz5iDM7XccTzz5TKf3urASu1kQgoFgIBg4vBhYCyHTYqzFUIuz3udffqO7/oYbRxeqIUImtnJQSRlkS23rQ/TOu+/tIGOceL7IqD4tG7XvxK23dVtbW/1bx3V81eciPiLeImXYFimZMufIr6NdhpAJm4r39lN3buewm5hCyA7vhXI3eIhO8BAMBAPLYGBfCFldsFsBQshEQHwcQjJEalx2047HCBnEycmX4le+6nv66R/vtJD/JhIydsYqkYGQz7lbFEKWC+GmXQ8STzAZDAQDYxhYCyGTQxbrZR9ZDhEy+iFu7CbRD3Fx4gYh0hh6eiSoHSS9RHweeeTRTn28XF95YINxiJEeK0pPNi5dep/hvk9jVU8+fcdqiJD5ZJETxnmciW/6IXXYpF+t4vDcpev65KPHwrLDC5uQq9bjv0WkRztPPLqULDumlaBj56lvvbgtI5KnNzrunx2tR772+PZjcck5McQm/skDe5BFbNHvO3vuv8aseZIN9Ngdw67PY45zEQ4GgoFgIBhYhIG1EbJFjus4pAFC4C3kYEhGpAMyUkkLRGhI1/3oGF+Kr5IqZGXLSQ39tNKrusTheVcZ6asPmRYhO336rh0EEp+y/9hj39gmm/TLHrnX2khGY9QOHVrZPHXqy/3jZydExAcJ4XyolZzri+g4wYGsQaggQuhApiQnH5AoJ0+6AdA5j06dkFV9ziFP2MO/fOjY7evcY27lJHKGzaFapD8X5WAgGAgGgoEWBjaekDlBEnnwJCA0Ii7qh8BIDhLCGOeQEt8R0pgTLJ1DUqp/kRXZcGIkefmv8XCu1uOux8hBhNyn5yS9L91xZ//GRo2TcyeANfeaK7WgNrJ98eJbC39MIfKxiIC0yI7sSw+C5eRJYy0dyeCrNY5NZNxmJVeS9b5qD8JGfJL3viqv8eqfvrS58AYDwUAwEAxMwcDGETII1FDwkAfIi1p0GNO53k5sICXItoiLxvSSLLbcD8dOyMZ8QLQWETLPtep4TC5HPzERRysvcodwVUImuzVf7LnPeuykp45xXneu6BdxapEnjbcIzxRC5vHUYx4tessOWPXHuctyLLtTciLPtLkQBwPBQDAQDEzBwIEiZCIhThQgGupXsk40RFQgIBqrsi3iAsmRbGtc9tXvvsbiqeTKJwQCROyMEQMkjnPFJJmqR87E0Yqb3KkHMqoRduWHY8Z9l434vBUx0WM87TZ5P7tJeuR4/LMnmr9gFBkTuZGekyedQ4jcrmQgcK1x6Q2RPNnh8afHyXG1R/zuH1m1VZ4x909f2lyIg4FgIBgIBqZg4MAQMogHO0LeQkaUMCTIyYb6ISUQoBbpqOTHbbm/ZXfIpFvJDb7cLscu63Ly+53vfA+xq1rJkheDygESR5+3qgu18X4dy9/Nnz85+B0y1VVEyb9bpT4RE3afkHFCJKLjOrslZO5jzCYES34UT42RcSdgOnb7kE9sKMeak3bR1I+PtLkIBwPBQDAQDEzFwIEhZEqoEgt9z0nkxQkZhMRJjXQhHSItOm/JQX4kSwErKdO5xiCI7nvIh8hNjcdtOBFiFwv/njNjxIld1UEvcvOYiZfYJHf58sf9W8fqlw/Z9hfxQlacfBAbLWSFx3otWREZxp2MycZuCdlefmVZYyQ+j02kjJjVOmFT3CJfjOuYN3VJmwtxMBAMBAPBwFQMbAwhmxrwkBwECVIBERmST//B/ZAMPTLMnB7cOc3cZe6CgWDgqGPgUBIydoqO+uQe1vxDyHLhPqzYTl7BdjBwdDFwaAhZQHx0QBxCdnTmOp/rzHUwEAwcFQyEkH3yJe+jMuHJMxe3YCAYCAaCgWBg8zAQQhZCtv0DhnxAN+8DmjnJnAQDwUAwcDQwEEIWQhZCFgwEA8FAMBAMBAMzYyCEbOYJyJ3P0bjzyTxnnoOBYCAYCAbGMBBCFkKWu6JgIBgIBoKBYCAYmBkDIWQzT8AYW85Y7qaCgWAgGAgGgoGjgYEQshCy3BUFA8FAMBAMBAPBwMwYCCGbeQJy53M07nwyz5nnYCAYCAaCgTEMhJCFkOWuKBgIBoKBYCAYCAZmxkAI2cwTMMaWM5a7qWAgGAgGgoFg4GhgIIQshCx3RcFAMBAMBAPBQDAwMwZCyGaegNz5HI07n8xz5jkYCAaCgWBgDAMhZCFkuSsKBoKBYCAYCAaCgZkxsDZCdtMtJ7tXXrvYvf7m2939Dz66cKLPnj3XtV7vvPveQl1nnNiR3rFjx7sPPvyou3LlSnfmngeWsuM2V32s2PylGBXrKv3gY2trq7v3voc3pg6aB83HOnIeqp/wJxzynoLHIVtD/U88+UxvX63sP/v8+e6aa69b6ZwO+R7q12fw/MtvdGqHZBb1L8rl+htu7H3cfurOXftQDKuysyifjGeHIhgIBjYVA2shZFqItCCxAGpR0AV3rAgQKScqHItUnLj1tlF9bGNnEwkZBJG8vF0mR3IdaqmB7M9JyDRn8u+57SchA4dOjlj4RZyG6rdsvwjPiy+9uhDjy9rdq/wqCJnHQD2d0FLPvRIy97Mfxwc17v2oTXyEsAQD82BgXwiZdsoW3aVDIkSkAAMLuoiF9zPealt2WnJz9F248GrPwZygeI4aX0Vc+Jlas1X4bNkgN8+3JbeuPhGH1s2AsChMropEyI6TvnXls6zdELLhi2oI2XBtlsVZ5FPLYGA1GFgLIdPksOgt+8iykggWdX/syC4LO0yu44SMHSnpPvfct/udGrfDuOxIT3HLFq+WrPouXXq/F9FjN5GNlpzblN1WHoD4kUce7R+pqlVMyBKHExpi9jgkxyNAyJjr1keW1O/y5Y87vfVS/uROi13FJX96ea6Kn3j6QRuvOWhcseGbeGWDPmy0xjxWbEmXhbXueLV2c6g37Wd+6nP9nCPLjq6TK+w/8rXHtx/B+w2GSB96YN0f81V9bCvep7714vZOMjbd3lBO+Kvj/pmTvbu/8lDzkWUlqiKUTlydyJHLP//Jn96OVf6Jt+bnY9TZW89PsuSAHSfJLqu6aQ6oH/JD8yKfQ/OKLnUkd8+bmBUDMTIun63YsScd9NOuZqFKHVPHo4CBtRGyZYvnRMp1fcGXTF28WcQhZW4HXUgEZEWtfGALXSci2EUXW/SrlTz+hmySC76cXDHmbYvIyBd6rTiISTGQI33SGyJkyKhVHq38XYZjCNNQLPL52GPf6GNGR61iow7Y4NzldLxonHlhcWXRpJb0+wLPmLfI+SIqW3Xh51y6Pq7zukMmW8hjn0Uf37IBqVGfdFqLPPFDLoiTc/KGjFV594FvYkIW336OXc8Fn8Qge9giX/XV+uBXMfqjXdkTKVU/djwGrxn54Qd5zqtfYiUP5Imdc/xJXz7kUy0xSx4bNQbJVDuc4wc7aUMogoFgYBEGDhwhgzRAgCAwLNAQJMlBGBhDFnKDLelADBhT4SA3bgtiQWHHbCKjtmXfxzl2n/QRp8bISXEobslUHc7Vahwd6kAsnLf8uF1qgh7nX7rjzk5v9KkFdjlHXnLYgHB5bhonVvJDHht1HN+1ZWH0BbfK6FzjvvCrT7oiDlqAW3aqjs6dGGgx5rylLx9a5Fnodd4iAxpnYa8+a+zuU2NDNhnDP6RIxEh9EBn5k6zbZYyYNN7KrxWrZNXfIojVTsuPZBTfWF3dr2woNunxJufqj/HWHChX6UlmaJyYsOM1oy/tp/OQWqQWwUAbAxtPyFjUtcifO/fNfudEi3V9QQLGCJlAAAF44YXv9js4LPToVbs6d0KGHwcUBAibkA2X8TxEMnyMR5YeH2RLfcQ2FIePS554FhGyGie1wXe1Sw7UjBzQo3bUqCUPwZLv06fv6ucTeex5/C4vMiYZ/BEnet4OLeouo+PW4ukkw4/R9YVffTr3RdlttvSl4+RA563FXjKypXG1PBLzFjJZ7Q3ZVL/exPyFk6f6XSq1IqHkpnjwS26tmrbyw4bG8EerMY+f/NyOH6NXY2nJtPxWf5Crln5rDhQfOq1xjXk+HFMzjz/H7UUodUldgoEfY2CjCRkLOqRIk9ZajO+445e2L/xOIthN8QWfcciD7Mlua+GXvmLQeMsWIEIXmxAhxmkhGk5oPEeRlIsX3+rNEJd0yVn6rTjICR38EEfVId69EjLs4Lf6ITfPFx18e27KFRsqgvKq8l4PjVPbVqvFFMLi41pYtVOj8dYirsV6E3fIxhZ55VLHWwSCOpBj3RkTwXA7bnevhEzxiPh5DJofzYETpJYf6XhsLo89n0vGIVPoc864dNBv1Uv5o7NoHDtpQzCCgWBgNxjYOEIGqfG2taD7uI4hXU5OWNwZU4Hocx0KBzmottWPnttCjzHpeayM07pc9YEeJGZoHBseh+csX/tFyPBbY9W5alZzUVyVYHFebUDYGOdc+TFP8s/CyqJJrdWysDvBqPLIaOFFV7bQQd4Xbl/4paNz5HXuJKalLxn58Jhbi73GiWsoTgin9EUyiRP5oUeExKAdHXTkS+f4rLmg4+Ot/Gp9pNeKx3OuduSD3KRPftS5ykvG/bptjSFPzYmH3F2GPnyiU222dLBLnJLJOzUIBoKBKRjYeEKmxbcmwiLNIu6LNSRhjERBWFwPHyz22JY9jbWIEDpq3a/3t47xj4+aYyUykDXZasVRfWNfbUuH+tX8yZ2cq13i8njQUS7qrzt8xKJxHbd800c9PC7GvA+fiq8utK16QzR4nOSEQvIsooz7Yop9FmnJ+8LPuevIPuctfelokWeh13lrsde4xzoWJzZEwJSH2qFfWUpWb9l20qO8KoHzXKQjGeqk41Z+tT74wyf6aiWr/pYd+UZW9Wz9yhJ9YvN8XF/9j519qreHDuOes8aqT+apNUceO3rIayzv1CAYCAamYmBjCNnUgDdNDsIgMuG7VpsWZ+LJReEgYUAE7aabv7iD0IjohOwExwcJx4k1eF0GAyFke7yLdULGztIyExDZfGCDgZ0YYCfQd7t4fMjuVmq2s2apR+oRDBx8DISQ7ZGQ5UNw8D8EmcPNnEPthvEYUG3I2GbOUz4/mZdgYDUYCCELIdvxWCgfrNV8sFLH1DEYCAaCgWBgGQyEkIWQhZAFA8FAMBAMBAPBwMwYCCGbeQKWYc+Rzd1WMBAMBAPBQDBwODEQQhZClruiYCAYCAaCgWAgGJgZAyFkM09A7nQO551O5jXzGgwEA8FAMLAMBkLIQshyVxQMBAPBQDAQDAQDM2MghGzmCViGPUc2d1vBQDAQDAQDwcDhxEAIWQhZ7oqCgWAgGAgGgoFgYGYMhJDNPAG50zmcdzqZ18xrMBAMBAPBwDIYCCELIctdUTAQDAQDwUAwEAzMjIEQspknYBn2HNncbQUDwUAwEAwEA4cTAyFkIWS5KwoGgoFgIBgIBoKBmTGwNkJ20y0nu1deu9j/58D3P/jo5Ik+c88D3ZUrVzpeOlbfqu4Ijh073n3w4Ue9D9nFn/o0tgo/+CAHte+8+9627bNnz/VD3rcKv9iQXb3kh76hFtlewf5ZZT2GfKufWq16nqtP/qPq1n9QrTG9pSPcnn/5jb5t2UCujh2m8+tvuLGvgddKn2H9B9/PPn++O/7ZE1eNL5u/13xZ3WXlFbvivuba63Z8Hlp5Lmt7v+WHctnvOOSvflYWzWmVnyPm+DycO0uHZV7XQsh04dMFUBdwvbXA6eK3qGgXLrxqlGDnocYW6U8ZrwSgErJ6PsWmy5y49bZua2trZ/CfnEFyDgIhU8jE6/mt+rjOB/VTDXW8Cn8svMJii1D5QjJ10cCmk5ZVxLqJNpTriy+92iSpu43Xa75bG1P1NonETI15SG6Tchn7rBylz8fQXKU/5G9ZDOwLIdNOmT68Y8FBhEQEfGcHkraqHZRKAGpMxLFbMsKOk+tjk9w2kZB5zSFFq6p5rbGf1/nA9yoJmUiTbgru/spDzZsDJwdji4zHfZQWHNVEhEw5ew32cuw134udKbqbRGKmxDsms0m5jH1WjtLnY2y+MhZStgwG1kLIFIA+rMs8soTItHbCfIwF28kCpE1yJI/OJ5tT2ySvEgDIkgjUuXPf3PG4VLo//OFbfZ8ThFYM8ostlyWep59+pt/xEfGBkMmnZHm1SBFjTvBkkxgYd5/kjj3OvWbExRiy1Tb95IY/6WFDLXbquPT1In7qrz6Nca7Ynnvu2zvqIRnwwBz3xsweF34t8B4Px+zWaiHzY8bVOjkYW2SQw2drB1jkj/56IyL9p7714vbuMeOKDZ2ah84ZUytZj52cqp7k2JlGBjsuS76PfO3x3o/GyE+5eD7Sr+PE4nLkxRg1dv+y43G4rNuSjs4Zl47XUOO1Jl5P7dQrtymPLKUnOdn3WPFdW7/GKWcIv/qR9VhadVlmfCwX+avzXHMeq2vFgfIHP+SyKF/mFPxQQ+zgg/osinfKXBNb2hCfw4CBtRGyZYrDoswiXXVZ1LXoQ0ScXLBYQxIqOZBd5PHFOURjiJDJN/Z1rNiIB7JAvPRDPuivLXKQC1pIFTnST4vdoXH0yV9+OKY2NRbG8eEt/qiRj+kYm9SnjqufXLFF/SWrMc7HCBk2qn355+I/tLjXRYBFV4sBtWAh0XmVR0aty+HXyYKOWXwkr3NfhKXv5yzGxF5tSt8XVY3rXK3HpZh9B8vtsOjJl3Q4x6d0FVP1ozzIbcw+eS7K2+3LrhZrYvBcas0Ut9uuNVwk38oPf14n9TEfnrdqwzl6arHLGHX1+VWsNe9lxmvu+HSbxIR/r6mOOR+yRfzYRr7aYxx5xms+6NfaUjPNpWwxrrjIQbqem87dvnz7OXppQ8YOCwYOHSETWTlz5v7tDzkLfosAiGhANiAM9VwT7X2yL1kInQMB4oAtH/PjKgfBwiYEB8JTc6jjsn3x4lvdI4882hPWSrKw4zFwXGUBqI9DAAAVrklEQVQhPa6DjPxKr8bLuPLSuOqleHRcc625cE7u2IZcygb5un/5lK7Gx9664LNISE4LQf0+lMaR0WLBolHtuhwLSl2gfIFh0aLP9WW75UsyyKt1MlLj4bz6UUzo+THy3teKoeYmmamETz48nmqLGGot6P/MT31ux3zW+Kqe23e/2FOrOvpCz5jrtuSG7LVk1ae6QhiqbXwyv4vGh3wP5eJzii/5+MLJU93xnznR5w+uGNe54tF5rbP63Jcfo191fG5a+bn8ULz+2XR78tmySSxpx6+Dqc/BqM9GEDKBhUWdRdcB5GMs2CzgkmPBlhx69EEw9kLIiE8+X3jhuz0Zc1/4hLg5mWCMR5Y6h6Rgo5IS8vXYOZYu4xAgfNAyjo7XChlaZGWLOKTHPHgf9mjdLnYY07l8kCsk1e25T2wxv7WGdT6xRx6tlgs4j068ZSGSnl/4fdGoNl0O21pYJMe5++CYhdD1pdPyJRnkJaNj7KjFX43NF0y3UfWxBWFrxUAu+JLMECFDFrveynfLvmKvtfB8ICPYguS09PCvWP3Y7XltvL/KVzniUL/rteJQn+fqx65L3ovGa2zYqDEu6tf4FFuteNwXceNPbdVxmZZPl3fb2Kw6bm8sD/TTHgzSkXkanqeNIWSQGS3oTjRYiOuCzbkmFzKglgXdF2zGWwQAv8jXc8ADsYBweIzIeCzYUx82patYsKVjjUNSyImcIUWSUV6S0zHj6KtPRFF+dEy+kkPW45EMb2TJh9icEFUZ6d5xxy9t25DfS5fevyo++cYe/pkf5rnmzrj7V5/01co3Nj1/8vFWi3RrZ0QLgxMMv/D7ouG2dOxydfFg8YbEVN2qr/OWL/mAAGh3QzLYaskzpniUk/z7LsNQDdBr2ay5Scbr5eOL8nZZfKr1Wnq/cncCVuOrem6fWKgfdluLv8ZcV+dVbsheS1Z9qjWxV9sa15v5XTQ+5LvGiF35hmTTJx+yM2ZL8Ui+1ll97suPsV91fG5a+bn8ULyOXbcnny2bxJL202t6anFwa7ExhEwggjxAeryFMLCA+xjHWqCd/NBPq0X99Om7djxyRB7CwDk6+IUoqB/ZFvBdDhu06FVCQU4QsjEb0h0aR98JFLYVg+pbY3ZZxuhTq75aE/KRP/0QQnm1Xop1SFfyGic+Yq+5KWbiqT40xkWahYUc1KpPC4n36ZgFSosCcuj7olH1fIGoNiRbFxnZ0gJNDK4v+ZYvYiYvX2Sr/VZ82lVyEkqcxCAd+cBuKwZ8Ux/JDBGyqXl7TLKrOBVHKwfvV9yQHGL38Rqr5MlN8syB+8dnS9flWrVDF7vUCFmPVbG4PckuOz41F/x7bXSMvnxz7HUh/hYOPP4p+cof/okH+/hUDLLFuHxQU+l6vdyeZOp8oZf24BKQzN3OudsoQqbJGVrAnUz4oq2FXLszekEgJMtL46+//oP+VMRhESFTDE4ARBoADXY9FsZq6zbk3HVkUy/iraREtjxHyfqO0aJxfBO719TjkJ0qq76WvPcpHsilYtfuXH25H/KVzOXLH/dvHau/lbt0eem7aJLTPPqL2nGRZiFQ/HrXxY9+Wl+4/cLfWpjQcTn1yYaIhS+y8sujNrW+IFX9li/J1EUKe+6HmLzFt/vUOIsfdnzRa8VATbEjmTFCJh/4xge6xKe8GKMOahmnxTeyj519qicSxIxulXd/zItsSG/ZX1mqXrJP3Xw+8KtWddGcyI/aw/ArS+VEjsqbuk/Jt84N8wBuK9aoL3PtvuSv2gMbPtfEmnbnwp56HMx6bBwhq0DyxZxFuMqs+9xjqMRo3b5j/2B+sDJvh3/eKjHQue9CBQOHHwOZ48zxKjGw8YRMyYoQsSOzyuSn2oKQ8Vhtql7k8mENBg4nBtj9gZSx29Pa9QsGDicGMq+Z11Vj4EAQslUnHXv5IAUDwcBeMSAyxuM2tSFjwdReMRX9o42hEDL7xWE+DEf7w5D5z/wHA8FAMBAMzIWBELIQsu0v8c4FwvjNBTAYCAaCgWDgqGMghCyELIQsGAgGgoFgIBgIBmbGQAjZzBNw1O8Ikn/uioOBYCAYCAaCgZ/oQshCyHJXFAwEA8FAMBAMBAMzYyCEbOYJyF1B7gyDgWAgGAgGgoFgIIQshCx3RcFAMBAMBAPBQDAwMwZCyGaegNwV5a4oGAgGgoFgIBgIBkLIQshyVxQMBAPBQDAQDAQDM2MghGzmCchdUe6KgoFgIBgIBoKBYCCELIQsd0XBQDAQDAQDwUAwMDMGQshmnoDcFeWuKBgIBoKBYCAYCAbWRshuuuVk98prF/v/fPf+Bx9dyLzPnj3X6XXlypXuzD0PbMsfO3a8++DDj67qPyzgnZKf6qG6+Ev1Oiw1WHUe11x7Xffs8+d3/MfPu/nPn4Xh8y+/0alddYxu7/obbuz96D+r9v6jfHwYa1JzWoSvKn+U8ZDcQ1aOAgbWQsjqgqhFTReXsYJCyEQ6RMBEVCQ/hbBUuxcuvNpzF7V1bNPOF+XndXFCpuODkN8y9V7VvIG/eiPwxJPP9DcJUwnWogVzmdzGZNe58IrkTfn8jcW3H2OaK5FozZ38rbMm+5FPy8dYTkOYbdlJX8hJMHA4MbAvhEw7ZYsWwUo8IBuLCEsLmKta2Fu2V903lt+JW2/rtra2riKX5Kcxyaw6prnskRdzv9s4xhY3kTJf+Md8hJDt30UvhOzHu7r1JmIMnxnbP3ym1qn1fmBgLYRMgWsx280jS+2OiWjw6HKIsLzz7ns7Nox4hMeizqCTljqGjuKtjwXx35qEId8e66VL7xPCjh0/2XP9y5c/7vRu+SNeyXsc8vPCC9/tydiZM/f3YzV+32VkDF8Epvw9FvdDP610ZPORRx7dfnzaitnlfXxRbciV2Jg3J6WMMW9avFpkf4yQVZKFrB5p1seai2Qhdux81MV0iPwhj8+7v/LQjkeWlZwQoz/SrDaqb+FF8vioudUxtw3W1Of1rfUgBnQ5x2eNacin5NBRq3NsPfK1x7evIx4LMbqu7wRWfeYKPdqhmDSODWLTfKLH2Fh8yKBf55l6/uztv7jjETt5ok995XssXtVCeT71rRe36+kxS1/nxEOtySltSEcwMC8G1kbIlp1YLbJ6aUHnWARAC7JaX9x90WeRViu9oYW99qMnndair3FIgefS8k1skA5seyv/stPSlxw2Wr7Q9TE/hnC5Px1DyobGq7zOVY+xOKsOPoZ0yGtRber8qPb33vdwn0P1iU0tQCxeXg8IjMa9X8e+yFU5zlnEWDDV1jHs4EMLpS/6rusxVD2NsUiy8LKwyqfG8c04Nuo5sbg/yThR0ZjkvE+xqo7YQx+/2NW4L+I6J+dFMUnW56rGoHNsyT/2vE918vOq4zbR9zzJi7bG5HNWa0ItwAb2PR6Pj3HFhL86z+4P+y6PDcUpG56fzmuMGtf8IF/H1e/xyr7O1RJj2nkX5NT/aNd/IwmZQAlxef31H+wgZJALJ0tO4LTws7hDZCBcLOSy7zrnzn2zJ0ROLi5efGvHjwukIzvsSOncSYbs1XPJEIvyacVBPh6b9PSmBuRBf22rXI0DH9SMOER0sF1t1HPywEa1Wc8VIzqyVWOq435OTMSJT2QgjTpvvVuLG3K+yGmBqgu299UFsy5cWmDrAs1iqMXRFz/8u336PCb1VV3yGbNddbBd/WFL8sjgk1xqP3mQr59jp+Xf+z7zU5/b4c9ri3/s6rzWRH2eS2vc+/zY8+G4VQf1Kc4vnDx11RxITzG/+NKrfWwt+x6fH+Oz6ngNWvG4fGtcdlVj5s3rrbGqo/GKd2JL276WpC6py35iYGMJGYsxuyMQFoiUFnkKhSwLN0SAhR2ygC1vIWFVBn/48Bb7bscJmet6vPjAp2xCVFwHX/jxXNHRI0uOZa/qo6u2+m35dHnZhZBBfjwPjdeaM+414dgJmceJDvnVGNwPttQSk8Zb77oQuYwvglqg/PENxyxaLosNLbTIqWUx1DiEZcx/XTSl5wuvzqsM9uQbPx4Dx05oJKd3JQbVF3LVJ/2QkJtu/mJPMNWKlGB3mZjIg3jrjpnH34oTnxpTXNLHlreSa+mTk9pF48yl6zgeWvoeX6ueVcftURvp4dPl/Zhxte7HjzXWsimZWiu3l+P2NSV1SV32AwMbS8iUPAu2FmEWcsgF5MvlIDp1Ya/kQToiJeqnyCIFLPQtecnRjx/1OXFpER1ykBz65CJ98vE+YkJe+Ssn+skPckIMyBAH4/ggbsbdJzaxgU1q4nkoDmJjHqoPyXiNWz6rzRqDbKiPmFo2qIm3rYWIcS20LPxaQDlm3FtfMFkQWwQMHclDVthJYYzWF236sK0x9Q0trD7ucWCn1VZ/Q7WRz5ZN5L1uOtb3lDzHIX1i0rgTMK9tK+daE8l4LhqXf9nBh7ctfR8nL8VFv/qkp3P1V2wwv5Jp2ff4/Bj7Vcdr0IrH5VvjxMm81Zirjnb+vF7unxjThngEA/NhYKMJmYABMXDyQJ8Ih78gDyzsGoMweJ/riKR85zvf867tYwgMAIV0bAvYgWRPn75rx+NV6VXSMRS754c/1zdX24cQlaG4iJ9xzlvEhvpgkzipac2jEjLFis52gJ8cqL/ls9okBqlp3p577ts9Ea/2mNO6yFO3uhDRr4XLSUFLTjKtHbK6eLFYshjKB/a0A+H9+FeLnhMByUpHi7hk6mIuWR/HBvL4rQRCthS3E6eWfcmoLtiTjL/xT8ySqzkuikk5ek1ky+dCNj3+aq8Vt2y4DnGpbel7TtjzGKiD7FZ9akwOdRx7YIdxaqbxOs8VUxp3eWwon2pf58TLeK0HMXs+xNeyp768U4NgYD4MbDwhY+GvhKUu/hAHgQkdFnadq98XfI1BPkRYRFb8xaJfwek2FJO+46bXVEImex47v3ys+blfz0e+WrKQLnKAfMkOY/S1yBF5URNipK6VPBFTrRN6xIF+y+eQTenK7mOPfaPzX6vW3LXQ+IJKzViIRBr8zWKKnNoq6wt8XTDlD3ta2B47+9QOoiR7yLBIui+OWWixVX99JzkWb8nol3yKy21WG63cZMfz89xkC/9q3TZx0mrM61yJAHJjMdUx1U41JCYfVy6ce1w6dkIhv9RbOXiMLX3i9FY2h+qADca9xoyNxYcM+nWeK748Fh2jX31gT62PqRbUUzky9+onZ8eV14vxtPMtxql9ar8xhCxgDBgPAwbqongYckoO+WwGA8FAMLB+DISQZZt+++45H7i9feBaOxKp6d5qmvqlfsFAMHBUMBBCFkIWQrYCDPC4yR8ZHZWLSPLMghkMBAPBwN4xEEK2gsU4QNw7EFPD1DAYCAaCgWDgKGMghCyELDtkwUAwEAwEA8FAMDAzBkLIZp6Ao3w3kNxzNxwMBAPBQDAQDPwYAyFkIWS5KwoGgoFgIBgIBoKBmTEQQjbzBOTOIHeHwUAwEAwEA8FAMBBCFkKWu6JgIBgIBoKBYCAYmBkDIWQzT0DuinJXFAwEA8FAMBAMBAMhZCFkuSsKBoKBYCAYCAaCgZkxEEI28wTkrih3RcFAMBAMBAPBQDAQQhZClruiYCAYCAaCgWAgGJgZAyFkM09A7opyVxQMBAPBQDAQDAQDIWQhZLkrCgaCgWAgGAgGgoGZMbA2QnbTLSe7V1672L3+5tvd/Q8+unCiz5491w293nn3vYX6u727kG295H+3Nlatd+aeB7orV650H3z4UXfs2PGO81ofxqf41xxoLur7/MtvdNffcON27pq3F196dbvP59F19Z9p41f6ssN4/oPt3OmBjbTBQjAQDAQD0zCwFkJ2zbXXdVqUWaDrot+anBCyTycMAgbh4rwSMp2LuGm8VVPvEyGbQpQk5/Ml4jWmB2FzgvbEk8+M6nhcOf503lOL1CIYCAaCgaOLgX0hZNop08I9BjQI2Tp3w1r+D9IOGQRNeWjnTOd6eX8rR/WNEbIxAi2iJYI1ZFdjsl3HtWsmu7U/50f3YpO5z9wHA8FAMDCMgbUQMhWcnRPtkrUW7DopiwgZBEQ7Qpcuvb+9WSRCha46t7a2uhO33tYTAfpFWNTP68KFV7eJQouQ0Ye87MimbPiOFDFJTjLKyXVdlnwXjUuOHTGIVj3HVvUv8qR6+24VsmOEDBm1kvMdMvT8kST2Rbr0ePMLJ0/t2BGdMt/uM8fDH9DUJrUJBoKBYOBoYGBthGxZAEGeIEG0kBInH4wNtSI98j9kU3qVQNXzalvj2IPQQZTw52QLfSdli8apGXbJvZ4jpxabimkRIeMRMm1r57ISMu2AOUGDaMsXx26H75OFlB2NC4hjMceZ82AgGAgGdo+BA0nIKnmCuECYhs4FFBEXvZCB0EgX4jO0y3bvfQ/3u2SML9LFl+Ratn3cQYwsMdZzlyUG2fL+esxO16LHiJWQVTs6l4yIGoSski+RNSdxLRvp2/2HNrVL7YKBYCAYOHwY2DhCJoLRAho7ZL7jBKGBjFTiAkFzm1UGQiPZljyPKiFh+Hzhhf+/nbtdiRgGwih8z4J/vTyvS0Z4dQh2W8uWtN1nQWKar27mdDnJRj+/5SzSlLbZGetpjbFW3t/zeI9jPnUzJzVW9Z/rf6XPFrI66P/2/vEtXvkKM+OWqJWQVZpr0vt9eIipmGIAAxh4HgMvIWSRpgInQpVrXcgiPpGvqh+RSv3UiXAtyWC1LWHKeba0Sz9jeeXzM9Yd82lbfdWr95k+xnSPkC19BZodsvwxgB2y39iN8y5vbjCAAQxgYAsDpxOyiE5PS5qyG7Rnh6z3ld+zo9SFrCYs+dRLmvq5j7rexe1R2+pzS3kCNgpY8rmXnvb5WBKo6nePkFW78QxZjdHPjI15Z8h88IRjKRYwgAEMbGfgJYSsdpBKnvLKrlaBEgGLcPVrqd/Lqrzy9YpodeDS31LbtfLqKwKWna/k02fSlGf8NSHLYf6ejme9StzGayVladNlbBw3dcYds9STbn8wzZW5wgAGMPBaDJxGyI4A75E47Rmvi1HfmdrTlzav9aCJt3hjAAMYwMAjBghZO7v1aKKqrAvZuGu21la5BxEDGMAABjCAgSUGbi1kS2/adQ8EBjCAAQxgAANnYoCQ/WOH7EyBcy8+SDCAAQxgAAP3YYCQEbKff7fhwb7Pgy2WYokBDGDgWgwQMkJGyDCAAQxgAAMYmMwAIZscACuYa61gxEu8MIABDGDgCAYIGSGzKsIABjCAAQxgYDIDhGxyAI6wbH1avWEAAxjAAAauxQAhI2RWRRjAAAYwgAEMTGaAkE0OgBXMtVYw4iVeGMAABjBwBAOEjJBZFWEAAxjAAAYwMJkBQjY5AEdYtj6t3jCAAQxgAAPXYoCQETKrIgxgAAMYwAAGJjNAyCYHwArmWisY8RIvDGAAAxg4ggFCRsisijCAAQxgAAMYmMzAF+mzwebY4DfaAAAAAElFTkSuQmCC;" vertex="1" parent="1">
          <mxGeometry x="580" y="30" width="612" height="372" as="geometry" />
        </mxCell>
      </root>
    </mxGraphModel>
  </diagram>
  <diagram id="JqyqYIQfvmxd-I8snT6a" name="Tasks DB">
    <mxGraphModel dx="989" dy="564" grid="1" gridSize="10" guides="1" tooltips="1" connect="1" arrows="1" fold="1" page="1" pageScale="1" pageWidth="1200" pageHeight="1920" math="0" shadow="0">
      <root>
        <mxCell id="0" />
        <mxCell id="1" parent="0" />
        <mxCell id="O0GSadilHtTorsFu36nD-1" value="Tasks DB" style="rounded=0;whiteSpace=wrap;html=1;" vertex="1" parent="1">
          <mxGeometry x="40" y="30" width="120" height="60" as="geometry" />
        </mxCell>
        <mxCell id="O0GSadilHtTorsFu36nD-2" value="Task ID" style="rounded=1;whiteSpace=wrap;html=1;" vertex="1" parent="1">
          <mxGeometry x="190" y="30" width="120" height="20" as="geometry" />
        </mxCell>
        <mxCell id="O0GSadilHtTorsFu36nD-3" value="Priority Level" style="rounded=1;whiteSpace=wrap;html=1;" vertex="1" parent="1">
          <mxGeometry x="190" y="90" width="120" height="20" as="geometry" />
        </mxCell>
        <mxCell id="O0GSadilHtTorsFu36nD-4" value="Description" style="rounded=1;whiteSpace=wrap;html=1;" vertex="1" parent="1">
          <mxGeometry x="190" y="70" width="120" height="20" as="geometry" />
        </mxCell>
        <mxCell id="O0GSadilHtTorsFu36nD-5" value="Status" style="rounded=1;whiteSpace=wrap;html=1;" vertex="1" parent="1">
          <mxGeometry x="190" y="110" width="120" height="20" as="geometry" />
        </mxCell>
        <mxCell id="O0GSadilHtTorsFu36nD-6" value="Title" style="rounded=1;whiteSpace=wrap;html=1;" vertex="1" parent="1">
          <mxGeometry x="190" y="50" width="120" height="20" as="geometry" />
        </mxCell>
        <mxCell id="O0GSadilHtTorsFu36nD-11" value="Start Date" style="rounded=1;whiteSpace=wrap;html=1;" vertex="1" parent="1">
          <mxGeometry x="190" y="130" width="120" height="20" as="geometry" />
        </mxCell>
        <mxCell id="O0GSadilHtTorsFu36nD-12" value="Due Date" style="rounded=1;whiteSpace=wrap;html=1;" vertex="1" parent="1">
          <mxGeometry x="190" y="150" width="120" height="20" as="geometry" />
        </mxCell>
        <mxCell id="O0GSadilHtTorsFu36nD-13" value="Completion Date" style="rounded=1;whiteSpace=wrap;html=1;" vertex="1" parent="1">
          <mxGeometry x="190" y="170" width="120" height="20" as="geometry" />
        </mxCell>
        <mxCell id="O0GSadilHtTorsFu36nD-14" value="Notes/Comments" style="rounded=1;whiteSpace=wrap;html=1;" vertex="1" parent="1">
          <mxGeometry x="190" y="190" width="120" height="20" as="geometry" />
        </mxCell>
        <mxCell id="O0GSadilHtTorsFu36nD-15" value="Attachments" style="rounded=1;whiteSpace=wrap;html=1;" vertex="1" parent="1">
          <mxGeometry x="190" y="210" width="120" height="20" as="geometry" />
        </mxCell>
        <mxCell id="O0GSadilHtTorsFu36nD-16" value="" style="shape=image;verticalLabelPosition=bottom;labelBackgroundColor=default;verticalAlign=top;aspect=fixed;imageAspect=0;image=data:image/png,iVBORw0KGgoAAAANSUhEUgAAAlEAAAGACAYAAACN9jfJAAAgAElEQVR4Ae29/bMkVX7mt3+U/asd+6s3AhN2eH8wXsNGbFjbwcrWENIuGrTNjqeFtKxb4JUQRg3ixUDbqNltFjWCEY0GWjP0NLSWZgb1BBiEpBZaQFpGL1fSXL2k40npc+e53z6ZVZVVt6ruvU9FFCfznO/7eTLPkyfr0n/vv/gv/36Xb2oQDAQDwUAwEAwEA8HAYhj4eynYYgVLvVKvYCAYCAaCgWAgGBAGQqKyE5edyGAgGAgGgoFgIBiYgIGQqAlFyxNInkCCgWAgGAgGgoFgICQqJCpPH8FAMBAMBAPBQDAwAQMhUROKlqePPH0EA8FAMBAMBAPBQEhUSFSePoKBYCAYCAaCgWBgAgZCoiYULU8fefoIBoKBYCAYCAaCgZCokKg8fQQDwUAwEAwEA8HABAyERE0oWp4+8vQRDAQDwUAwEAwEAyFRIVF5+ggGgoFgIBgIBoKBCRgIiZpQtDx95OkjGAgGgoFgIBgIBkKiQqLy9BEMBAPBQDAQDAQDEzAQEjWhaHn6yNNHMBAMBAPBQDAQDBwYibpy5Wo363P+/IVDy3zPPPpUt7u726e4TB4n772v29nZGS3Vp5993p04cddW1urDjz7uY18mRuUm/Xk+y/jxG57XXVj1saHjVce5SAyrwttQbunPYhAMBAPBwOIYCImauBO1qkXNF9IhErEocfDFXiTnIC+MkKj2rM0zZz73s4jcqvB2kFiI7cVvwKlZahYMHG4MHDiJ0m6NFoCjBpRVLWq+kK6K8KyTRB3EvHr885CRKTF43WcRmCH7y8a5SAyrwttQLuk/3DfyzF/mLxjYDAZCorZoJyok6m8vgmXJyTw3k0UIzJC9ZeNcJIaQqM3cIIfmPv2Zj2AgGBAGNkqi/qv/+h903/rW293f/M3fdH/913/d/fKFV/odq//hH97R/fbv/G7/nuSP//hPup/6qZ/pJPvMM7/U/cEf/GEvr8E///M/79799nvdD/3TL/V6vii9++573W/+5ne7v/qrv+rlP/vsD7oHH3y4+5Vf+dVuZ+fPetvf//73uzfffKuTPxXD9b/97d/s3n///9vT/6M/+uM+PsUh2aFF7V+evK/74IMPez05kQ/F+M9++J/3evXCc5+zSBS/M1P8v/qrv9YpJtXO8/C4+iT/7j/SdV/vvPPtvj6qu/xe+vU392rycw+d2Yv1J37iVO9Hg9Ihf/KQrj7sGLl/2fzt3/7dfm7lR8eqD7pD7Rg5mQcHsss8fP/7f/u7NdXpT/7kT3u8aS68FuxECQeac/D42q9d6v6bf/APB+NdNk6PYSrehH3hSxjQR3gX/r761X8zGPdQ3dOfRSEYCAaCgcUwsFESpcnSwvXhh7/VLwB/9md/3p3+mZ/bI1Z6Ffj448/0i4EIlhbi1kcL33/33/+jfQtjS076WiD9o/M33vhm78MXNZfhWLK/9vVLvayTBX5YLrIn0tf6fPrpZ93/+r/9i5sWNvc5L4lq2ScPj8vlKonyWsrvT//rB/fIJaRC83Pu+Rf6uv/lX/5l98STz94U/xiJcv8c/97vfdL943985012/MIdIyfz4ODL93x1j/jhlxZMed2Vr2IS+dBHtRHZroTRY9TxsnF6DMTn7Sy8CU/CVevDw0eNOeeL3SBTr9QrGAgGxjBw4CSqdYNXH8RDwTn50C6LFjotINql0kKmnYMbNz7pn7I/+ujjfudJ5Ou996735rXDoB0TX5T0F2//1yOP94sjC72EtcMleyJr0tPn9z75/e5/vv2f7tPXk/0vnXuh9y/ZL774Xi/7p3+60/2rr/zrm3aiROI+/vh3epnf+q3f7n70x/5lTxS0+wWx0s5MnQyPuVcu/2GHR3pa7Plcu/adPrdWHr64OzFzXyIKIoTswnn8f/iH/7knfKo9BPeTT/5Tk/xQW+J0Eic72hERQUHuL/7iL7p/+28fuakOXhePH7sanxcH/+7fvdjjR7syIoHKQyRRGLry1m/0514L7bAJV/pI58Vffnk0PmJdNk6PYVG8KYbf+I/v9jFrl1X5qU8EEmL13e++3+dKvGmzGAQDwUAwsFoMbAWJ0qQ+99y/37fT1NqxuPvuf9W9+urXO5EUkSQRLX10rAXJFyWRDMAiwsbHyRsLOwu169cF6IUXXur9iXwoVicLsnn/v/k/O+2kjX0Ud93dcJ8tXWJTLpAo+ZE/9cme7OqDrC/uQyRK5KjGUnedRBZFGlXnl1++uFdP6qq21tDr8rWvvbanI2Kizzx/aODxk5P7nIUD7Zhp50wfEWWRbRErveL7b2/9H/uYvO6+KyfZWhf37cfLxukxLIq3L9315e4P//MXfY5D//n88z/o7vxnP7o3Bx57jld7I009U89g4Hhi4MBJ1DyLpsDnv73RouC7NlrU9NslSFNdNFokyl9JTSFRrq/4nBzI3th5jY/zFiHwhdQJT+uChESRLzKVyPji7jbdV81PtvR6SLtH+oiEijip5vrtleYHf95W37UuyDIH8+DB4/eazYsDyb322ht7vxOi/srl93//055MeS0YVyvy9fQzzzVzJRfaZeP0GOp81DrWc9f1+P244oS40x7Pm33mPfMeDKweA1tBorTo6Ufg/tHrjV/4hSf6xcwXEL16007QP/8X9/avZqTDYuELiy9KLOCS1TFAqgTA9RfdGfCdKN+BwddQ6z6d8LTkD5pEySc/MNcrSBEYffTaqBWP+moNfa681szBMiTKbY/hQHGd+sn/o/uf/tH/0r/e+qVfOt9dv/7+3k6n8vG6C2u/8vKre7+j0g4Pr2OH8lb/EImaN06PYVG8+U6U77qOxZux1d9AU9PUNBg43hjYChKlV2V6paKvfgelnQ99+DE2v3HR+CuvXOxft+g3IPotiD76HdX//tX79y2My5Kood+osCvjC6UIgv+mSK+QHvmFJ/o49ddd3/zmt7qLF19f2Q/LIY1cvJXI+OL+u7/7e3u/e/JF2+uDHbVOBlXbWaSn+q51wfYqSNQ8OBAuXnrpa/2OknLnt0L6HRa/gROhatUCHCpvfjtF/K3W6+w7ZvPEWfG6KN4UD7+Jkq58Cmt6INGP73UdDe0etnJJ3/FeCDL/mf9gYBoGDpxE9Sxn4D9aWP1H5e9/8GG/4LOY6fWLFgMthBCrAVP9rsnjTzy790+oOElgAZeujgFLJQC+sLb8KJ6xv87TD9n1w+nWRwSQ/4UD/tXO8ilbLNDz7kSJ0P3O79zYF4ZydV9eH4/HyaAMDP2gHJ1aw4MkUSIes3AgYq1dTc1V6yPC8Yu/+HSzFv3/4uDv/kJP5JG/DCXX2g6RqHni1Jw6XluxzsKb/Hzve3/UUu3z5w8zatw5n3azTN1St2AgGKgY2CiJ0u6MiJM+/ifZ/nqPxeyBB36+33nSwqKv/n9R//78L3f6AbrO66LkJGEKiar/nykt3iJBik1FHCIL+ms0/ak8/38i/bWXYnz0sf97j7z5JDixaa6GE0iU7Hu9ZFcxuS+vj8ejY34ErroO/aAcnXWSqJrXEA5+5Etf7h5++LG+7qq/PszDz/7sL/TzMFSLn/7pB/Z2rETIWv9bCnIfIlHzxukkaire9BeL+v9E6f+Zpo/Iun5Q/vzz/2EPq8SbNgtAMBAMBAOrxcCBkajDOFFDC+thzGVqzP6/I+DV5VRb0VvtxZp6pp7BQDAQDGwXBkKi7J99Oe4kiteF2tHQLo/+IjIX7HZdsJmPzEcwEAwEA9uDgZCokKg9ogSJ0u+G/J/DyQW7PRds5iJzEQwEA8HA9mAgJMpIVIC5PcDMXGQugoFgIBgIBrYdAyFRIVF7O1HbDtbElxtqMBAMBAPBwDZhICQqJCokKhgIBoKBYCAYCAYmYCAkakLRtokFJ5Y8lQUDwUAwEAwEA5vBQEhUSFSePoKBYCAYCAaCgWBgAgZCoiYULYx/M4w/dU/dg4FgIBgIBrYJAyFRIVF5+ggGgoFgIBgIBoKBCRgIiZpQtG1iwYklT2XBQDAQDAQDwcBmMBASFRKVp49gIBgIBoKBYCAYmICBkKgJRQvj3wzjT91T92AgGAgGgoFtwkBIVEhUnj6CgWAgGAgGgoFgYAIGQqImFG2bWHBiyVNZMBAMBAPBQDCwGQyERIVE5ekjGAgGgoFgIBgIBiZgICRqQtHC+DfD+FP31D0YCAaCgWBgmzAQEhUSlaePYCAYCAaCgWAgGJiAgZCoCUXbJhacWPJUFgwEA8FAMBAMbAYDIVEhUXn6CAaCgWAgGAgGgoEJGAiJmlC0MP7NMP7UPXUPBoKBYCAY2CYMhESFROXpIxgIBoKBYCAYCAYmYCAkakLRtokFJ5Y8lQUDwUAwEAwEA5vBwFIk6u57TnVvv3O9u/beB92TT58bZbEn772v29nZ6cY+589fGLUxBJITJ+7qPv3s8253d7c78+hTozaqLOc1rnlsKZ77Tz/U568atL6vvX65u+XW2/ZiUp1efOni3rls6Bzdy2+9291+x537xr3Okqv61AW56pPxtJu5yFL31D0YCAaCgaOJgckkSsRAi/XY4u+gOWwkClJ15crVfYTGc6rH1GSIUDLuJEjHTnqk60QKYiSyJn8iWBp3G96v+XB7NcacH80LOfOaeQ0GgoFgYP0YWBmJ0o6UFvx5JpHdn3l3e2bZXMRela3n+BJ50meRGCFJlURBhCCcECD1ixDVumkcmdbOlQiVEy3FLHmRp7PPvRASlVe0c12HYD3t+m+8qXlqHgwcDQxMJlECgJODShzGADJEXOhnF6gSGIgN43qFJx30kOdccnqFqF0w4mGsynKOnFr8ffjRx4M7QC4/RKKQYdwJUmvXSLWk3wkVdiqJkjykynWRT3s0LtbMY+YxGAgGgoHtwsBSJGrqZFYiIzv0QZBoIUH6vVTrI4KDrojQ2bPn+t9HSbb1Ks5l9fupeu454VNk7Sfve6D5Gs3lIUlDhJJxSFSLIMleJUl6hSddjVUbdTcrJGq7LjDHR44zN8FAMBAMHC0MbA2J+pkHHur0BWD8hoodInaFIEYah0BBhJxkIYc9WmSxW8+RU+skSnI+1jqG4KyaRLkvES9enbb8hUQdrQvU5z7HmdtgIBgIBrYLA1tDogCGiJF/IDsah0gxXl/n0a+WHSzs0lbSVM+Rc3+KyfuHjlukxmUZZydqiPC0+tGFQMmudqz4nVWr5ZWgx5Dj7boAMx+Zj2AgGAgGDi8GtoZE6dWaCBOEpZIb7TyJNPH7JnaJ2I3SmD7qh4hhywFa7dZzZCFsTuIYG2ohOvPuRNVXcditr/n4izx+94Rcq20RsJZc+g7vRZu5y9wFA8FAMLAdGNgaEgUp8t0kjkWGIEb00YrsVCLEq0DJyK6Drcpyjr3a8loQIsMuktvkeFESJT3Z8x0jkSAnS/x4f8wv/tWGRG3HheVzkuPMSTAQDAQDRxMDW0OiBDAnSnodd/36+z2n+eST/9STIe0K+YedJoiQ7xo5KXMiVWU5d7s6dluK7aBIlGyLIPE6zglUHUNGrb/WkxzfkKgf1IKapE1NgoFgIBgIBg4CAxshUQeRSGzmAgkGgoFgIBgIBoKBdWIgJMp2cdZZ+PjKhR4MBAPBQDAQDBxuDIREhUTtvQrMxXy4L+bMX+YvGAgGgoH1YiAkKiQqJCoYCAaCgWAgGAgGJmAgJGpC0cL018v0U+/UOxgIBoKBYGAbMRASFRKVp49gIBgIBoKBYCAYmICBkKgJRdtGNpyY8pQWDAQDwUAwEAysFwMhUSFRefoIBoKBYCAYCAaCgQkYCImaULQw/fUy/dQ79Q4GgoFgIBjYRgyERIVE5ekjGAgGgoFgIBgIBiZgICRqQtG2kQ0npjylBQPBQDAQDAQD68VASFRIVJ4+goFgIBgIBoKBYGACBkKiJhQtTH+9TD/1Tr2DgWAgGAgGthEDIVEhUXn6CAaCgWAgGAgGgoEJGAiJmlC0bWTDiSlPacFAMBAMBAPBwHoxsBSJuvueU93b71zvrr33Qffk0+dGWezJe+/rdnZ2urHP+fMXug8/+rgX0XELDCdO3NV9+tnn3e7ubnfm0aeaMi29Vp9ifu31y90tt962lJ2W7cPU9+JLF/s5vP/0Qyupg9f19jvu7C6/9W63iG3iUbvKOmJXeB3DrHB96c2rnWJfpf/YWu/NLfVOvYOBYOCgMTCZRIl4iICwIGmhHFt0ppKoSqqOIomaQjRWBQx8ax5XRVqcRNU4RabGsHIQBIYcnTCDX+8jVsU/FiNyaXODDgaCgWDgeGNgZSRKO1JaAOcB1CJEKCTqYAEKqXnksWdWRhyWIVGKp0Vs5sHVkIzIYcsm5Eo+IVXzPhQM+Ur/weI19U19g4FgYJswMJlEKYlFXud50mMkykkTx7wC1Gu8Bx98+KbXeXWXS3LyIZ9aILUwqvUYdOyLvXLR7sPZ5164aXeNxVbybsMX57oI+67OPLZbizd+GRuzqbHWDgpz1MqfmKXnxzVH96uY9KpLdpGTPjGKrKiGkBZykH/mAlm3y3wwppZ6Y4Mx16u19THZRLeVPz6J1fPJTlRu1OAhbbAQDAQDQxhYikQNGZ3Vv0oSVQmUEy75YeFuLaJapFlAIRsswpAKzqWPrPJj8VaLLIs+5+jOst1a6NEh7iGbHhMy6ChOxUAcdV48B415PZCt+orVSZR0nHAQN3HV3BSby+OHtlVn7XKSEzmSU/WHHdqaI/20rXhqTsimzY00GAgGgoFgwDGw1SRKgbIbxQ/NKwG7cuVqz5skJ3nG1YmOJ+zHThpai62PVzLgY62F2PsWta0Y3T4xyw4/eG7ZrHo1ZuzQygdkRH2VIKlvjERBaGQHm2o99hqD18V1ONY4BKzaQmaeOrisSJt06PO2FY/iHyN6rp/j3FCDgWAgGDi+GDj0JAqSxQ6Ut6skUbpIIBSQBy3A6teiy6smb1mIW4RnjGi4L7843Y4fD8m0CAKykBuPl2MnVuTseuxEYYM6IDOW21hM0te4k6jqXzKeux/j39uhGJHxWL2PuaMv7fG9SWbuM/fBQDAwhIFDT6LYiVJLknrFpx0pzodaX0Bbi7GPy4ZkRCC00LMjpP668Fd/s2y3Fvrq2/1LvmUTvyIe0qel39uhmMlRPiRfSYz6IVGQSfly2x57zU1+xwhKjctt4cNjHKsD8srBiRn9NTb65XMsRuTS5sYaDAQDwcDxxsChIVHaYWr9sHzoN1G8ztOirB0WtRXsvkC3FmMfly6kQfa0MGOPfsnTp3EW4lm20fcY6wKPDH5bNvFNzmN/MSk7Hi+6+CGWWgPpuV2Nk6dsKC6NQ1pqHhp3AopfWvlFV31Vn/jmqQM2seF2qx1k1dacfCzHx/uGmfnP/AcDwYBjYOtJlP6Hmvofaw6RKCVTiZT+p57q0xiEAlLgyTtBaJESH0dPfU4i6GdR5pWYL9jz2JZd6bptFn9sQhzks2WTWNDzGBhTq1q4Hx/TsWKBGNW89L9CYCcKPWJXnPI59Nd5knd7rfgqiZIO+SxaB+KjVf2wQTuEC/JHN21unMFAMBAMBAMVAxshUTWInK8WmJCOFkFIrX9QaxFR3zVLbX5Qm9QitQgGgoFgYDYGQqKO4L+dJ/KUnZTZ4M8NIjUKBoKBYCAYWAYDIVFHiET5q7LsQuXGsMyNIbrBTzAQDAQDszEQEnWESFQAPxvwqVFqFAwEA8FAMLAqDIREhUTt/UXhqkAVO7lBBQPBQDAQDBwHDIREhUSFRAUDwUAwEAwEA8HABAyERE0o2nFg18kxT5HBQDAQDAQDwcA4BkKiQqLy9BEMBAPBQDAQDAQDEzAQEjWhaGHm48w89Ul9goFgIBgIBo4DBkKiQqLy9BEMBAPBQDAQDAQDEzAQEjWhaMeBXSfHPEUGA8FAMBAMBAPjGAiJConK00cwEAwEA8FAMBAMTMBASNSEooWZjzPz1Cf1CQaCgWAgGDgOGAiJConK00cwEAwEA8FAMBAMTMBASNSEoh0Hdp0c8xQZDAQDwUAwEAyMY2ApEnX3Pae6t9+53l1774PuyafPzWSx589f6FqfDz/6eKbuQU7kmUef6nZ3d7tPP/u8O3HirsmxKA99lOdBxottr7/m4LXXL3f6R4gZP4hW87wOPwcR+7bb1HxefuvdTu26Y92k70Vyvf2OO/sa8Q9srxqP2Nf1hI+x+F586WKn75jMto8d1rnf9roeRHzCmrB5UJgD//Ngf578hC1xBH11fBSul5r3ZBKlxVqLqSZUX938NQHVgZ8PkSgRj52dne7kvfeN6rutVR5PIVFXrlztCZNaYlknidLiATDxL4DOMw/IT2lXuWit+oKdks826RyWxWyTNRvDzNjYvDEL30MLlBaWen0dhUUhuBvfaWhhp4WFltwq+zRPl968OnOdndcna7gwj84qriFsqdX14fZ9bNHjVryL2jgI+ZWRqLqgt4KFRPnOk4iTCJQ+3t/S36a+FolaV3y6mFTv+rQAyIYWgVXEFxK1+A133rpnMZtd27Gb/NjYvHMwdtNvLZwhUbPnbN7aHya5FhYOOn75XOVbANYLJzmruIaoA/brOsX4oi32PN5FbRyE/GQSpWBYzLUTNU9iLRIlOxApvVLTrpD62B3q2VWDYLHr0xrHHmO+y4UerV7hXbjwtX2v84hTYxA82WLXCQJV7WNT+kwWfcgypteGsq+cb9z4hOG9V4oApnXRzCIyuhCkrxgky25hJbrYefnVS3sylYC5vmI5+9wL+y7kuojIt56WhA1q4DaIgYuV2OoTPrq6AJFRO3ZBtvxgp/rzPBlTbopPfpSr+tXi3323audzVW0yxrxi0+OARCkOxmtdltWXP2yrVR6qEb7Vqq/6Vb8Td691laXmamu81KH6REd2vSbUkZgfeeyZPjbmQvKyedePnez7kRuKqdrDV40TnBJXxSF6anX9KAZ8Kyb01LputYucdDxm6fi5z4905Bd/Lkd+YJl61/yIX7awvQjusCt9fDIn6tOxy4CfVsySV/5DYxpv+WHuW/cv+a+1Jk7mRzL4rLJj8+p60vdaeh7VZo33F5/4f/o5Jh7ylD2vXa2PfKJTY9E5duq8epwVD8RKjcCPfDGG3arrdpHBDvUFo5JFfig+ryH1rT5rTPjdRLsUiVo0YMiJiIXrQijEJCRTCRQMA71KYhhXfyVQjEGkKqkZI1Hoeqv4qv9qG6JUfWFH454z/bSyD2jqxaS6ORC9jvVYcq6vC8zBB1i58LjRca5xwC/bjLvNGosuHidR1YZsY5MLDX81fvXXeNGtsmN+iBs/1JaLmTjIi3FdwOiodd/UTi2xeC2w6TrYRYdz4iBOzus451P1lQM5KmbFqHO18q1Y1eKH3CXrucm/29G550k9sEM+1IT43Sc6GhuSJw6fF48F+x43dtVSX8ZrfNgnPtfVsfRqnorVMSqZeu46dRwfNXbFUPOkLmqpf80BO+4TGfLiHHvUhfM6jk30qRMxME5dqRXj2PNx2cKeWmSlq3OPf94akQd+lA8+sIsfybgPnfu8SdfP63jVl33pYF/nVUexaE49Jsm4TuuaIP8qW+tU8+fc7WNLLfPi8TCXruN5VR3OJeO23b7iZkxyyLbiU5+/spR9kWT148vjxe4m260kUZAPkQkVB2LEThXjkBWRruvX3+9lITiSobAaO3v2XG8HXR+HtIlQidzIrj6cyw526eOcGCWDbeljE4Klcbf74IMP9/blhzyw6bGRg7cORO/3Yy4GB7DGpQsI1frF4iD1Y7dbdWos8guJasUgu7og7v7yV5tPsO7rh3/kx/fmUP3S041PrcvN8lNjxhYXa0u/6nhe0q/j2CS+lk3Nhd+4peN9rfzcj8tKd1F92ar+sVN9u1/PxY/RbfVpTHOtMeTUOl6qT43Lr2R03Mq3+hqK031y7LL0KQZwoD6/PpChbcXj+UjO42tdQ60+7GNLMlo49FUfOvKv41pTz8v9Y7cVt/cNzQP3BpfFpvyMXefSQZ+YFCf6tIxJfqxPY1XW89Y4dcKPx+1jfozP2sdcMF59u+1WbOjJDvHUeFt6LRlseU1rvMhIXz513ppX5NS2bNQ8Jee5+jG2Wn1uX+PIel1b8UnWySt6bo96+tgmj7eCRDlJ0qs1EZXWBxKlgkFYkIN40A8xqcVtjUN4IEiQHWzKRpWB8AyRqJYN8hSxevyJZ/s8PaeWTo1f52MXGvItgGrMQVzt+EXVuphavt2exqXHzXUoBmIc8sG4WmLSE5y+rQtslp8ao+y6TiuOWhvPS/p1XH1ux481hg55eAux8Zhch8VIPl2P43n1WzFwg6u+/VwyxKB+zQG+vcUWsdOq3+U0HxpzH8gqR8Zn1Vg6LtOqOXbVzsIBMrLpehwrD2pNX7XpMXDsuXPc8kGdv3LqdE+g1Opawq/qhd86D8wPPqWDrHzh11tyGZoHbHqNsel+/JhxctH1qz5k8I/tmgfjaj0Ht0F/jYt7BbXFp+TlB7JMv/viGN2xeVUsskn9dN6qofrdTo1X4y5T42ecVj6pGzlQC2Tcx1BMyLb8tex6rrJPrbz1WlT7HqPXYyg+ybtt5qQVL7422W6cREEsRIYgLS2i88ADP793UxCh0e+ItGuk4jmh4RhbGn/jjW/2JEjHLduVIEFmIFXugz78DJEobM7aiZpCogQ+LWQOTsUIyHSh8RuRKiMQA0q/4Fxf/dhCVuP6Vh2/KDSuixAS1bogZVf9yOriqzG6LydNQxfdLD81ZtmXrXpT9Tiqjucl/TqOTeUj262YZJ+bIDl628rP/Syrr0VZPvDp/vyYcbBCq/5aB2RbLTWQPuOOl5ZP5Yu88q03Z2wyV16fOoZPWpelTzGAA/V5rsjQtuLxfCTnMXANESt2hlrpKpa6AyUf4AabnMuW5+X+8SP/Lk8/7dA8oNPKm1ilO8unYtZv2fCnlrq5HR9vHVc/nrfkqY360dcxc6rW5cbmhfiwU7kgNtUAACAASURBVH3XmtRx9PCt8xovMmBQNh2LjNNqnDlp5YoP8mzNK7bUtmy08vBcPQa31TrGvnQY97q24lOf7lPIezzY8/lFbpPtRkgUu0feOtmAgPi4jkU4xnaqRH6clLk+ZGUREuX6HMuHJgwSpX5ir7Y5R5dWNvhNFHHJJuRNegCGi6aCREBygqFxAdQXnXrRCsyuU8fxCUjVuj0BXPoeU7WhGKoPt6EY9JShFn9+kXmefsGpX77ctsvWWN2PX4jSwa/s67yO48vzlIxucKoB48pDfue1iV90pOdz1rqpSJY4ltGHVNe54LzlmxrWmntMygG5Oo/VJnUeqrvk5auO13qBH+ah1qfGITl98c849cSfZHTs/tBVq/jqIid5168+5IsaY0M5DvmQrZqf46zaJwdqUMflExn3KT/EVedJOpLF5pD+0DgxMC5bnkO1577kWzXzGqhPX+wyf1Wv2pUOmKr2Zs3LrHltYaHGIx9+7dRx8iJuxehYYpxW9qip+oZyUL/GW/OKLVr5U1yc1xqr3/0Qq+s4lrCjFlniUZ/XtcaHvNesytR43d+mjreCRIk01AJUIsUOkMiHdpbqx3eEKpGC5MgHxAYypD584QMyo3Pp8hnygf2Wbfqwgd9lSZTiFsAEOF18+voFRj0FdsYdnBqvFzUg9gvE9WVff7XhftDBh544nWzgh/FWDBqr/dLjgkb3+fMv9zd+90+es/xUW7oY0WXML/ZaG8l4Xoxr14D4PK6WTfmr9XKdesMgJ5dZVl95E6/XvOWbHLxW1Mxx4XYYp3U5LdqaQ/mn1mqJR3kKX+6PGJAZ+us81YV6SXYopmrPfUlf54qZ+L312jMnkncb2Cc/6XuOnrvb5li+ITfo1lzcnsb4qzrptvzLjseuGIhfY625ly2XGdPHhmKRbcWveXL9eq/ymklf/qSrb81X4/rW3IZiVD86xO2xMOZ1lF+fs1nzil3pue2xPGq8xKEWPY/Bx3WsMfdFH3WrObTmtWUTfdmvNcaHY9Jzr/m7feQ8J6/rUHzUwuPCrmy1+hnfRLtWErWJBKf4hES1yN0Ue9H525vgUarD2A3xKOWZXI4edjOn2zenuZ9s35zMe52ERP3dU44XLCTq8ALa5/Egj3PTC0YOEl+xfXzwxY6N7imZ98M37yFRDRIVIB8+IK97zkKigpF1Yy7+jh7meD1VX9Nlrg/PXIdEhUTl6ScYCAaCgWAgGAgGJmAgJGpC0fKUcHieEjJXmatgIBgIBoKBg8JASFRIVJ4+goFgIBgIBoKBYGACBkKiJhTtoBht7OZpKRgIBoKBYCAYODwYCIkKicrTRzAQDAQDwUAwEAxMwEBI1ISi5Snh8DwlZK4yV8FAMBAMBAMHhYGQqJCoPH0EA8FAMBAMBAPBwAQMhERNKNpBMdrYzdNSMBAMBAPBQDBweDAQEhUSlaePYCAYCAaCgWAgGJiAgZCoCUXLU8LheUrIXGWugoFgIBgIBg4KAyFRIVF5+ggGgoFgIBgIBoKBCRgIiZpQtINitLGbp6VgIBgIBoKBYODwYCAkKiQqTx/BQDAQDAQDwUAwMAEDx4JEPfn0uS7/SvbhYfZ5CstcBQPBQDAQDBwGDIRETWCeh2FiE2NuQMFAMBAMBAPBwMFiYO0k6u57TnVvv3O9u/beB337yGPPdJfferdTvyb7xZcu9l8m/vY77uwuvXl1b/yWW2/rd5Wkr6/vMElWts4+90JvW2P/77lf7uWQ164UtnVMv/Skr7GWHflFL+3BgjL1TX2DgWAgGAgGDgMG1kqiIFD3n36oJyQQIpGqeUgU8iJaKi5kB2LEuRMiybVe59U+naM3ZOcwTGhizI0nGAgGgoFgIBhYDwbWSqIqcdEkizyJvMxLokRwHBy+cwX5gaQhV/225LzPj7GRdj2ATJ1T52AgGAgGgoHDgoG1kignPBRoERKFjkgSr+HU1p2pWSRKPnml6HZ0LN2QqFzAYC1tsBAMBAPBQDAwhIG1kqi6I6SgFiFRkBtIk/SdmDE+i0RJzn9nVYszZKfK5TwXVjAQDAQDwUAwcHwxsFYSxQ4QJIffOPlvoirREklivBIuyA6kinPsA2yd+w/Q1V/9SGZoJwq7+MFu2uN74WTuM/fBQDAQDAQDayVRAhxESoRF5Kj+dR7EitdsGvddI5EfxvRbqufPvzxIfgA4JEh6ToTcFkRNOshDxjh3XWynzUUUDAQDwUAwEAwcTwysnURVoNXdpTqe8+MJzMx75j0YCAaCgWBg2zEQEpX/2ea+v3bcdsAmvtxUg4FgIBgIBrYFAyFRIVEhUcFAMBAMBAPBQDAwAQMbJ1HbwiYTR55sgoFgIBgIBoKBYGARDIRETWCeixQ4srkgg4FgIBgIBoKBo4mBkKiQqGzhBgPBQDAQDAQDwcAEDIRETShaniiO5hNF5jXzGgwEA8FAMLAIBkKiQqLy9BEMBAPBQDAQDAQDEzAQEjWhaIuw1MjmqSYYCAaCgWAgGDiaGAiJConK00cwEAwEA8FAMBAMTMBASNSEouWJ4mg+UWReM6/BQDAQDAQDi2AgJCokKk8fwUAwEAwEA8FAMDABAyFRE4q2CEuNbJ5qgoFgIBgIBoKBo4mBkKiQqDx9BAPBQDAQDAQDwcAEDIRETShaniiO5hNF5jXzGgwEA8FAMLAIBpYiUXffc6p7+53r3bX3PuiefPrcQiz2ypWrHZ/z5y8spDuW4IcffdybXaXNMX+tMfnWR7H4OP3kXdudnZ3u5L337dNx/dYx+aods19jadma2offg/SxaGwnTtzVffrZ593u7m535tGn+q+O60cyksW+15O+sVa4F/7r9/Jb73a333Fnb1etzpF57fXL3S233rbnU/ZffOni3rjr4rvaaMkgmzaLQDAQDAQD68HAZBKlRUCLAQvDIjd1FjgWtFUuviyCWtg3BaIhUkE/edd2URIFEaV+Y/aROYia4PcgfSwaNxibRaI0B8jgAwypvvQNtSJRLVKEPOSHhwyuG9cRgfJzyfr1VG3IdtXBX9r13DhT59Q5GAgGhIGVkSjtSGlnah5gaWfAdwUWJQ/z+NikzDykghrUnZB549aOlermBGAev/PaX0RuU37HYhwiUV5vZESkvJ+5mQeXs0jU/acf2keQFLOuE5EktX7s+Ygk6au+lg/pXXrz6t5ul+vmODf3YCAYCAbWg4HJJEoTpBv5lNd5POm/8srFfvHSIqaF2CedXRZ2a1qLHGNOJLCNPcgGsrKjxZEFEgJAP3LoK6aWDS3AxMuiiy4xqEWmtuh4Xi1fxFn1PW5ioW/IL6RB9bpx4xPC7V87oqtO90mcX3zxvU5fPu4DXe/TsX8koxzo910e5hp9ztFHlxrMGpec56ocyKPWGzn5wk/tExHSjqtaYqBtERzG1LbGnTi1xof03K6TLO/P8XpunKlz6hwMBAPCwFIkagqIICQs1CzAvrjRxyJKq0UWffposcciLRtDstJBfsgX40M2iJfFmTi8hRS06oQediQz5ItY3A55OhkZygUfTg48ztYxsRNnSwbf+EWH2KqOz0mNiRwrQcKGdJX/rHFqRK4QbPLAL3JqiZd83I/GZpEoXmnT1l1ZvY7z30D5q7ghMiSf/kpPMRGH/Ih8eQ45zg09GAgGgoH1Y2DtJKouuBAHFjuBgIWSRU0yWsy0MLYWw+vX3+/7pcuCKD/48oUTfRbtKlPjIRbZlX0WZy3u0q3jHgM66qtf4vDYxmxRC+yQp/eTC8SDFh81do8VGWxwTpzUSzrI0Me5YhqTxyaxS891a+3dl3Qff+LZnvw6VtDHNvUhV2SJq8p5DbyWrbnAtrdDO0ku48eS912tRUhUtVNJlo/n+OZrLjVJTYKBYGDVGFg7iWIBZYH3trWIMe6LHwsiYyyUKg72fYFu6bYIgPTr4os9fHkrH4zrmMlhYdcYfbUlB49tEVvIes1m+a25KSbIAnZqXPVcOpCdVg1bMVR5bCoHfZk/+r3GHKtOFy58bd9v6RhT63VUjDVXbA/JyYbPIXVRfHXu/HwREiXC5ARKdob0h/rxzY/NW68YkUmbBSMYCAaCgYPFwFpJFAuZL35+zAKnRVfHagWAujBrYWPBqwu0xlgQWUjdB8ctAiBf6LCws5hCMiQjn5LTMeO+2BKD90nWv9SCnGfZcv+SpSauT9+Q35qb+8R+jYtz6uW+6XO/Y/LEShzMBf11LuVLsuBg1rjk+eKDeSQufGFb5/oM9YMz7NZ2FtmRPH+RV1/zacx/H+W22aFCV+c+HhL1g7n2uuQ4dQkGgoF1YmCtJArCwYJNoix4Wsy0aEFCWGRppceCTR8tiyC6LH4svC6nxb9FABQPsbD4Vn3sqJUPFmfv53iIzMgPesStviFfxEq9XJY41TdUG8WjWGpu0qlzUuPinJy8ZR7xS77MgcvqmDlxv2P9rk+diNfHdMy4bOtbcx3Lw2soXWSpO79Fau36zCJRkB3/XxgQI60Iko/Lpr+qa/mXjstgK20WkGAgGAgG1oeBtZEoCEJdsJhsFkf9Bdg3vvGtm17bsEBrgdOC6R8WO9liAfcFGx9qWfBZdDnHfl18pUPs+HR/GmfRZZwYsOn+OUaHOOif5Qs5tdQMP+RCHN5KppUbNtTKZo2L81X9dR7xk2etpedF/MSGLjEPjUuu5koe6NDW+kuX+cNvi8QQiwgPPyj3FoIzNF5f64kUoY8uPtT6X8JKzkmXy+V4fTfP1Dq1DgaCgbWRqE2BrS64LJ4skJuKa1V+WfAhUquyix3IR4tsILNIC7nZ1nk46HouUqvI5gYdDAQDwcB2Y+BIkygIAAs27VEhUOu4uKjhQZCogyJ+66hLfGz3jS3zk/kJBoKBdWDgSJOodRQwPnKhBgPBQDAQDAQDxxMDIVH2F125CI7nRZB5z7wHA8FAMBAMTMFASFRI1L4/nZ8Coujk5hMMBAPBQDBwHDEQEhUSFRIVDAQDwUAwEAwEAxMwEBI1oWjHkW0n5zxlBgPBQDAQDAQD+zEQEhUSlaePYCAYCAaCgWAgGJiAgZCoCUULE9/PxFOP1CMYCAaCgWDgOGIgJCokKk8fwUAwEAwEA8FAMDABAyFRE4p2HNl2cs5TZjAQDAQDwUAwsB8DIVEhUXn6CAaCgWAgGAgGgoEJGAiJmlC0MPH9TDz1SD2CgWAgGAgGjiMGQqJCovL0EQwEA8FAMBAMBAMTMBASNaFox5FtJ+c8ZQYDwUAwEAwEA/sxEBIVEpWnj2AgGAgGgoFgIBiYgIGlSNTd95zq3n7nenftvQ+6J58+N3MCzp+/0LU+u7u73ZlHnxrV//Cjj3tV2ZjKhOVDvj797PPuxIm7JtuR/1XaWjQf6qiajOnefsed3eW33u3uP/3QTXLq05hkZOPFly723zF7PraovOvmeP+TTOqRegQDwUAwcDgxMJlE3XLrbd1rr1/uCZRIlC/IQ2Bg8Z9CpA6CRF25crUPRe1QzEP9R41EDeU51B8SdTgv+KH5TH/mMxgIBoKBxTGwMhKlHSntTI1NAiSq7qBAkKaQmTF/s8ZCon6wEzWrVnU8JGrxi63WMOepYTAQDAQDhxsDk0mUJn7q67whEqV+iJZeue3s7PSv37TrA9HSuHyfvPe+fpxdLcmqT2N6VSd9vbq7ceOTXkT6vnt0/fr7qPat9L/+9V/vddwWfuorR7c19GoQXRzxGhHy5nXwvGVvSFf5ISt9dgS1K6hjjfNd5nWez60I8iOPPdPvNkKURaJefvXSvt3IeV7pElvaH8xTapFaBAPBQDBwODGwFIladNJZ/CEV3kJSqgz9TqIqwcAO5AcSRb/aeUiU7EJwFIfyI566SzaLRA3FKCL1+BPP9gSQeOVH8ZHrmK5yI6Z5SZRet7a+/grWd5YgUPyWCqLmu42S93PJ+vmi2Ij84byBZN4yb8FAMHCcMbAVJAryoImAIDjBUL+TKIiO+pg8xjXmJMrJTyU+2BmSEZlhR0u6+FJbbfmYjrFNjB6TcmRcbbXF2JAuNWK8+uZ86k6UdpTqzlYlSU665G/MF/Gkzc02GAgGgoFg4ChhYCMkamzxHyII0tFH437MZLgehMXJmeSGyIpIC3bUyr5033jjm33birfacn1s+E6YHytW17927Tv9MHGQn+twLF3Ptfr18zFiM/bXeZUgyaZ2p7Rz5a/zJIe/MV/IpM3NMxgIBoKBYOAoYeBQkqi6U6MJgXhobFkSBUlx4lIn3UmQ/NVxYoQYaVw7W8gSIz6c8M3SJb4WufM4xojNGInKTlRuco6jHAcPwUAwEAy0MXAoSdTQb4Z4BQhBcWIiAFTiA1kRkUFXcm6fH4NXAGELEuSt7LoNH9OxSJDsQYbU54Roli560uH3SvX1m+xPJVHz/iYqO1Hti6piJeepUzAQDAQDRxMDh5JECYyVaDgJmpdEuQ3Xl30IltoW+GeRqFkx1nGIFb48NpEsj++gSZRigEjpB+lDf50XEnU0bwpgMG3mNxgIBoKBcQyslUQdhsmAoFTichhiX2WMet3n9urrPx/L8fhFlvqkPsFAMBAMHE0MhETZ/1dJIIdE1VeBx+kC0G+itAMFkeKVoe88Had6JNejefPLvGZeg4FgYFkMhEQVErVsQY+KvgiU/7+lQqByszkq2E4ewXIwEAysCgMhUSFR+17brQpYsZObVDAQDAQDwcBRx0BIVEhUSFQwEAwEA8FAMBAMTMBASNSEoh11Zp388vQYDAQDwUAwEAzMxkBIVEhUnj6CgWAgGAgGgoFgYAIGQqImFC3sfDY7T41So2AgGAgGgoGjjoGQqJCoPH0EA8FAMBAMBAPBwAQMhERNKNpRZ9bJL0+PwUAwEAwEA8HAbAyERIVE5ekjGAgGgoFgIBgIBiZgICRqQtHCzmez89QoNQoGgoFgIBg46hgIiQqJytNHMBAMBAPBQDAQDEzAQEjUhKIddWad/PL0GAwEA8FAMBAMzMZASFRIVJ4+goFgIBgIBoKBYGACBpYiUXffc6p7+53r/T9U++TT5+aagDOPPtXt7u52fHSsvsPAeG+59bbutdcvd/Pm6jndfsed3eW33t33j/rqH/hVn8ZcNsez2X9qlBoFA8FAMBAMbBoDk0kUhEJEYF4ycP78BbjTTe2VK1d7IqFWH87nKdCHH33c68j+PPJTZch5GRJ1/+mH9sX44ksXQ6QmsP+pcxi93HSDgWAgGAgGVoWBlZEo7UhpZ2osMMiOEySI1fXr73cnTtzVk6fjRKJUM+1GzardWF0zlhtCMBAMBAPBQDCwfgxMJlGarEVf57VIlE86u1D9tlLXdTs7O93Je+/riRm6jLHrVPs//ezz7vEnnu11/VUhtiUvn7Ir+/7BpnaaWqSw7kRJTq/3Xn710t5rOu0seU4c8zqv7kRRQ/VXe8iqZcdPLf3YxobGFPcjjz2zj5gpJsWoWD0v+cNufa3oY5LxvMbGiCnt+i/m1Dw1DwaCgWBgvRhYikQtOln191AiMCI92oGSLYgOxAYSVYmSxiFIdWweEiV/kqsfbIokONkgzxaJclIDmakkR/pDJMpf50FO1OJTx05wqo96Towev3x4nLItuyJVkuccP7J56c2re7/VkoxImPrHxog57Xov4tQ79Q4GgoFgYDMYWCuJYpJbZIpXfBApzrVjdObMk3ukwgkQO0cQKc7ZZYIUyS92Jcs4JI1x9ImzthAUSE4lInXc9SFR7PzQQlwkO689ybEzVHVkRySukijkNU4sTva8r+p7HmNjLpfjzVzQqXvqHgwEA8HA+jCwERLlEwyhYkcKsgOJQpZ+3z2C9CxKomQTItWyh8/aVpJUCUwdd30nKd7vx9XekI7LiRw5QZI97RaJnKnVeZVRv0gWRM5biJVa75dPYh0bQybt+i7i1Dq1DgaCgWBgMxhYG4liB8l3fzTpIkL6DJEoyA7j0qmkqZ6j4ztRyKiVDZEyiBqxuXwLkJUkOZmRfB13G0OEyGXmtSc5iFPVkb26W1RJlGLR6zpIlsegY/V/5dTpPdLksY+NVTs538xFnbqn7sFAMBAMrAcDayNRkCXf+fFjdpV8x0mE6+tf//V9/18p14FYQZAgYw8++HDzN08alyy7X25LxxA8ERN/HQYYK0mqBKaOo6fWiYj3+3G1pzERIn/lxy6S+jVez4nB468kSnrVF7tLDz/y5E0/QJcPxfBT9//s4JhkPJccr+cCTp1T52AgGAgGNoeBtZEoJtlJkohL3f1hF8lJjetI/tq17/T8BxLlpIg+tyOdGzc+6XVEojTGed9Z4tgmEqW6QXB4vQaBoqYQKY2LPLX+Oo+dK3TUKk9sOumqY5Jxn65Xx9x+jjd3Yaf2qX0wEAwEAwePgbWTqEzq6ifVCY7qq3PfvUrNV1/z1DQ1DQaCgWAgGAiJOuT/t2x2hSBSvM5r7Tzlgs8FHwwEA8FAMBAMrA4DIVGHnETpYhCB4rWc2hCo1V0gudmklsFAMBAMBANDGAiJOgIkamhy058LPxgIBoKBYCAYODgMhESFROWv6oKBYCAYCAaCgWBgAgZCoiYULaz+4Fh9apvaBgPBQDAQDBwWDIREhUTl6SMYCAaCgWAgGAgGJmAgJGpC0Q4LQ06ceZoLBoKBYCAYCAYODgMhUSFRefoIBoKBYCAYCAaCgQkYCImaULSw+oNj9altahsMBAPBQDBwWDAQEhUSlaePYCAYCAaCgWAgGJiAgZCoCUU7LAw5ceZpLhgIBoKBYCAYODgMhESFROXpIxgIBoKBYCAYCAYmYCAkakLRwuoPjtWntqltMBAMBAPBwGHBQEhUSFSePoKBYCAYCAaCgWBgAgaWIlF333Oqe/ud6/0/fvvk0+fmmoAzjz7V7e7udnx0rL51s84aB/F8+tnn3YkTd609HvK//Y47u8tvvbv3Dwq/9vrl7pZbb9sXj2rNPzis+mse0Fc7jw3JMX8tH27Pjxf1rVwUj9toHdeYh/4RZfkfGmvZTV+eaIOBYCAYCAYOCgOTSZQWdi2+LObzLJbnz1+Aq9zUXrlytV9o1erD+dTET957X7ezs9N/dVztDJEo+V6E2M3yU/2OnUMkIKTU2EmOxrzW959+qCeyEKl5bCgG5DR/bn8svkV9y5YIzyz7xFLzrmSJetT+sZgzlptnMBAMBAPBwEFhYGUkqrUjUoP+8KOPbyJIEKvr19/vd4DWTaJ850k7UDrXx/trHn6+ShIlQlQJh8iRSJNayIbkPAaRD/Rm2UAPcnP2uRf2dBlrtfP49jiwobgvvXl1dDeqpef+ZIMdT5G+kKjcEMFX2mAhGAgGNomBySRKQfvixi7CWDItEuXyEKiexXTdvl0kdBkT+ZIuxEe7RzdufLJHgLQL5Z+6s8VOVCVL2JMuPpDFHjoQKPrV4qeOoaOYVasW6WyRCdUYEiWC5LtQ1M77Z9nAP3Za8tj11n3M04+MCM8Y6WF3SXGgo7bVT9+YPbeR49xcg4FgIBgIBg4SA0uRqEUDq2REpMPJxRCJqgRKerxyc9IDmZHNqSRKOeFP8bRilh/JVKKkfum0+jVGriIMLRIl39qBEVmgtiIM7DINER4nWrNsVNkhm/inHZKr9iQvwsVrXulho9X6jlMdrwQsJCo3w4qRnAcTwUAwsEkMrJVEkWiLmLCDA5HiXITkzJkn9xZiJ03aKfJzdOQHIiMypWN80xIDxIZ+tU6izp49t++H5rx+RK/lhxxkR/Y8Rna33N/QsQiIyIhIiWQWITLYdBuQECc21SYykKBZO1YtEoVvYsaGkyvZl++QqNwAHS85Dh6CgWDgMGFgIyTKC1TJDATECZHk6We3Sa2TKHamsN0iN4yprX4ZaxEebLnvMRIFCXN5juclUdqFcQKl+BZ9pVZtVBIDUaJlx4taeLuob3THSJJkIG1O7Ib6kVVe2E+bG24wEAwEA8HApjCwNhIFOak7Q3VnB7IEiYLAQFpUKEjKqkkUMYrw4I94ID+VfBGf54UOOShmycn+rImGKLRe9w0RkqHdpJaN6r/q1nHOZ/n+Jz/0pf61YyU4Q3rYVduKoaVHbaoPt5Xj3EyDgWAgGAgG1oWBtZEoyBI7MrWFpEBANC5i8vWv//q+/6+U64noPPjgwz3hGdqJQt4JjYoLGWLcW7cFYfNxjhUzJIo++al9jKmVjkhDi+BAHMZ2hKTL6zHloR0itzWPDQdXi8D4uB/P8s1Ol1r0RHg8Xvq9JWbZV/8QWRrqd1s5zs0zGAgGgoFgYF0YWBuJIiEnSSIVTlgk4wSE3R3Xkfy1a9/peckYiZIt19MxMagdIlHsQCHr8cip/gJQMvq0iB9+qh65yK7IghMffKmfV2u1dWLictWOj43ZcJ9jpA05WrdffUtGv5FSP77ntQ2RQq+12xQSlRsjOEwbLAQDwcA2YGDtJGobkk4MufiCgWAgGAgGgoFgYFkMhERN+Ldyli169HPhBgPBQDAQDAQDhx8DIVEhUftec+aiPvwXdeYwcxgMBAPBwHowEBIVEhUSFQwEA8FAMBAMBAMTMBASNaFoYfjrYfipc+ocDAQDwUAwsM0YCIkKicrTRzAQDAQDwUAwEAxMwEBI1ISibTMrTmx5agsGgoFgIBgIBtaDgZCokKg8fQQDwUAwEAwEA8HABAyERE0oWhj+ehh+6pw6BwPBQDAQDGwzBkKiQqLy9BEMBAPBQDAQDAQDEzAQEjWhaNvMihNbntqCgWAgGAgGgoH1YCAkKiQqTx/BQDAQDAQDwUAwMAEDIVETihaGvx6GnzqnzsFAMBAMBAPbjIGQqJCoPH0EA8FAMBAMBAPBwAQMhERNKNo2s+LElqe2YCAYCAaCgWBgPRhYikTdfc+p7u13rnfX3vuge/LpczNZ7PnzF7rW58OPPp6pOxUQm/A5T6y333Fnd/mtd/vaqX6vvX65u+XW2/bV4cWXLu6NS1Y6btvrLxuS93GOkWv5SuiDcQAAIABJREFUQKa2s3zX+FvxVZs6F048Tp0rdv/Oa6tlP33ruXGkzqlzMBAMBAN/v5tMorTga1Fm8Ztn4RsiNCJWOzs73cl772uSgGUmalU+zzz6VLe7u9t9+tnn3YkTdy0VJwQE4kktneSIaPi5ZL3GEKP7Tz/Ux4JNJyiqG/2aJ7c3VtNZvrFJ/LJVdVr2ydNj1LHbaemlLzfrYCAYCAaCgW3EwMpIlHaktLCPJQmh8Z0nEScRKH28f8zOImOr8rlKEiXiUwmNaieSpNaPPVcRDgiIiAfHyMiuEy31S0a+zj73wk0+0fN2Xt+t+C+9efWm3TLZlk12LEXmPG4dQwQ9jhznhhkMBAPBQDCw7RiYTKKUmC+O8+wmtAiN7ECktNMjsnLlytV9pKqOu04v2HWDO0Tz+pRNiFK1Wfs1LrstHSeCqkmLXKq/RUIgUa1x+fJ+kQ8nIxqvJErykCrXlezQd0huqB87rXgYo607UX6+yI4m9tIOz2Nqk9oEA8FAMHDwGFiKRC06QUOERq/H9JoMcjKLREGqIDu0rVdt8/psESXZFSlqjcluqx8d1UbEo0WiNKZXYiIR1FAkBGI1REgqSXIbTkhks+4ozSJBHkclZxqrvumD/Mg+NobaGiOvBd2f7ED8huyk/+BvDKlxahwMBAPBwGwMHEoSVUlWJWE+8fOSqLNnz+37rRN6EDMIE+fyIYKlj+LROeSOHTWPY+xYxEFkhNda85IotykdCBtkxYmNjiFp0oPAQIIYm+Jb9pz8KA/sqiUO4nLS5DnoGBlqUcdzPvuiTo1So2AgGAgG1oOBrSBRlXxUklTHIS89gyn/Eflx8ECG/DWbxqtN73OTkKZKopy4ubyOFyFRIhROoBRHJTzk0+qHdECgJFtJjBMaHUOYsOtty4fGh/rRhZSNkR9inYdEyR+2067nZpA6p87BQDAQDCyGgY2TKMiMyAdEp5IoCAzkhHF2gDTpstP6q7kWiRrzCQnD5xCJkk/IHDrqe+CBn59r8YdQOPkBvPVVHP11lwjiMs/rr1kkCB+zfBN3JULEsgiJko0aO/bH7BBr2sUu9tQr9QoGgoFgYLUY2AiJqjs3Ovf/xQHEp8pBopwEVRknNALLkK3qE0JU7elcNiBVjLf6GCNOEZcWSYJwjO0IiWD4uGw54eBH/ZXMDF0g85Io6c/yzU6XE50WIaqxQJCImTpw3vJdbeR8tTeA1DP1DAaCgWBgOga2gkSxA+UTyW6TiIl2g0SyICeSq0TKSZjbGSJR1We1d+PGJ/t+7C6bTrRkV32VXLFzpbEhEqX++oqN80pM6HcCJdsiHox52yJtxOKkTH1jX7dffUsPEofveWxXEiU7EKlF7IzFnbHxeU19Up9gIBgIBlaHgbWSqEzc6iYutUwtg4FgIBgIBoKBzWIgJGrGjkwAulmApv6pfzAQDAQDwcC2YiAkKiRq9LXetgI3ceWmGgwEA8FAMLBpDIREhUSFRAUDwUAwEAwEA8HABAyERE0o2qaZb/zn6SsYCAaCgWAgGNg8BkKiQqLy9BEMBAPBQDAQDAQDEzAQEjWhaGH/m2f/mYPMQTAQDAQDwcCmMRASFRKVp49gIBgIBoKBYCAYmICBkKgJRds0843/PH0FA8FAMBAMBAObx0BIVEhUnj6CgWAgGAgGgoFgYAIGQqImFC3sf/PsP3OQOQgGgoFgIBjYNAZCokKi8vQRDAQDwUAwEAwEAxMwEBI1oWibZr7xn6evYCAYCAaCgWBg8xgIiQqJytNHMBAMBAPBQDAQDEzAQEjUhKKF/W+e/WcOMgfBQDAQDAQDm8bAUiTq7ntOdW+/c7279t4H3ZNPn5ubxZ4/f6Hzz+7ubnfm0afm1j+IohHThx99PDkO6eojW6uOEdtet4PyNW/sL750sZ97zb+Ob7n1tu611y/v9alfX2FEWJnX7qJywp78yr90FYu+i9ppycs2ebiPlmz6ckMPBoKBYOB4YWAyiaoL5uW33u1uv+POmQvXlStXKw/YOz8I8jEvoBclUeShFh8QnYPIA9t7xbIDjRHDrLYV9yydofFKVsBEJdQ6P0giVUnUULzL9K/DxzLxRfd43bgz35nvYGA7MLAyEjXPIqndJu066eNEA4Lw6WefdydO3DU3IVgliFZBolYZT7VFjbxuxFzrWXX9fBMkSuRaJPv+0w8dyNyug+Csw4fPU4634waZecg8BAPBwBgGJpMoGV30dR5EwHdvZOfkvfd1r7xysfuZBx7qv+pDlg0XJw+M0UpGBOzs2XN7JM1fEYqYaVx9N258gsluZ2en9y1/EBLZ1Lm+EA4UiKH2Y4d4kBvLYyimISLZsu1xux6y88Y9lisEqPV6bN6dKGyIiMgX57wmo19jkJWXX7209xqt+pYMunrFdva5FwZf581jz3Gsh4FHHnumJ33+ChI7vDJUrPmmBsFAMBAMHG8MLEWiFgEPpEELu5OMlo1KAioZGBpHjhZi4b4Zo0WmkqhKlJCXXB0bIlFDccrGWEyyX+uCrVo7dvdqDMSrFkI5FHftR1e+IDyVyCi+eUmUCAg7ldhjV4pzycimWhEkxiE4nGvcXx0z7r9X8rhm2UMf+7ySJF7mQXbcB/1pj/cNNPOf+Q8GjjcGto5EVVIggGox1wfCA6GAbEACIBLVhhMWSIh2vySvj/rwIduMQT5aMeCTGCRDXLJVY6g2Hnzw4T4f/Gscm7Kjc/+6be93P88//x+6M2ee3NNr5Y0P4p4nV/fnx05W1A8BYZeI1glJi4x4nx+7TfVjX8ceR9XxuOpYtVHHZVeEymNWX0vOY8jxfrymHqlHMBAMHAcMrI1EqZgQARZwCszrPJ07mfFxER5IEnYk29KBGCAPmXBSJD23434hJj3DKv+ByFUyMmavlcfjTzy794pR/lp5oFdtez9xE5fGiM1Dp1aMMQfz5Or+/NjJivorQXFZjqUDufKWXZ5KVtwmu1bsGmGz6nhcdcztSd9lsafdKe12qaWv2qE/bRaKYCAYCAaOLwbWSqJ8wWZRF/ggMyI5v/Ef3+1fP0GANF6JAvLYYFz9kh8iUb7rgwx9boMxj0FETP1cLJWMeB6yRa5uAx8iPOxEObFjnDzwVW3Tjzw5ELcTqlqrGjc6HmfNFX+1rQSkEpQqr3OREem1xhiHUOncbfqx61eC43HVsWqjjstudqKO7w3RcZXj4CAYCAZmYWCtJErBsIj7LgnHIgWSYeGnn7aOcw6ZgHxUYsBOFHa8hXBUG0NxIu/jEBDiJi7O3Z+ONU5Mi5Koakvn5A1xa8mMxe25uK50fvK+B/pdmRbxcbKieasEpQW+upuEDsSpkhrG1S97ahf9TRS2WzHmN1G5SbZwmr7gIhgIBubBwNpJlIKqiz0kxAOuBARiIhnG6FPrZGKIRImwLPPXeSIbxIgP+SX+GpfHCjkh5lWRKOwRlxMi5Xvt2nd615CoVtzSdT0pkCukZ1UkSr6wyes8tz2LRElfMuiKIM3z13kiY9KtpEx9ECnZ1G+h8td5uXkKF/mmBsFAMDALAxshUbOCWvV4i7Cs2sdxtCfyA5lxInTYalF/Y6VzdrsqYYOMHbYcE28Wg2AgGAgGVo+BkKg8cR7rJ25IEkSKnarDTApzo1z9jTI1TU2DgWCghYFjQaJaiacvFwQYEIFiR01tCFSwATbSBgvBQDAwhoGQqOxEHeudqLGLI2O5eQYDwUAwEAyMYSAkKiQqJCoYCAaCgWAgGAgGJmAgJGpC0cZYacby1BIMBAPBQDAQDBwPDIREhUTl6SMYCAaCgWAgGAgGJmAgJGpC0fKEcTyeMDLPmedgIBgIBoKBMQyERIVE5ekjGAgGgoFgIBgIBiZgICRqQtHGWGnG8tQSDAQDwUAwEAwcDwyERIVE5ekjGAgGgoFgIBgIBiZgICRqQtHyhHE8njAyz5nnYCAYCAaCgTEMhESFROXpIxgIBoKBYCAYCAYmYCAkakLRxlhpxvLUEgwEA8FAMBAMHA8MhESFROXpIxgIBoKBYCAYCAYmYCAkakLR8oRxPJ4wMs+Z52AgGAgGgoExDCxFou6+51T39jvXO/3L908+fW4miz1//kLX+uzu7nZnHn1qpr4SkZzkP/3s8+7Eibvm0hkrwDxjJ++9r9vZ2em/OkaH/lZO9Cln5Ke0XmPV+fJb73a333HnUjanxDFV58WXLnb6LqJ/y623da+9frnHlXLmK6ypHovYasmqfqrj/acfWtpWy376ctMNBoKBYOB4YGAyiaoL3TyL+xCJEuGYl0gtSqKuXLna8xm1U0ENWRKRWieJEjEVgfDFXse1b2peY3ryLSKjeR6TmzW2DImqxFznqyJSs+LO+PG4AWaeM8/BQDCwDAZWRqLmWdwgUR9+9PG+hVnn+sxDdLaJRHnhtSum3bF5yaDrto7ZgXIChdyqCA72Wu2qfKySRGUHKTe7FlbTF1wEA8HApjAwmUQpYBZ67YzUXYNWQrNIFOSKnZ+eWXXdvld3LRIFCUOeV2jsQtHvO0muU4kPhAg9kaPW6zzPEZ1qSzLuSzaJj9281o7PGIlxMuHHxCPi5Tbxw2sxH9Mcahfx7HMv9DtcIj3yjazPbbXjr+ladhQPJEoxVaJN7BU7+Kn9LXmPld3QlhyxKPe7fuzkTa/z2OFTvh6n7GNXNiTn5+StFr/Uzu0wN2lzsw8GgoFg4OhgYCkStSgQIFGQE28hH5VAIcNvoCqJqgRF8tgaIlFjOpAh/HrrJKzmjh6+GW/5kk3VArLgpAY9yAfn3qKnBZ6FW4s7MjrGJrIQHuQhKFr8tdgjjw2Nex920OMcu0N2PA8doy8/1Qe+se2yyDsxqfo6h+B4DaTbIjvUTC16ktU5fqgXsvIhkuTn1KDmJxnGyC3t0bl5Zi4zl8FAMLAVJMrJCcRH5EMAhZxAPJxEPf7Es92ZM0/ukYcqK33sqdU5+kM+W+OQP9epFw++nUSN2YIUVjuca/EdWoCdZNRFXvpavCFAkpUMdtW6bScXLlMJimw60cAPfUN23Jfb8Bzcr44ZY0eHFmIjmVbe3ufHkvd8fAxfGieO2kcO6n/51Uv9V33IKS+O1Y+dtLnBBgPBQDBwtDGwERIFQYLgOKEY2rlpkSgRFwEUO75rxCszxiBRECKX5Vi+GSdG2Wd3bFESNdWWfPqiXy9CJwF+jJyTKO+DjKhlsR8iP9W/zl2f40VIlMc65FfxQkggNpIVgVJe5EMfcXiLnJMfkUr6PQ6OXZ9j/FPPr5w63RMotZfevNrbU/6KxeNGn9oQc9qjfTPN/GZ+g4Hjh4GNkijICQRJAKykR32SgzCxuyPipZ0oEZsWCRsiUa6PTbXyIV+MO2GCDHlfvVhkQ3GsaicKksDC7/6c4EACXI5FX2SEcUiT7EAudCw/TgTw4z7U5zaR8XbIjvuSvOyqj9ZtcFxJFHpOSpSXiAwEBl1vNQbZUSsdjVMT5YQvr5/bQF762oVS7OjomB0/yT3y2DP9GPq1hvSnPX432sx55jwYOJoY2CiJEqgqQXFixQ4RrWQhOSIsFy58rSctjHsLsYKUaQwSNLTbpX7IkNviGP3WxYCekyjJDflSLizGvhC7bS3C2tXwBV7H/loLG5KVLgQBm5XcMC4CIPk6jn/5wYb6qh/1yQbEZsiOZPCFP8Vf88LvkK8at+QqSVHMbpeY1ecxYIu6qiUPj5Gaqk/6bpu5QQbf7kfHfi47+aYGwUAwEAwcHQxsnERBPkRUID6VSDl5cRIlXSdJIjDXrn2n5zwtW26nkhuRGoDtMRGXdF0fWVp0KonS+JAvFnknK9ijFTmBdGgR17fKu4zIgHZEXIYFX7oaf/78y3uEYIj8QDSkAxEg3lYcQ3YqkcCGkxZypUUGgkJ/i6h4bk4u0dF47Sc3SJRksU1uPqZx2fGYNT5kFxs+B8ST9ujcPDOXmctgIBhYK4kK4FYDOBETLdR1oT8M9R0iSIch9sS4GvymjqljMBAMHBUMhETlFcveDtw6QD20Y7UO3/GRG3cwEAwEA8HAKjEQEhUStTYSxQ5afU23SkDHVm6QwUAwEAwEA+vCQEhUSNTaSNS6QB0/uYEGA8FAMBAMrAMDIVEhUSFRwUAwEAwEA8FAMDABAyFRE4q2DnYbH3mKCgaCgWAgGAgGthsDIVEhUXn6CAaCgWAgGAgGgoEJGAiJmlC0PBls95NB5ifzEwwEA8FAMLAODIREhUTl6SMYCAaCgWAgGAgGJmAgJGpC0dbBbuMjT1HBQDAQDAQDwcB2YyAkKiQqTx/BQDAQDAQDwUAwMAEDIVETipYng+1+Msj8ZH6CgWAgGAgG1oGBkKiQqDx9BAPBQDAQDAQDwcAEDIRETSjaOthtfOQpKhgIBoKBYCAY2G4MhESFROXpIxgIBoKBYCAYCAYmYGApEnX3Pae6t9+53l1774Nunn9U9vz5C50+u7u73ZlHn9qbsBMn7uo+/ezzm/o3xcA//OjjPs4rV67uxUhfP9B1fbyKe1Mxbrtf4UG4qN/Lb73b3X7Hnanb312sqoVqcv/ph45ETfSPTOs7FZ+6p6geals2+Eesl/HRsnvQfcvWZd74ZtVPdpaNRdf2a69f7m659bbmHM0b6zJy8+S5jH3Xrb6WrZ/bzvF27zLNMz+TSZQuIF1ILJLzLI6QKBERkSZIyBQSJYKjjxOdeRKeJXPy3vu6nZ2d/qtjYoM8eSs5ycyyeVjGRWxFcH1upsa+zI0WbM1DzKfGV/Va8bb6qt4i55vIa5H4ViG77AJTFyyPSWOX3rx6KEn4snXxOowdj9UPvWVjWfV1QVyLtPPkOa+9WdflKn3NG1PkDg+5WhmJ0o6UwDY2+U6inABBVOoO1ZitgyJRxKidJ/nHjxMmiJbnMBbrYRkLidr/dL3qxWLWzfqw4GQszmUX6LEFS7t1m94BGct9bGzZuozZ9rGx+iG3bCyrvi6Ia5F2njzntTfrulylr3ljitwxIFGaZIFryus87XSIlECahkhUfYUmgiO/EBt2hZzg1DF0pAdJQA//ALbGAVmqcpI/e/Zcb0+t9JDFtsfkdm/c+ASRTvlB2tTpOsT6xRff6/TlI3mvC2SPHMbyR4/WfeIPP2qpncurH59a1LQT2XoVNXaj5ablu5dg6eVffWPfDifknNdeZ597occciym22BGln3p4S7zIErdipU+tzlt9slX9aUHCR41Rtoi/6tGPDrHIlvtGDh8aU44vv3ppL2aPATm13PxVM/LzmksG/4zLvtvwmtVYJCff6LI4ezyz7DPv1OqRx55pvs7zmkiWOD0+9Xsda/4el+cOpohBel4D9039mE+3Sf7oSg88MkY9iB9ZjSNLn1qvj+eNjI9rflr1k23p6kscarFBTMjU2Dx/xah6tWLFjtdTNueZE3SJweOrdWjlSV6ek3YtfS5bWGEe8dvCuGxo3rHlvhgbu8aqj5qbzvGvttafnNJuJ7GavBM1ZUIhDFqEORahEgFR62SlLtws7tKrRAHyUftdp5IcxtBVPhAJXmdx7jKtvGfZhkThc6yFoOB7TJYxyM5Y/op7qKbqb/lr1Rqf8sVNyW+S1MdvvNwg6g2KmxE3GW4e9Vw2ucmyiKkPOW5KyGCHWNQqRvcvGbel87ow1D78YZ/z6t/taIxz5NH3vKihyw/FrXoir5u48uLcc2aM+PDPOfVCl3PiU7/XSOdew1asim1e+8SHf+JzH56P5Kil+hWnx1ftce46bo98fbzmJB8+7j69PsROPJyTm+xSl5qH4pSeWo+P+LGh1mtTx/HpMjUf2VhkjjxfxYZPrwkxU09qgLzn1tKnjzzJg3oNjdc8kZdfxeIkqlU74sKfciUXb+UfWfXLD76IjXNs1XNs13HF5bVU3DpX6zHkeDsJlOZlYyRKzlnUr137zj4SxYLu5MVJl0gJhEGtbEFknIi5zoULX7vp9z7Xr7/fkwcAWm224kDWW/QgQBojN405iYLwMA5h81glX32Tn0gMOWND54wP5S+bLq8Yh3wSk+dB3IpLdfP8W8e6afjNoSXDDcVv6pKjnxuP+rhBc6NFrt5s/AbnPn/4R358X8z1xtiKt/bJty8Qsu99rRh9fFZeLX35UE7UosbUskneNUf1u74fo0PfP/mhL/Xzp3PG3NdYrCwg2JIeNrzPjxlvxcyYagmmPBbG1com/sdsSbaVg89Xa9z7/Fi+FJsWbtnQuf9+y3HpesRMXp6L5Lx28+h5zlUe2x5Law7oa2FgVry6PpQ/vtS6P48PGfx5rl6/ofEhYiO7yh0S1cKK+nRP+Mqp0837DbGprTEvko/jCZvep9zqPQW5tNtLnHxuNkqiWPjZ3YAAsLhr0SdYZCFWEBcIBaQDW95CCqoM/uQDouN9+PQ+4uF1ns4hJxAN9XkOLdtD8ddYOZ9lo+bWyr/GiQ4+6jm5oodNnxdkatu68VUZnUvOd1bU17rpDS0IktdNSTb46ibX8oVd5PxJthVv7SNW9Gm5CbZi9Bsm/mWH+Fyn3qyR8Zt2jallE72WPdeXXXLwVgv6XT92sr+5ez/HstGyLb8e65h9xe2yYzEzplpCNrxujKv1/IZiRL5lw+dL+sIIeXsrOdlRDvLpX/qIFTn145vcx+bPZYd8u03Je85+jC21+ObYbXPsGCBXbHiN6VPbqqf6Xb4Vk8eDPZebNS6dKqNYIFFDceFr1hx4LNVXHdO456tjauot9wzkfazWmzjTbiep2iiJEiggG1qgISss5hAml2PBryQEwuM6Ih7qB3xa/CE6VR6flSDgx+2iq5gVj3Zm9HFdHesj/VkESPHhn/zq+SwbxORxtvJXTNSg+qjnxKXfccmWzqmHWuraav1G0hpXn25AutHxOw7d7NTfuqm1boT06QaKj3ozpV/xOGmqN79WvLVPNzdfGLFNSzx+E9QxN8xZebX0ZVs5KRYd15haNomn5lj1Zctrh55a7HouPj4WKzbH7NdYsN2KmTGvP/FRF2Tc55gtybdy8PnSOAsx9msrecnoq2P51LFw4rFVXCKHvny1bGtxlUwrXtmvePScW/nJjsfi9ar+x2pc/bbiw5778/gYH8pDdVQOQ+O6rmRPdtwHsUhf46081EfNW+PEprbG7L7qmOQ9Xs1dq1bY104YObR8IZd2OwmU5mXjJEpBQDggUd7XMxH7DwSAxVxDEAfvM5We6HzjG9/yrr1jSAsxYB/QQl72FOwAvxAYG+oPGceG50eskJFKYOr5PDawWeMYyrH64Bx91Uy6rY/qpBuE3+SpmVq/kXg/x/UG7zcmyehcNobk1V9vYNiULnq01b5sO6lq3exqX+tmK7uQJPxLD786Zlx9s/KqdZO+x1nHWzHhu9ZH/a5f48UWN/0au+wpFtkgF2R1LnnhgfrPso896Ukf/56v+vlKrvrz2lZ7rfyxpbbGp76as9eLccc8NohjKIeKP+S8Xh6bjmf5rvli0+snv7Vm7pP46xygoxjITTHhk3GPGVsuL7seT2tO0KsxgCN81nG3W2slXR9vxaFx6SkHyXPsOZGzclIcyHpsPqZxj4U5cdvSlc7Jr9zft7VeOr/rR0/289aqc40v5z+4R2yiFltBoiAhTjJUDIgNi7gTHHQ0BlmRTiUSTlIqIUAPW5y3JqLaVWwuhw1idVvzECAIDISnns9jYyx/jVFP6lh9uIzyEIl6441vktJeS011Y/IFxeuhm4bG6tdvHtyIpMeNlJsGtrHPODdSfLkf2X7+/MvNmNAnHslJHn8+TlytPm6K2EHfc/AYdSw/siWZefLynHwhkL7G3CfxqJ+a0LYWrKrvOSoncseGx8tcMKZW8tRCx3yRmWWfBVI2lCu7kixY2FGrWDx3+vBf42vl7/aITXbp17HPl/rH5oP6e910XOOsdXG77p841GKb/PQXmbLr8c1TP/nGBnGoxRd1cBnG1Hr+8r+Kv86r8zsrhll51loJR+xEkYvqTI5qve4+5v3SrTiihq0x6uXzX2PzMcn7/HC9o1NlJZ/vdtVgrSRqWycfglSJ0bbGm7i26yLKfGQ+pmCgEtopNrZJByJUScg2xZhYcq2uGgMhUWH2ebIJBoKBNWOAnQYRqVXf1DdlLyQqBGVT2Nuk35CoNd88NznZ8Z2bXDCweQzw6uiovaoJido8tnJ9r38OQqJCoo7Mk3BuIOu/gaTmqXkwEAwcZwyERIVEhUQFA8FAMBAMBAPBwAQMhERNKNpxZt3JPU+dwUAwEAwEA8HA32IgJCokKk8fwUAwEAwEA8FAMDABAyFRE4oWBp6nsGAgGAgGgoFgIBgIiQqJytNHMBAMBAPBQDAQDEzAQEjUhKLl6SNPH8FAMBAMBAPBQDAQEhUSlaePYCAYCAaCgWAgGJiAgZCoCUXL00eePoKBYCAYCAaCgWAgJCokKk8fwUAwEAwEA8FAMDABAyFRE4qWp488fQQDwUAwEAwEA8FASFRIVJ4+goFgIBgIBoKBYGACBpYiUXffc6p7+53r3bX3PugW/dfIr1y52vE5f/7C2ifvxIm7uk8/+7zb3d3tzjz61Nr9H/QTDP/Iqebm8lvvdvrHQTVHY//o6YsvXez0nSc2zb3sqp1HfhmZWXEvY/uw6y4yZ4vmOmuO3fcs2THfml/hVN8xfI7ZyFh2BIKBYGATGJhMom659bb+hsfNj4V6niQgMJCoDz/6eN9CLFIjciOSI1nZbPXN42tIhhi2jUSpFvosSyxFouqcrJKMLLJotmIZmpdt7gfzquO2xOlEZtUxzZrjqb6HcDjUv+q8Yi+LbTAQDKwKAysjUdqR0k13nsAgRJConZ2d7uS99+3pMh4SNR3oLeKyykVq1gLrOGjF4uOH5Tgkaj8eQ6L21+Ow4DhxZt6CgdVhYDKJ0iRoIZ3yOo/dlldeudjvNvnOCwQKgqX2u999v9+Z8j52aqq8Ey/FODTuO1E3bnyyZ9r1iZNWQho/e/bymyivAAAHdUlEQVTcXjytnSyX93Fi+eKL73X68tGrTcXqevhSnOghj00W9dYrkBZxmUWifFGEJJ197oW9Vy2+s8W4WseCy6hfcbBbqVY+1N8akyxj3nrcei0pH4oL7EHgqYf7kB3pe1w6Jybvn8c2eviUffwy5vNRbWrs4Uee7GOndrKBnGLz3H0M+56fjl9+9dK+XeFqw+fA48aP18PHZ82xfBPLkCwxU2f3pTGPVcdeO+JLu7obfmqZWgYDq8XAUiRqymRox0k7T+w+iQyNEQaNDZGoSi4gGSIjim1oXETowQcf3iNw6NEOkRrGa9siXi4D6RmKh/EWiXr8iWf7Wrk9Hat+p0//XL/otBaeVZAoLagskhAFzn3R1LFkh0jQUCwsrJqrMRu+uEI2PGfFxLnsXHrzak9KZBd5YnNbGtc5cSCLLY27bWogHY25fe9zHWziAz3JuI6O3S9y6CNbY5AdJz7Ks5677zouu3Wc81lzLN/6KlaXJUZqrnH5IQe1rVyH+qlF2tXe/FPP1DMYWB4DaydRkCaIDqQKIqFJhWw4OWn1aUeI30xJD9voQUogRZJVn2w5iWJXix+7E1vVZxwCSExD54oJHfwqT+TZDRMpIgZ8co4PcpLN69ff73PQ8dBXCxiLITKzFqmhRbGlz6L5yGPPjBIo6dZYWGRZVN0+izJ9aj1uSIUv0G6/2vaxlq73+TH+Xb/aloyPoyM7InKqUctm1WvZxZbnTt8P/8iPd185dbrfAfM507j7a9n1PpfFtsYV991f/uoeMRqaY/cNHjznOr/4aOWksaF+9NIOX++pTWoTDGwGA2snUZCEurOic8hOizi0+gQaSJjbE+GAJDk5c5BBYHwcEqYYJUusEJo6jm9IEeMeC8ey1cqh+qjnigM9bHnMnpMftxb3WYvU0KKIXdfXYqkdD17XtMgPejWW1uItWbePbu1v6Vb7bkdx6Vx2aszErlY2Ztl2AkJ87os+t+PHjKv1ficgLqNjn5M61hp3uxx7nhwr7jG/sl3rVefYY6u2qm/feWrVTP6G+lt5p28zC0bqnroHA/sxsFYSVckApICW3RbkONektfrY5YHkVBkICeRMdt5559s98ToIElX9y5/8iGwN5UCM5FDPpac+xitx03jrW4mFZGYtUmOLYtX3RZPFVj7niaVFRrBfF2r6WYRZnN1XzVUy2glSPztCskO/4m3FOct2K+7qu/pp2cS35kP50tLvbWvOtBOFjM+Z+twf8Xqt0Kuy9EtHNnQ+a47dt8vKhnavsKnWZVs5SWao3+3kuH29py6pSzCwGQyslURBepzUaOIhNCJTIguQEcjVUB+EAzlvWzqMa+dIvzUSSfNdHenoI7uKC/vq13kdbxEadPBFq37ycnKIPD44l57kvvGNb2FiX6uxL//EqQP9TZReBzrh8EXOF03VRgu1/xZHfXwl679TQt5fN0pG+q0F3/06ScB+i8ho0dauC+QLWbdFHPPuREledmUDexAV75MMflvxokvO+KffW/Sxjz/sOzmRHvLUsdYGn9hT6/MgeeKRrGNAYz7H7ttlZVM28EHMnMsO8XuuGm/1u0yOf3BdpRapRTCweQysjURBOJy0OAAgWBAMJxMtgqE+bMIu9Fd20tcHHYgLMtiHuHk80tFHvhUbMWCrjuOf13nkgx4+0ScWYmj5QEa6krtw4Wt7OWEPfyxOrYWnLp7yxeKmBc6/6A8tiuTli5wvmoxL3xdZ+olTPvGlMRZsYtE5Ot6630oSsONEgD7Zbdn0Oni889j2mLHt+dUcWzbJDb0aO+O02KBOqjNjPmfqQ5bY1Ocxt2oyVI9Zc+y+q6zOVdtWzMSoMc/F55n80m5+kcgcZA6CgWEMrI1EZRKGJ+EgauML56xF+iD8x+bs+YZEiTwc53o5iXOSfZxrktxnXz+pUWq0DRgIibLXTtswIYnh+NwY6u5N5v74zH3mOnMdDBwNDIREhUQd612QTd3I9BpLr7OO+y7Upuofv0djAcs8Zh43jYGQqJCokKhgIBgIBoKBYCAYmICBkKgJRds0843/PH0FA8FAMBAMBAObx0BIVEhUnj6CgWAgGAgGgoFgYAIGQqImFC3sf/PsP3OQOQgGgoFgIBjYNAZCokKi8vQRDAQDwUAwEAwEAxMwEBI1oWibZr7xn6evYCAYCAaCgWBg8xgIiQqJytNHMBAMBAPBQDAQDEzAQEjUhKKF/W+e/WcOMgfBQDAQDAQDm8ZASFRIVJ4+goFgIBgIBoKBYGACBkKiJhRt08w3/vP0FQwEA8FAMBAMbB4DIVEhUXn6CAaCgWAgGAgGgoEJGAiJmlC0sP/Ns//MQeYgGAgGgoFgYNMYCIkKicrTRzAQDAQDwUAwEAxMwEBI1ISibZr5xn+evoKBYCAYCAaCgc1jICQqJCpPH8FAMBAMBAPBQDAwAQMhUROKFva/efafOcgcBAPBQDAQDGwaAyFRIVF5+ggGgoFgIBgIBoKBCRgIiZpQtE0z3/jP01cwEAwEA8FAMLB5DIREhUTl6SMYCAaCgWAgGAgGJmDg/weCDrPajrJXxAAAAABJRU5ErkJggg==;" vertex="1" parent="1">
          <mxGeometry x="340" y="30" width="593" height="384" as="geometry" />
        </mxCell>
      </root>
    </mxGraphModel>
  </diagram>
</mxfile>
